<?xml version="1.0" encoding="utf-8"?>
<!-- Generator: Adobe Illustrator 21.0.0, SVG Export Plug-In . SVG Version: 6.00 Build 0)  -->
<svg version="1.1" id="Layer_1" xmlns="http://www.w3.org/2000/svg" xmlns:xlink="http://www.w3.org/1999/xlink" x="0px" y="0px"
	 viewBox="0 0 512 512" style="enable-background:new 0 0 512 512;" xml:space="preserve">
<path d="M506.7,243.7l-80-76.6V51.2c0-4.5-1.8-8.9-5-12.1c-3.2-3.2-7.6-5-12.1-5h-51.2c-4.5,0-8.9,1.8-12.1,5c-3.2,3.2-5,7.6-5,12.1
	v34.2l-61.9-59.3l0,0c-1.6-1.6-3.4-2.9-5.2-4.1c-3-1.8-6.1-3-9.1-3.8s-6.1-1.1-9.1-1.1c-4,0-8.1,0.6-12.1,2c-2,0.7-4.1,1.6-6.1,2.9
	c-2,1.2-4,2.7-5.8,4.6l0,0L5.3,243.7c-6.8,6.5-7,17.3-0.5,24.1s17.3,7,24.1,0.5L51.2,247v213.8c0,4.7,1,9.2,2.7,13.3
	c2.6,6.1,6.9,11.3,12.3,15c2.7,1.8,5.7,3.3,9,4.3c3.2,1,6.6,1.5,10.1,1.5h102.4c4.5,0,8.9-1.8,12.1-5s5-7.6,5-12.1v-145
	c0-1.2,0.2-2.3,0.7-3.3c0.6-1.5,1.7-2.8,3.1-3.8c0.7-0.5,1.4-0.8,2.2-1.1c0.8-0.2,1.6-0.4,2.5-0.4h85.3c1.2,0,2.3,0.2,3.3,0.7
	c1.5,0.6,2.8,1.7,3.8,3.1c0.5,0.7,0.8,1.4,1.1,2.2c0.2,0.8,0.4,1.6,0.4,2.5v145.1c0,4.5,1.8,8.9,5,12.1s7.6,5,12.1,5h102.4
	c4.7,0,9.2-1,13.3-2.7c6.1-2.6,11.3-6.9,15-12.3c1.8-2.7,3.3-5.7,4.3-9c1-3.2,1.5-6.6,1.5-10.1V247l22.2,21.3
	c6.8,6.5,17.6,6.3,24.1-0.5C513.6,261,513.5,250.2,506.7,243.7z M375.5,68.3h17.1v66.2l-17.1-16.4V68.3z M255.7,51.2L255.7,51.2
	L255.7,51.2L255.7,51.2z M255.2,51.4L255.2,51.4C255.2,51.4,255.2,51.4,255.2,51.4L255.2,51.4z M255.3,51.4L255.3,51.4L255.3,51.4
	C255.3,51.4,255.3,51.4,255.3,51.4z M426.6,460.8h-85.3v-128c0-5.8-1.2-11.5-3.4-16.6c-3.3-7.7-8.6-14.2-15.4-18.8
	c-3.4-2.3-7.2-4.1-11.2-5.4s-8.3-1.9-12.7-1.9h-85.3c-5.8,0-11.5,1.2-16.6,3.4c-7.7,3.3-14.2,8.6-18.8,15.4
	c-2.3,3.4-4.1,7.2-5.4,11.2c-1.3,4-1.9,8.3-1.9,12.7v128H85.3V214.3l170.2-163c0.1,0,0.2,0,0.4,0c0.1,0,0.3,0,0.4,0l170.3,163V460.8
	z"/>
</svg>
