<?xml version="1.0" encoding="utf-8"?>
<!-- Generator: Adobe Illustrator 24.1.1, SVG Export Plug-In . SVG Version: 6.00 Build 0)  -->
<svg version="1.1" id="Layer_1" xmlns="http://www.w3.org/2000/svg" xmlns:xlink="http://www.w3.org/1999/xlink" x="0px" y="0px"
	 viewBox="0 0 512 512" style="enable-background:new 0 0 512 512;" xml:space="preserve">
<style type="text/css">
	.st0{fill:#231F20;}
</style>
<g>
	<path class="st0" d="M504.5,123.8c-9.3-16.1-26.4-26.1-45-26.4H121.1l-15.3-59.7c-3.2-11.9-14.1-20-26.4-19.6H26.4
		C11.8,18.1,0,29.9,0,44.5s11.8,26.4,26.4,26.4h32.8l73,271.3c3.2,11.9,14.1,20,26.4,19.6h238c10,0,19.1-5.6,23.5-14.5l86.7-173.4
		C514.5,157.8,513.6,139,504.5,123.8z M380.2,308.9H178.7l-43.1-158.6h323.9L380.2,308.9z"/>
	<circle class="st0" cx="145.4" cy="454.3" r="39.7"/>
	<circle class="st0" cx="409.8" cy="454.3" r="39.7"/>
</g>
</svg>
