<?xml version="1.0" encoding="utf-8"?>
<!-- Generator: Adobe Illustrator 19.0.0, SVG Export Plug-In . SVG Version: 6.00 Build 0)  -->
<svg version="1.1" id="Layer_1" xmlns="http://www.w3.org/2000/svg" xmlns:xlink="http://www.w3.org/1999/xlink" x="0px" y="0px"
	 viewBox="0 0 512 512" style="enable-background:new 0 0 512 512;" xml:space="preserve">
<g id="XMLID_2_">
	<path id="XMLID_7_" d="M501.5,402.5l10.2,89.3c0.9,5.6-0.9,10.2-4.7,14c-3.7,3.7-8.4,5.6-14,5.6H18.8c-5.6,0-10.2-1.9-14-5.6
		c-3.7-3.7-5.6-9.3-4.7-14l10.2-89.3C10.5,402.5,501.5,402.5,501.5,402.5z M475.5,163.5l24.2,221.4H12.3l24.2-221.4
		c0.9-4.7,2.8-8.4,5.6-11.2c3.7-2.8,7.4-4.7,12.1-4.7h73.5v36.3c0,10.2,3.7,18.6,11.2,26c7.4,7.4,15.8,11.2,26,11.2
		c10.2,0,18.6-3.7,26-11.2c7.4-7.4,11.2-15.8,11.2-26v-36.3h109.7v36.3c0,10.2,3.7,18.6,11.2,26c7.4,7.4,15.8,11.2,26,11.2
		s18.6-3.7,26-11.2c7.4-7.4,11.2-15.8,11.2-26v-36.3h73.5c4.7,0,9.3,1.9,12.1,4.7C472.7,155.1,474.6,158.8,475.5,163.5z
		 M365.7,110.4v73.5c0,4.7-1.9,9.3-5.6,13c-3.7,3.7-7.4,5.6-13,5.6c-4.7,0-9.3-1.9-13-5.6c-3.7-3.7-5.6-7.4-5.6-13v-73.5
		c0-20.5-7.4-37.2-21.4-52.1c-14-14.9-31.6-21.4-52.1-21.4s-37.2,7.4-52.1,21.4s-21.4,31.6-21.4,52.1v73.5c0,4.7-1.9,9.3-5.6,13
		s-7.4,5.6-13,5.6c-4.7,0-9.3-1.9-13-5.6c-3.7-3.7-5.6-7.4-5.6-13v-73.5c0-30.7,11.2-55.8,32.6-77.2s47.4-32.6,77.2-32.6
		c30.7,0,55.8,11.2,77.2,32.6C354.6,54.6,365.7,79.8,365.7,110.4z"/>
</g>
</svg>
