<?xml version="1.0" encoding="utf-8"?>
<!-- Generator: Adobe Illustrator 21.0.0, SVG Export Plug-In . SVG Version: 6.00 Build 0)  -->
<svg version="1.1" id="Layer_1" xmlns="http://www.w3.org/2000/svg" xmlns:xlink="http://www.w3.org/1999/xlink" x="0px" y="0px"
	 viewBox="0 0 512 512" style="enable-background:new 0 0 512 512;" xml:space="preserve">
<g>
	<path d="M256,0C166.3,0,93.1,73.2,93.1,162.9c0,56.1,28.6,105.9,72,135.3c-83,35.6-141.8,118-141.8,213.8h46.5
		c0-103.1,83.1-186.2,186.2-186.2S442.2,408.9,442.2,512h46.5c0-95.8-58.8-178.2-141.8-213.8c43.4-29.4,72-79.2,72-135.3
		C418.9,73.2,345.7,0,256,0z M256,46.5c64.5,0,116.4,51.8,116.4,116.4S320.5,279.3,256,279.3s-116.4-51.8-116.4-116.4
		S191.5,46.5,256,46.5z"/>
</g>
</svg>
