<?xml version="1.0" encoding="utf-8"?>
<!-- Generator: Adobe Illustrator 21.0.0, SVG Export Plug-In . SVG Version: 6.00 Build 0)  -->
<svg version="1.1" id="Layer_1" xmlns="http://www.w3.org/2000/svg" xmlns:xlink="http://www.w3.org/1999/xlink" x="0px" y="0px"
	 viewBox="0 0 512 512" style="enable-background:new 0 0 512 512;" xml:space="preserve">
<g>
	<path d="M506.3,163.5c-5.6-13.1-14.8-24.3-26.5-32.2c-5.8-3.9-12.3-7.1-19.2-9.2c-2.9-0.9-5.8-1.6-8.8-2.1v-17.2
		c0-10.4-2.1-20.3-5.9-29.4c-5.7-13.6-15.3-25-27.3-33.2c-6-4.1-12.7-7.3-19.8-9.5c-7.1-2.2-14.6-3.4-22.4-3.4h-0.1
		c-0.1,0-0.2,0-0.3,0l0,0c-4.6,0-9.1,0.4-13.7,1.3l0,0L61.6,80l-0.3,0.1c-8.9,1.7-17.2,4.9-24.6,9.3c-11.1,6.7-20.3,16-26.7,27.2
		c-6.4,11.1-10,24-10,37.6v0.1V192v18.3v201.1c0,10,2,19.7,5.8,28.5c5.6,13.1,14.8,24.3,26.5,32.2c5.8,3.9,12.3,7.1,19.2,9.2
		c6.9,2.1,14.2,3.3,21.7,3.3h365.7c10,0,19.7-2,28.5-5.8c13.1-5.6,24.3-14.8,32.2-26.5c3.9-5.8,7.1-12.3,9.2-19.2
		c2.1-6.9,3.3-14.2,3.3-21.7V192C512.1,182,510.1,172.3,506.3,163.5z M68.2,116.2L68.2,116.2l300.7-51.4l0.3-0.1
		c2.4-0.5,4.8-0.7,7.3-0.7h0.1h0.1h0.1c5.4,0,10.5,1.1,15.1,3c6.9,2.9,12.9,7.9,17.1,14.1c2.1,3.1,3.8,6.5,4.9,10.1
		c1.1,3.6,1.7,7.5,1.7,11.6v16H73.1v0c-5.9,0-11.8,0.7-17.4,2.1C59.5,118.7,63.7,117.1,68.2,116.2z M475.3,411.5
		c0,5.1-1,9.9-2.9,14.2c-2.8,6.5-7.4,12.2-13.3,16.1c-2.9,2-6.1,3.5-9.6,4.6c-3.4,1.1-7.1,1.6-10.9,1.6H73.1c-5.1,0-9.9-1-14.2-2.9
		c-6.5-2.8-12.2-7.4-16.1-13.3c-2-2.9-3.5-6.1-4.6-9.6c-1.1-3.4-1.6-7.1-1.6-10.9v-201V192c0-5.1,1-9.9,2.9-14.2
		c2.8-6.5,7.4-12.2,13.3-16.1c2.9-2,6.1-3.5,9.6-4.6c3.4-1.1,7.1-1.6,10.9-1.6v-0.1h365.5c5.1,0,9.9,1,14.2,2.9
		c6.5,2.8,12.2,7.4,16.1,13.3c2,2.9,3.5,6.1,4.6,9.6c1.1,3.4,1.6,7.1,1.6,10.9V411.5z"/>
	<circle cx="384" cy="301.7" r="36.6"/>
</g>
</svg>
