<svg id="Group_198" data-name="Group 198" xmlns="http://www.w3.org/2000/svg" width="65.241" height="74.125" viewBox="0 0 65.241 74.125">
  <path id="Path_22" data-name="Path 22" d="M30.306,41v1.482a4.447,4.447,0,1,1-8.894,0V41H14v1.482a11.859,11.859,0,1,0,23.717,0V41Z" transform="translate(6.762 19.785)" fill="#32adff"/>
  <path id="Path_23" data-name="Path 23" d="M61.371,53.367h0a3.607,3.607,0,0,1-3.558-3.558V32.614A25.218,25.218,0,0,0,36.32,7.711V3.857A3.733,3.733,0,0,0,33.059,0a3.784,3.784,0,0,0-4.15,3.706v4a25.218,25.218,0,0,0-21.494,24.9V49.809a3.607,3.607,0,0,1-3.558,3.558h0A3.733,3.733,0,0,0,0,56.628a3.784,3.784,0,0,0,3.706,4.15h57.81a3.784,3.784,0,0,0,3.706-4.15A3.733,3.733,0,0,0,61.371,53.367Zm-46.545,0V33.207c0-9.19,6.819-17.343,16.009-18.233A17.736,17.736,0,0,1,50.4,32.614V53.367Z" transform="translate(0.006 0.006)" fill="#3acfb3"/>
</svg>
