<svg xmlns="http://www.w3.org/2000/svg" width="27" height="22.112" viewBox="0 0 27 36.112">
  <g id="bazaar" transform="translate(-6.104 -3.438)">
    <path id="Path_2160" data-name="Path 2160" d="M23.142,13.556c-.752-.188-1.5-.427-2.257-.564a8.665,8.665,0,0,0-7.71,2.291,16.264,16.264,0,0,0-4.616,7.933,18.9,18.9,0,0,0-.615,4.377c0,.051-.017.12-.017.274a3.187,3.187,0,0,1-.239-.359,11.8,11.8,0,0,1-1.453-4.582A20.567,20.567,0,0,1,8.183,11.966a5.646,5.646,0,0,0,.325-.735c.137-.462.462-.564.889-.633a17.664,17.664,0,0,1,5.112-.051,23.069,23.069,0,0,1,8.514,2.941C23.039,13.5,23.091,13.521,23.142,13.556Z" transform="translate(0 4.93)" fill="#fff"/>
    <path id="Path_2161" data-name="Path 2161" d="M11.94,27.088c.667.188,1.282.393,1.915.53a8.889,8.889,0,0,0,8.753-2.923,17.085,17.085,0,0,0,4.377-9.659c.085-.718.12-1.436.188-2.205.085.137.171.256.239.393A12.668,12.668,0,0,1,28.951,19.1,22.138,22.138,0,0,1,26.4,29.738a.707.707,0,0,1-.479.274,15.559,15.559,0,0,1-3.778.239,22.8,22.8,0,0,1-10.138-3.094Z" transform="translate(4.141 6.665)" fill="#fff"/>
    <path id="Path_2162" data-name="Path 2162" d="M25.1,29.911c-.53.274-1.009.547-1.5.752a14.388,14.388,0,0,1-6.992.974,24.225,24.225,0,0,1-8.343-2.462c-.256-.12-.291-.308-.342-.53a16.4,16.4,0,0,1-.205-4.479A23.239,23.239,0,0,1,10.675,14.8a1.065,1.065,0,0,1,.239-.308c-.034.12-.085.239-.12.359a9.247,9.247,0,0,0,2.564,10.583,17.015,17.015,0,0,0,8.958,4.189C23.223,29.757,24.129,29.808,25.1,29.911Z" transform="translate(1.099 7.843)" fill="#fff"/>
    <path id="Path_2163" data-name="Path 2163" d="M24.368,26.043c.205-.752.427-1.419.547-2.1a8.916,8.916,0,0,0-2.889-8.617A16.828,16.828,0,0,0,12.3,10.879c-.684-.085-1.385-.12-2.188-.188.479-.256.872-.479,1.265-.667A13.621,13.621,0,0,1,17.632,8.9a22.784,22.784,0,0,1,9.335,2.547.512.512,0,0,1,.256.359,14.934,14.934,0,0,1,.239,4.445,23.214,23.214,0,0,1-2.906,9.42A1.915,1.915,0,0,1,24.368,26.043Z" transform="translate(2.843 3.863)" fill="#fff"/>
    <path id="Path_2164" data-name="Path 2164" d="M13.7,10.365a7.739,7.739,0,0,1,8.275-6.924C21.564,8.006,18.231,10.929,13.7,10.365Z" transform="translate(5.39 0)" fill="#fff"/>
  </g>
</svg>
