<svg xmlns="http://www.w3.org/2000/svg" width="205.548" height="204.583" viewBox="0 0 205.548 204.583">
  <g id="Path_2110" data-name="Path 2110" transform="matrix(-0.839, -0.545, 0.545, -0.839, 125.708, 204.586)" fill="#eff8f7">
    <path d="M 71.85085296630859 145.1010437011719 C 66.89228820800781 145.1009368896484 61.62265014648438 143.9118194580078 56.18830871582031 141.5667114257813 C 50.98430633544922 139.3209838867188 45.70221710205078 136.0514984130859 40.48873901367188 131.8490753173828 C 30.3851490020752 123.7048645019531 20.98014831542969 112.352409362793 14.00626277923584 99.88295745849609 C 7.854262351989746 88.88356781005859 3.780535221099854 77.53231811523438 2.225489854812622 67.05636596679688 C 1.405898928642273 61.53514099121094 1.286285281181335 56.27100372314453 1.869967103004456 51.41018295288086 C 2.48085355758667 46.32277679443359 3.868830680847168 41.64045715332031 5.995353698730469 37.4932746887207 C 8.706875801086426 32.20525360107422 12.98171710968018 27.22089004516602 18.70119476318359 22.67861557006836 C 24.15514945983887 18.3471851348877 30.78692245483398 14.51688957214355 38.41230773925781 11.29409408569336 C 45.81694412231445 8.164616584777832 53.87562561035156 5.723366260528564 62.36453628540039 4.038184642791748 C 70.84848785400391 2.35398006439209 79.38344573974609 1.500002861022949 87.73237609863281 1.500002861022949 C 93.90428161621094 1.500002861022949 99.85714721679688 1.97579824924469 105.4256286621094 2.914161920547485 C 111.1857147216797 3.884798288345337 116.5211715698242 5.34938907623291 121.2837600708008 7.267230033874512 C 126.2444000244141 9.26482105255127 130.6024169921875 11.7634801864624 134.2368316650391 14.69382095336914 C 138.0398254394531 17.76011657714844 141.0907897949219 21.33470726013184 143.3049468994141 25.31832122802734 C 145.759033203125 29.73359298706055 147.3438110351563 34.80791091918945 148.0152435302734 40.40027618408203 C 148.6537322998047 45.71847915649414 148.4733581542969 51.54056930541992 147.4791107177734 57.70486831665039 C 145.6084747314453 69.30241394042969 140.8787231445313 81.99986267089844 133.8011474609375 94.42454528808594 C 125.9973983764648 108.1240234375 115.7507858276367 120.7180480957031 104.9488296508789 129.8866577148438 C 99.42149353027344 134.5782012939453 93.89310455322266 138.2645416259766 88.51724243164063 140.8432312011719 C 82.92903900146484 143.5237579345703 77.61028289794922 144.9522705078125 72.70869445800781 145.089111328125 C 72.42494201660156 145.0970306396484 72.13632965087891 145.1010437011719 71.85085296630859 145.1010437011719 Z" stroke="none"/>
    <path d="M 71.85088348388672 143.6010437011719 L 71.85084533691406 143.6010437011719 C 72.12216949462891 143.6010437011719 72.396728515625 143.5972442626953 72.66683197021484 143.5896911621094 C 77.356689453125 143.4587860107422 82.47126007080078 142.0796966552734 87.86847686767578 139.4907684326172 C 93.12859344482422 136.9676055908203 98.54869079589844 133.3515472412109 103.9781646728516 128.7430725097656 C 114.6500244140625 119.6848831176758 124.7785034179688 107.2333145141602 132.4977874755859 93.68209838867188 C 139.4875030517578 81.41164398193359 144.1558837890625 68.88833618164063 145.9982452392578 57.46600341796875 C 146.97021484375 51.43990707397461 147.1477355957031 45.7583122253418 146.5259246826172 40.57909774780273 C 145.8777923583984 35.18076324462891 144.3529815673828 30.29147911071777 141.9938354492188 26.04705047607422 C 139.8739318847656 22.23297882080078 136.9473114013672 18.80607414245605 133.2953033447266 15.86155033111572 C 129.7763366699219 13.02426433563232 125.5465469360352 10.60085964202881 120.7234497070313 8.658645629882813 C 116.060905456543 6.781097888946533 110.8301162719727 5.346026420593262 105.1763610839844 4.393288612365723 C 99.69002532958984 3.468764781951904 93.82102203369141 3.000002861022949 87.73238372802734 3.000002861022949 C 79.48130798339844 3.000002861022949 71.04459381103516 3.844312429428101 62.65662002563477 5.50945520401001 C 54.26759719848633 7.174836158752441 46.30709457397461 9.585931777954102 38.99626159667969 12.67576503753662 C 31.49602508544922 15.84566974639893 24.98161888122559 19.6063117980957 19.63404846191406 23.85324096679688 C 14.08309555053711 28.26171684265137 9.943452835083008 33.08116912841797 7.330119609832764 38.17771530151367 C 5.284881591796875 42.16633605957031 3.948905467987061 46.67855072021484 3.359262466430664 51.58902740478516 C 2.791524410247803 56.31719207763672 2.909262657165527 61.44705200195313 3.709214925765991 66.83612060546875 C 5.237881660461426 77.13414764404297 9.251238822937012 88.30833435058594 15.31545257568359 99.15076446533203 C 22.19792938232422 111.456787109375 31.47228622436523 122.6545257568359 41.43009567260742 130.6812438964844 C 46.53790664672852 134.7985076904297 51.70323944091797 137.9975280761719 56.78261947631836 140.189453125 C 62.02821350097656 142.453125 67.09790802001953 143.6009521484375 71.85088348388672 143.6010437011719 M 71.85081481933594 146.6010437011719 C 50.54731369018555 146.6006164550781 26.72972869873047 125.7057723999023 12.69711971282959 100.615119934082 C 0.6309292316436768 79.04157257080078 -4.438856601715088 54.55474090576172 4.660595893859863 36.80888366699219 C 16.2723388671875 14.16352939605713 53.80563735961914 7.457914762198925e-06 87.73237609863281 7.457914762198925e-06 C 112.3660736083984 7.457914762198925e-06 135.1019744873047 7.472293376922607 144.6160278320313 24.58959770202637 C 167.2333831787109 65.28169250488281 112.1823120117188 145.48779296875 72.75054931640625 146.5885314941406 C 72.45094299316406 146.5968933105469 72.15145111083984 146.6010437011719 71.85081481933594 146.6010437011719 Z" stroke="none" fill="#8a95ad"/>
  </g>
</svg>
