<svg id="Group_197" data-name="Group 197" xmlns="http://www.w3.org/2000/svg" width="74.125" height="66.713" viewBox="0 0 74.125 66.713">
  <path id="Path_20" data-name="Path 20" d="M64.786,14.973l-4.744-8.9A12.074,12.074,0,0,0,49.516,0a11.055,11.055,0,0,0-5.634,1.483L19.273,14.825H11.86A11.9,11.9,0,0,0,0,26.685V54.853a11.9,11.9,0,0,0,11.86,11.86H62.265a11.9,11.9,0,0,0,11.86-11.86V26.685A11.946,11.946,0,0,0,64.786,14.973ZM47.44,8.006a3.706,3.706,0,0,1,2.076-.593A4.274,4.274,0,0,1,53.37,9.785l2.669,5.041h-21.2ZM66.713,54.853A4.46,4.46,0,0,1,62.265,59.3H11.86a4.46,4.46,0,0,1-4.448-4.448V26.685a4.46,4.46,0,0,1,4.448-4.448H62.265a4.46,4.46,0,0,1,4.448,4.448Z" fill="#3acfb3"/>
  <path id="Path_21" data-name="Path 21" d="M50.769,27.413H13.706A3.67,3.67,0,0,1,10,23.706h0A3.67,3.67,0,0,1,13.706,20H50.769a3.67,3.67,0,0,1,3.706,3.706h0A3.766,3.766,0,0,1,50.769,27.413Z" transform="translate(4.825 9.65)" fill="#32adff"/>
</svg>
