<svg xmlns="http://www.w3.org/2000/svg" xmlns:xlink="http://www.w3.org/1999/xlink" width="1435" height="688" viewBox="0 0 1435 688">
  <defs>
    <clipPath id="clip-path">
      <rect id="Rectangle_2132" data-name="Rectangle 2132" width="347" height="499" transform="translate(595.046 3898.795)" fill="#fff" stroke="#707070" stroke-width="1"/>
    </clipPath>
    <clipPath id="clip-path-2">
      <rect id="Rectangle_2133" data-name="Rectangle 2133" width="351" height="528" transform="translate(1339.531 3898.849)" fill="#fff" stroke="#707070" stroke-width="1"/>
    </clipPath>
  </defs>
  <g id="Group_3333" data-name="Group 3333" transform="translate(-211 -3593)">
    <path id="Path_2114" data-name="Path 2114" d="M1435,742h0Z" transform="translate(211 3539)" fill="#fff"/>
    <g id="Group_3203" data-name="Group 3203" transform="translate(157.056 -93)">
      <g id="Group_3202" data-name="Group 3202" transform="translate(141.229 3686)">
        <g id="Group_3201" data-name="Group 3201">
          <path id="Path_2111" data-name="Path 2111" d="M-2033.535,15716.07v684.012H-2694v-244.438s16.48,4.635,65.012-18.721,106.17-62.123,129.114-74.709,24.7,4.018,56.787-14.549,71.559-59.717,71.559-59.717,14.844-18.946,38.893-18.946,27.968,30.117,57.3,18.946,48.053-53.066,60.041-63.632,25.271,1.384,47.177-26.964,39.285-48.244,56.791-73.442S-2033.535,15716.07-2033.535,15716.07Z" transform="translate(3358.714 -15716.07)" fill="#3acfb3" opacity="0.737"/>
          <path id="Path_2112" data-name="Path 2112" d="M-2984.209,16234.258s-57.018-9.6-89.688,1.13-120.994,73.328-172.5,75.332-82.616-78.38-150.413-72.779-100.139,79.575-120.771,95.175-84.63,43.293-100.628,66.031-31.28,79.5-31.28,79.5h664.967Z" transform="translate(3649.2 -15794.636)" fill="#20afff" opacity="0.75"/>
        </g>
      </g>
    </g>
    <g id="Mask_Group_28" data-name="Mask Group 28" transform="translate(-138.045 -120.795)" clip-path="url(#clip-path)">
      <g id="Group_3247" data-name="Group 3247" transform="translate(595 3911.803)">
        <g id="Group_1" data-name="Group 1" transform="translate(0 0)">
          <g id="Man" transform="translate(0 13.393)">
            <g id="Body" transform="translate(0 0)">
              <path id="Skin_color:" data-name="Skin color:" d="M206.311,508.944c-.174-.068-.354-.124-.534-.2a23.237,23.237,0,0,0-16.88-.248c-.371.152-.563.248-.563.248a1.557,1.557,0,0,0-.186.141V493.335H206.84l-.028,15.85A3.219,3.219,0,0,0,206.311,508.944Zm-72.82-15.609h18.664v15.552a1.556,1.556,0,0,0-.186-.141s-.191-.1-.563-.248a23.236,23.236,0,0,0-16.88.248c-.18.073-.361.129-.535.2a3.218,3.218,0,0,0-.5.242ZM43.065,167.6c-3.258-.067-10.381-.563-13.746-1.615-3.7-1.165-5.627-1.39-6.752-1.935a4.145,4.145,0,0,0-1.412-.4l-4.974-.5a6.111,6.111,0,0,1-2.639-1.035l-4.417-2.588a58.338,58.338,0,0,1-8.485-5.863,1.854,1.854,0,0,1,.883-3.2s.743-2.318,3.787-1.278a41.593,41.593,0,0,1,8.215,3.759l2.251-.085s1.2-.878,3.044.405c0,0,8.378-.709,9.734-.563a18.732,18.732,0,0,1-5.255-1.6c-2.639-1.277-5.278-4.158-4.158-6s5.064.079,6.082.636c.653.354,1.846.962,2.639,1.362a7,7,0,0,0,1.688.563l2.892.619s6.667-.051,10.566,1.519a10.321,10.321,0,0,1,4.788,3.539,10.066,10.066,0,0,0,1.845,2.093,19.024,19.024,0,0,1,3.686,3.972c.692,1.081,1.423,2.245,2.071,3.264A25.749,25.749,0,0,1,49.48,172.2C47.038,169.7,44.562,167.639,43.065,167.6Zm236.408-5.824c.49-.776,1.007-1.587,1.5-2.352a19.028,19.028,0,0,1,3.691-3.973,10.054,10.054,0,0,0,1.846-2.093,10.173,10.173,0,0,1,4.788-3.539c3.9-1.57,10.567-1.519,10.567-1.519l2.892-.619a7.042,7.042,0,0,0,1.688-.563c.793-.4,1.986-1.007,2.639-1.362,1.041-.563,4.963-2.476,6.082-.636s-1.519,4.721-4.164,6a18.679,18.679,0,0,1-5.25,1.6c1.356-.141,9.734.563,9.734.563,1.84-1.283,3.038-.405,3.038-.405l2.251.085a41.547,41.547,0,0,1,8.215-3.758c3.044-1.041,3.787,1.277,3.787,1.277a1.841,1.841,0,0,1,.889,3.185,58.341,58.341,0,0,1-8.485,5.863l-4.417,2.588a6.108,6.108,0,0,1-2.639,1.035l-4.974.5a4.142,4.142,0,0,0-1.412.4c-1.08.563-3.022.771-6.752,1.935-3.376,1.058-10.493,1.548-13.746,1.615-1.412,0-3.685,1.857-5.981,4.158A25.771,25.771,0,0,1,279.474,161.781ZM150.647,82.586V63.08l-.045-.052a39.838,39.838,0,0,1-6.516-10.944c-.118-.287-.236-.563-.349-.872-.185-.484-.377-.985-.563-1.48l0-.009a7.8,7.8,0,0,1-8.481-3.209c-2.814-4.277-1.536-8.963,1.412-10.359a5.841,5.841,0,0,1,.72-.287,5.576,5.576,0,0,1,3.376.039,1.171,1.171,0,0,0,0,.146,1.123,1.123,0,0,0,.028.309c.062.625.118.979.118.979a4.616,4.616,0,0,0,.045.472c.068.624.141,1.238.225,1.84A44.7,44.7,0,0,0,142,46.238q.342,1.07.7,2.1-.143-.426-.28-.858-.2-.608-.388-1.232a45.513,45.513,0,0,1-1.463-7.174c-.051-.411-.1-.833-.146-1.26,0-.157-.034-.315-.045-.472,0,0-.067-.473-.146-1.289a1.288,1.288,0,0,1,0-.14c-.371-4.1-.945-16.008,3.865-23.818C149.926,2.638,159.5-.125,167.605,0c8.1-.129,17.673,2.633,23.508,12.092,4.8,7.8,4.233,19.683,3.862,23.8a5.444,5.444,0,0,1,4.078.262c2.982,1.4,4.243,6.082,1.451,10.359a7.809,7.809,0,0,1-8.456,3.216v0c-.185.5-.371,1-.563,1.48-.112.3-.23.563-.349.872a39.634,39.634,0,0,1-6.465,10.871l-.028.033v19.6c-.445,2.853-7.877,5.115-17,5.115S151.091,85.45,150.647,82.586Zm32.8-18.27a26.855,26.855,0,0,1-4.76,3.995,19.657,19.657,0,0,1-2.306,1.344,19.655,19.655,0,0,0,2.351-1.366,26.876,26.876,0,0,0,4.76-3.995l.175-.21Q183.561,64.2,183.45,64.317Z" transform="translate(1.104 1.12)" fill="#dd9488"/>
              <path id="Combined_Shape" data-name="Combined Shape" d="M56.52,5.131a1.6,1.6,0,0,1-1.6-1.6V0L92.565.006a4.012,4.012,0,0,1,0,.518V3.247a1.822,1.822,0,0,1-1.756,1.885Zm-54.764,0A1.823,1.823,0,0,1,0,3.247V.523A4.019,4.019,0,0,1,.029.006L37.649,0V3.528a1.6,1.6,0,0,1-1.6,1.6Z" transform="translate(124.973 528.362)" fill="#fff"/>
              <g id="Shoe_color:" data-name="Shoe color:" transform="translate(125.002 508.154)">
                <path id="Shoe_color:-2" data-name="Shoe color:" d="M54.888,20.208a4.659,4.659,0,0,1,.7-2.4l7.7-14.46a3.7,3.7,0,0,1,.934-1.5,1.673,1.673,0,0,1,.186-.141s.191-.1.563-.248a23.241,23.241,0,0,1,16.88.248c.18.073.361.13.535.2a3.168,3.168,0,0,1,.5.242,1.221,1.221,0,0,1,.411.433L91.692,17.5a8.134,8.134,0,0,1,.816,2.707ZM0,20.208A8.134,8.134,0,0,1,.816,17.5L9.205,2.586a1.221,1.221,0,0,1,.411-.433,3.168,3.168,0,0,1,.5-.242c.174-.067.354-.124.534-.2a23.242,23.242,0,0,1,16.88-.248c.371.152.563.248.563.248a1.622,1.622,0,0,1,.185.141,3.7,3.7,0,0,1,.934,1.5l7.7,14.46a4.664,4.664,0,0,1,.7,2.4Z" transform="translate(0 0)" fill="#c2b9f5"/>
                <path id="Shoe_color:-3" data-name="Shoe color:" d="M54.888,20.208a4.659,4.659,0,0,1,.7-2.4l7.7-14.46a3.7,3.7,0,0,1,.934-1.5,1.673,1.673,0,0,1,.186-.141s.191-.1.563-.248a23.241,23.241,0,0,1,16.88.248c.18.073.361.13.535.2a3.168,3.168,0,0,1,.5.242,1.221,1.221,0,0,1,.411.433L91.692,17.5a8.134,8.134,0,0,1,.816,2.707ZM0,20.208A8.134,8.134,0,0,1,.816,17.5L9.205,2.586a1.221,1.221,0,0,1,.411-.433,3.168,3.168,0,0,1,.5-.242c.174-.067.354-.124.534-.2a23.242,23.242,0,0,1,16.88-.248c.371.152.563.248.563.248a1.622,1.622,0,0,1,.185.141,3.7,3.7,0,0,1,.934,1.5l7.7,14.46a4.664,4.664,0,0,1,.7,2.4Z" transform="translate(0 0)" fill="rgba(255,255,255,0.16)"/>
              </g>
              <path id="Path" d="M31.819,0V15.636C16.6,15.9,5.306,8.564,0,4.242V.056L.062.124a26.822,26.822,0,0,0,4.76,3.989A19.637,19.637,0,0,0,15.333,7.489h1.1A19.637,19.637,0,0,0,26.946,4.113,27.092,27.092,0,0,0,31.712.118Z" transform="translate(152.814 65.313)" fill="#7c3830" opacity="0.15" style="mix-blend-mode: multiply;isolation: isolate"/>
              <g id="Top_color:" data-name="Top color:" transform="translate(48.84 83.701)">
                <path id="Top_color:-2" data-name="Top color:" d="M239.176,90.8a1.592,1.592,0,0,1,.068,2.307c-4.946,5.064-24.757,22.163-46.819,30.3-3.939,1.457-8.395,0-11.338-3.021-4.9-5-10.46-16.064-15.659-32.634v71.346H74.265V87.725c-5.115,16.4-11.748,28.994-16.644,33.63a9.4,9.4,0,0,1-9.155,2.374C27.778,117.281,5.514,98.286.455,93.115a1.632,1.632,0,0,1,.107-2.363q.619-.563,1.182-1.125A25.747,25.747,0,0,0,7.663,80.1a24.713,24.713,0,0,0,.821-2.9,1.688,1.688,0,0,1,2.251-1.26c5.627,1.93,22.18,7.832,27.649,12.615C41,75.47,51.084,44.9,51.084,44.9c4.788-14.365,6.1-20.256,10.094-26.108a29.552,29.552,0,0,1,2.009-2.633A30.3,30.3,0,0,1,78.305,6.752L102.922,0c.445,2.853,7.877,5.115,17,5.115s16.554-2.251,17-5.115l24.588,6.752a30.277,30.277,0,0,1,15.1,9.408,30.65,30.65,0,0,1,2.009,2.633c3.984,5.869,5.627,15.192,10.387,29.534,0,0,10.128,28.831,12.412,40.23,5.666-4.963,23.249-11.129,28.229-12.817a1.165,1.165,0,0,1,1.525.9,23.234,23.234,0,0,0,.636,2.566,25.776,25.776,0,0,0,5.79,9.982A21.284,21.284,0,0,0,239.176,90.8Z" transform="translate(0)" fill="#3acfb3"/>
                <path id="Top_color:-3" data-name="Top color:" d="M239.176,90.8a1.592,1.592,0,0,1,.068,2.307c-4.946,5.064-24.757,22.163-46.819,30.3-3.939,1.457-8.395,0-11.338-3.021-4.9-5-10.46-16.064-15.659-32.634v71.346H74.265V87.725c-5.115,16.4-11.748,28.994-16.644,33.63a9.4,9.4,0,0,1-9.155,2.374C27.778,117.281,5.514,98.286.455,93.115a1.632,1.632,0,0,1,.107-2.363q.619-.563,1.182-1.125A25.747,25.747,0,0,0,7.663,80.1a24.713,24.713,0,0,0,.821-2.9,1.688,1.688,0,0,1,2.251-1.26c5.627,1.93,22.18,7.832,27.649,12.615C41,75.47,51.084,44.9,51.084,44.9c4.788-14.365,6.1-20.256,10.094-26.108a29.552,29.552,0,0,1,2.009-2.633A30.3,30.3,0,0,1,78.305,6.752L102.922,0c.445,2.853,7.877,5.115,17,5.115s16.554-2.251,17-5.115l24.588,6.752a30.277,30.277,0,0,1,15.1,9.408,30.65,30.65,0,0,1,2.009,2.633c3.984,5.869,5.627,15.192,10.387,29.534,0,0,10.128,28.831,12.412,40.23,5.666-4.963,23.249-11.129,28.229-12.817a1.165,1.165,0,0,1,1.525.9,23.234,23.234,0,0,0,.636,2.566,25.776,25.776,0,0,0,5.79,9.982A21.284,21.284,0,0,0,239.176,90.8Z" transform="translate(0)" fill="#3acfb3"/>
              </g>
              <path id="Path-2" data-name="Path" d="M35.172,10.837a46.7,46.7,0,0,1-10.347,1.125C13.313,11.962,3.539,8.142,0,2.183l.422-.124C3.612,1.137,6.2.461,7.827,0h.028C8.3,2.853,15.732,5.115,24.847,5.115S41.4,2.864,41.851,0h.09c1.609.461,4.175,1.125,7.315,2.042l.383.113C47.9,5.1,44.642,7.523,40.4,9.228" transform="translate(143.874 83.718)" fill="#fff" opacity="0.4" style="mix-blend-mode: soft-light;isolation: isolate"/>
              <path id="Path-3" data-name="Path" d="M35.172,10.837a46.7,46.7,0,0,1-10.347,1.125C13.313,11.962,3.539,8.142,0,2.183l.422-.124C3.612,1.137,6.2.461,7.827,0h.028C8.3,2.853,15.732,5.115,24.847,5.115S41.4,2.864,41.851,0h.09c1.609.461,4.175,1.125,7.315,2.042l.383.113C47.9,5.1,44.642,7.523,40.4,9.228" transform="translate(143.874 83.718)" fill="#fff" opacity="0.4" style="mix-blend-mode: soft-light;isolation: isolate"/>
              <g id="Pants_color:" data-name="Pants color:" transform="translate(123.106 242.777)">
                <path id="Pants_color:-2" data-name="Pants color:" d="M89.176,251.684H60.059L46.1,39.341,35.352,251.684H6.234L0,0H91.191L89.176,251.684Z" fill="#20afff"/>
                <path id="Pants_color:-3" data-name="Pants color:" d="M89.176,251.684H60.059L46.1,39.341,35.352,251.684H6.234L0,0H91.191L89.176,251.684Z" fill="#20afff"/>
              </g>
              <path id="Combined_Shape-2" data-name="Combined Shape" d="M181.493,534.618a2.732,2.732,0,0,1-2.729-2.729v-3.528q0-.024,0-.048a5.747,5.747,0,0,1,.865-2.889l7.692-14.449a1.11,1.11,0,0,0,.09-.2,3.862,3.862,0,0,1,.72-1.225V495.581h-4.971a1.129,1.129,0,0,1-1.122-1.047L169.345,301.49l-9.768,193.027a1.126,1.126,0,0,1-1.124,1.063h-4.042v14.006a3.831,3.831,0,0,1,.681,1.186,1.7,1.7,0,0,0,.079.191l7.714,14.472a5.78,5.78,0,0,1,.847,2.692,1.126,1.126,0,0,1,.025.239v3.528a2.729,2.729,0,0,1-2.728,2.723h-34.3a2.961,2.961,0,0,1-2.881-3.01v-2.723a4.979,4.979,0,0,1,.025-.527q0-.043,0-.086a9.223,9.223,0,0,1,.951-3.156l8.4-14.927a2.343,2.343,0,0,1,.27-.383V495.581h-4.147a1.119,1.119,0,0,1-1.125-1.1l-6.239-251.665q0-.023,0-.047V178.346a129.3,129.3,0,0,1-7.331,16.877c-2.577,4.828-5.141,8.527-7.416,10.694a10.478,10.478,0,0,1-10.263,2.628c-21.59-6.745-44.071-26.4-48.479-30.9a2.749,2.749,0,0,1-.776-2,2.828,2.828,0,0,1,.934-1.986q.179-.158.351-.318c-3.359-3.279-4.621-3.481-4.852-3.486-3.633-.073-10.665-.6-14.067-1.688-1.717-.551-3.019-.866-4.169-1.126a13.829,13.829,0,0,1-2.723-.849,2.985,2.985,0,0,0-1.024-.287l-4.969-.5a7.053,7.053,0,0,1-3.1-1.187L9.684,161.63a58.837,58.837,0,0,1-8.665-5.993l-.1-.1a3.51,3.51,0,0,1-.85-2.9,2.932,2.932,0,0,1,1.745-1.919,3.472,3.472,0,0,1,1.474-1.418,4.458,4.458,0,0,1,3.511-.056,44.2,44.2,0,0,1,8.153,3.686l1.62-.062a3.832,3.832,0,0,1,3.646.366l.387-.031h.007c.679-.055,1.7-.137,2.824-.216-1.667-.924-3.823-2.725-4.417-4.76a3.131,3.131,0,0,1,.27-2.588,2.849,2.849,0,0,1,2.626-1.32,11.78,11.78,0,0,1,4.947,1.55c.618.338,1.82.947,2.617,1.351a6.016,6.016,0,0,0,1.4.49l2.774.563c.7,0,6.992.045,10.87,1.6a11.584,11.584,0,0,1,5.295,3.938,8.832,8.832,0,0,0,1.637,1.863,19.947,19.947,0,0,1,3.91,4.226c.248.38.5.774.754,1.17q.044-.188.084-.377a2.848,2.848,0,0,1,3.691-2.093c3.247,1.111,8.16,2.865,13.126,4.916A73.652,73.652,0,0,1,86.454,170.3c3.068-13.8,12.306-41.826,12.378-42.014,1.026-3.072,1.89-5.753,2.653-8.118l.026-.08.154-.474c2.733-8.429,4.238-13.072,7.4-17.717a30.418,30.418,0,0,1,9.189-8.8,31.273,31.273,0,0,1,8.575-3.7l16.657-4.569.049-.017.445-.13c2.026-.563,3.815-1.075,5.25-1.463l1.362-.377V64.555a40.8,40.8,0,0,1-6.437-10.928c-.037-.092-.076-.183-.113-.271-.082-.2-.167-.4-.247-.623l-.209-.552-.029-.077a10.128,10.128,0,0,1-1.265.1l-.188,0a8.61,8.61,0,0,1-7.233-3.941,9.658,9.658,0,0,1-1.435-7.877,6.419,6.419,0,0,1,3.308-4.141,6.171,6.171,0,0,1,.85-.338,6.628,6.628,0,0,1,1.992-.306q.258,0,.515.02c-.348-5.377-.309-15.753,4.144-22.986A25.421,25.421,0,0,1,156.353,2.239,31.365,31.365,0,0,1,168.152,0c.192,0,.388,0,.58.005s.384-.005.576-.005a31.227,31.227,0,0,1,11.761,2.239A25.432,25.432,0,0,1,193.18,12.631c4.453,7.226,4.492,17.605,4.144,22.985q.252-.019.505-.019a6.549,6.549,0,0,1,2.851.643,6.447,6.447,0,0,1,3.3,4.141,9.659,9.659,0,0,1-1.435,7.877,8.612,8.612,0,0,1-7.233,3.941l-.189,0a10.149,10.149,0,0,1-1.254-.081l-.237.632c-.108.286-.228.576-.344.856l-.016.038a40.679,40.679,0,0,1-6.42,10.9V82.824c.5.14,1.068.294,1.693.466,1.385.377,3.056.833,4.935,1.378a1.377,1.377,0,0,1,.382.112,1.122,1.122,0,0,1,.169.065L210.622,89.4a31.27,31.27,0,0,1,15.653,9.768,30.1,30.1,0,0,1,2.082,2.729c2.783,4.095,4.4,9.6,6.634,17.211,1.086,3.689,2.316,7.869,3.888,12.6l.029.082c1.551,4.426,9.42,27.084,12.04,38.518,6.9-4.847,22.523-10.33,27.148-11.895a2.29,2.29,0,0,1,2.981,1.691l.1-.16a19.937,19.937,0,0,1,3.938-4.226,9.014,9.014,0,0,0,1.632-1.863,11.306,11.306,0,0,1,5.3-3.938c3.873-1.559,10.166-1.6,10.871-1.6l2.774-.563a5.774,5.774,0,0,0,1.4-.5c.864-.432,2-1.014,2.605-1.339a11.839,11.839,0,0,1,4.959-1.542,2.858,2.858,0,0,1,2.626,1.305,3.178,3.178,0,0,1,.27,2.594c-.589,2.027-2.751,3.828-4.422,4.755,1.14.079,2.175.163,2.86.218l.364.029a3.818,3.818,0,0,1,3.64-.366l1.626.062a44.171,44.171,0,0,1,8.153-3.686,4.425,4.425,0,0,1,3.511.056,3.509,3.509,0,0,1,1.474,1.418,2.938,2.938,0,0,1,1.738,1.919,3.446,3.446,0,0,1-.85,2.9l-.1.1a59.213,59.213,0,0,1-8.716,5.964l-4.4,2.577a7.113,7.113,0,0,1-3.095,1.181l-4.974.5a2.968,2.968,0,0,0-1.029.293,13.96,13.96,0,0,1-2.712.844l-.162.04c-1.042.261-2.339.587-4.007,1.085-3.352,1.054-10.249,1.587-14.067,1.688-.3,0-1.465.236-4.445,3.083.288.279.576.54.856.788a2.727,2.727,0,0,1,.9,1.93,2.777,2.777,0,0,1-.782,2.009c-5.214,5.338-25.089,22.412-47.263,30.569a10.414,10.414,0,0,1-3.61.635,12.667,12.667,0,0,1-8.921-3.926,43.409,43.409,0,0,1-6.892-10.237,128.021,128.021,0,0,1-6.837-16.242v64.077a1.11,1.11,0,0,1,.034.279L213.419,494.5a1.121,1.121,0,0,1-1.125,1.086H209.05l-.025,14.234a2.334,2.334,0,0,1,.263.379l8.389,14.91a9.117,9.117,0,0,1,.937,3.007q.012.054.019.11a4.609,4.609,0,0,1,.039.658v2.729a2.959,2.959,0,0,1-2.892,3.01Zm-.479-2.729a.479.479,0,0,0,.479.478h34.289a.7.7,0,0,0,.63-.76v-2.121h-35.4Zm-54.916-.281a.7.7,0,0,0,.63.76h34.289a.479.479,0,0,0,.479-.478v-2.4H126.1Zm9.093-20.289L126.8,526.24a5.509,5.509,0,0,0-.416,1h34.885a6.179,6.179,0,0,0-.361-.726L153.2,512.039a3.189,3.189,0,0,1-.185-.411,1.8,1.8,0,0,0-.473-.754H152.5c-.076-.041-.222-.1-.411-.18a22.142,22.142,0,0,0-16.024.253l-.332.124c-.052.015-.1.033-.15.052l-.024.01-.01,0-.018.008-.039.015a2.06,2.06,0,0,0-.242.12l-.048.027A.066.066,0,0,0,135.192,511.319Zm80.933,15.918a6.559,6.559,0,0,0-.416-1.035L207.32,511.29h0l-.028-.016a2.229,2.229,0,0,0-.321-.152l-.191-.067-.343-.13a22.156,22.156,0,0,0-16.019-.248c-.22.088-.352.151-.411.18q-.04.035-.083.067a1.762,1.762,0,0,0-.424.7c-.076.184-.135.314-.191.422l-7.7,14.449a6.393,6.393,0,0,0-.371.743Zm-80.382-18.612a24.5,24.5,0,0,1,15.9-.483q.247.076.494.157v-12.7h-16.39Zm71.025,0v-13.03H190.355v12.7a23.676,23.676,0,0,1,6.134-1.2q.809-.053,1.625-.053A24.394,24.394,0,0,1,206.768,508.622ZM184.222,493.33h26.946l1.856-229.82-13.165-12.626a.563.563,0,0,1,.776-.81l12.4,11.883.146-18.061H174.449v17.836a1.412,1.412,0,0,1-1.412,1.412h-5.751a1.125,1.125,0,1,1,0-2.25H172.2v-17H124.282l.445,17.916L135.743,250.1a.563.563,0,1,1,.794.8l-11.771,12.5,5.456,219.876H144.1a.563.563,0,0,1,0,1.125H130.25l.222,8.935h26.946l10.691-211.274a1.125,1.125,0,0,1,1.124-1.069h0a1.128,1.128,0,0,1,1.124,1.052l13.2,201.231h26.514a.563.563,0,0,1,0,1.125h-26.44ZM124.259,171.414l-.017,70.232h88.94V171.465a336.411,336.411,0,0,1,.467-42.965,1.13,1.13,0,0,1,2.25.2,331.7,331.7,0,0,0-.46,42.573c4.885,15.55,10.327,26.919,15.332,32.025a10.33,10.33,0,0,0,7.3,3.253,8.131,8.131,0,0,0,2.829-.5c21.777-8.026,41.285-24.794,46.4-30.035a.491.491,0,0,0,.141-.354.469.469,0,0,0-.152-.326c-.689-.65-1.234-1.186-1.716-1.688a27.013,27.013,0,0,1-6.043-10.415,24.582,24.582,0,0,1-.67-2.7l-.051-.034c-4.8,1.622-20.137,7-26.618,11.63a1.128,1.128,0,0,1-.226.2c-.008,0-.225.146-.573.4q-.228.183-.434.364a1.122,1.122,0,0,1-.291.185,23.006,23.006,0,0,0-3.861,3.686,1.126,1.126,0,1,1-1.784-1.373,23.947,23.947,0,0,1,3.944-3.833c-.745-3.45-2.545-10.236-6.846-23.421-2.861-8.772-5.37-15.907-5.386-15.947-1.213-3.642-2.223-7-3.113-9.962v0l-.007-.024c-.284-.943-.551-1.833-.817-2.705l-.009-.03c-2.185-7.416-3.765-12.775-6.332-16.551a29.556,29.556,0,0,0-1.93-2.538,29.06,29.06,0,0,0-14.539-9.053L194.06,87.159c-1.908,2.781-5.109,5.127-9.325,6.816a1.126,1.126,0,1,1-.839-2.088,18.784,18.784,0,0,0,7.839-5.366l-5.353-1.468c-1.654,2.531-7.423,4.893-17.644,4.893h-.006l-.462,0h-.4a48.741,48.741,0,0,1-7.385-.614l-.034-.006-.018,0a26.87,26.87,0,0,1-4.73-1.2q-.18-.066-.353-.133a13.712,13.712,0,0,1-2.257-1.1,6.338,6.338,0,0,1-2.01-1.827l-1.242.337c-1.031.282-2.237.613-3.583.976l-.551.151c3.894,4.905,12.682,8,23.012,8a45.557,45.557,0,0,0,10.1-1.086,1.125,1.125,0,0,1,.5,2.194A48,48,0,0,1,168.7,96.794c-11.492,0-21.3-3.758-25.346-9.634L127.4,91.528a29.013,29.013,0,0,0-14.561,9.053,28.279,28.279,0,0,0-1.93,2.532c-3.056,4.528-4.468,8.9-7.28,17.622l-.129.4c-.737,2.285-1.571,4.876-2.55,7.816-.019.056-2.557,7.728-5.419,17.045-4.393,14.3-6.288,21.851-7.1,25.759a27.191,27.191,0,0,1,5.077,4.69,1.125,1.125,0,1,1-1.784,1.373,26.83,26.83,0,0,0-5.156-4.624,1.118,1.118,0,0,1-.127-.1c-5.828-5.107-25.094-11.65-27.272-12.379a.568.568,0,0,0-.188-.032.593.593,0,0,0-.572.465,25.642,25.642,0,0,1-.85,3.033,26.693,26.693,0,0,1-6.189,9.942c-.437.45-.84.836-1.232,1.181a.562.562,0,0,0-.186.388.488.488,0,0,0,.135.349C55.9,182,77.969,200.236,97.623,206.373a8.23,8.23,0,0,0,8.091-2.144c5.85-5.543,12.368-20.474,16.27-32.906q0-.03.008-.06c2.121-13.363,2.729-35.921,1.48-54.848a1.128,1.128,0,0,1,2.251-.146c1.252,18.96.648,41.562-1.464,55.106Q124.259,171.394,124.259,171.414Zm-73.72.293a24.4,24.4,0,0,0,4.693-7.776l-.209-.332-.1-.154c-.48-.757-.976-1.539-1.46-2.282a17.8,17.8,0,0,0-3.422-3.688,11.725,11.725,0,0,0-5.789-1.246.569.569,0,0,1-.169-1.125,10.947,10.947,0,0,1,4.223.533q-.189-.253-.363-.516a8.989,8.989,0,0,0-4.277-3.129c-3.475-1.4-9.429-1.44-10.1-1.44h-.031a.854.854,0,0,1-.242,0l-2.892-.619a8.128,8.128,0,0,1-1.941-.681c-.527-.263-1.931-.976-2.673-1.378a9.53,9.53,0,0,0-3.867-1.281c-.372,0-.618.083-.712.24a.89.89,0,0,0-.039.782c.357,1.194,1.993,2.783,3.725,3.618a17.618,17.618,0,0,0,4.486,1.427,8.105,8.105,0,0,1,2.829-.949,1.137,1.137,0,0,1,.332,2.25,5.164,5.164,0,0,0-2.054.7,1.31,1.31,0,0,1-.812.328,1.085,1.085,0,0,1-.134-.008c-.089-.009-.225-.013-.4-.013-1.177,0-4.1.191-6.679.384,1.1,1.286,2.36,2.94,3.3,4.226,1.9.287,4.124.878,4.225.906a1.125,1.125,0,0,1-.287,2.211v.022a1,1,0,0,1-.287-.04A42.2,42.2,0,0,0,25,161.765a1.124,1.124,0,0,1-.771-.456,55.582,55.582,0,0,0-4.711-5.842,1.12,1.12,0,0,1-.234-.128,2.355,2.355,0,0,0-1.3-.5,1.23,1.23,0,0,0-.155.01,3.192,3.192,0,0,0,.776,1.827c.506.686.934,1.4,1.384,2.149a19.248,19.248,0,0,0,4.309,5.385,13.1,13.1,0,0,0,2.139.636c1.127.277,2.481.619,4.3,1.188,3.3,1.038,10.471,1.5,13.431,1.564a2.893,2.893,0,0,1,.379.025,5.836,5.836,0,0,0,2.963-.785.564.564,0,1,1,.664.911,4.9,4.9,0,0,1-1.575.705A23.925,23.925,0,0,1,50.539,171.707Zm231.3-8.648a24.7,24.7,0,0,0,4.614,8.2,21.272,21.272,0,0,1,3.472-2.8,4.707,4.707,0,0,1-1.542-.7.563.563,0,0,1,.658-.912,5.862,5.862,0,0,0,2.932.78,3.223,3.223,0,0,1,.382-.032c2.958-.062,10.134-.526,13.431-1.564,1.765-.545,3.091-.886,4.3-1.188a13.127,13.127,0,0,0,2.169-.642,19.286,19.286,0,0,0,4.308-5.378c.45-.754.872-1.463,1.378-2.149a3.073,3.073,0,0,0,.777-1.884,1.27,1.27,0,0,0-.172-.011,2.191,2.191,0,0,0-1.1.359,1.125,1.125,0,0,1-.32.264,50.344,50.344,0,0,0-4.805,5.925,1.127,1.127,0,0,1-.771.456,43.285,43.285,0,0,0-4.417.911,1.01,1.01,0,0,1-.287.017,1.125,1.125,0,0,1-.293-2.211c.1,0,2.335-.619,4.226-.906.961-1.308,2.25-3.011,3.363-4.31-2.5-.192-5.438-.388-6.7-.388-.171,0-.306,0-.4.011a1.126,1.126,0,0,1-.194.017v.023a1.127,1.127,0,0,1-.782-.321,5.126,5.126,0,0,0-2.054-.692,1.138,1.138,0,1,1,.332-2.251,8.232,8.232,0,0,1,2.775.915,17.57,17.57,0,0,0,4.506-1.433c1.736-.835,3.375-2.424,3.73-3.618a.891.891,0,0,0-.033-.782c-.1-.156-.345-.24-.718-.24a9.467,9.467,0,0,0-3.874,1.286c-.547.3-1.417.738-2.052,1.061l0,0c-.27.137-.483.246-.606.31a8.332,8.332,0,0,1-1.941.681l-2.892.619a.95.95,0,0,1-.248,0c-.265,0-6.535.016-10.128,1.44a9.092,9.092,0,0,0-4.282,3.129q-.2.307-.425.6a10.6,10.6,0,0,1,4.318-.56.569.569,0,0,1-.174,1.125,12.1,12.1,0,0,0-6.007,1.351,17.921,17.921,0,0,0-3.232,3.527c-.385.665-.8,1.3-1.193,1.914l-.024.037,0,.007Zm-266.606-.788a5.015,5.015,0,0,0,2.183.884l3,.3a21.474,21.474,0,0,1-2.151-3.091,46.664,46.664,0,0,1-4.5-2.084l-.135-.084c-.051-.034-1.176-.844-3.8-2.915-1.525-1.2-2.543-1.435-2.948-1.277a1.038,1.038,0,0,0-.056.743s.558,1.775,4.488,5.226Zm300.9,1.184,2.987-.3a4.992,4.992,0,0,0,2.178-.883l4-2.342c3.924-3.428,4.451-5.176,4.456-5.193a.975.975,0,0,0-.079-.754c-.388-.146-1.407.09-2.926,1.288-2.633,2.071-3.758,2.881-3.8,2.915l-.141.084a46.062,46.062,0,0,1-4.525,2.1A21.367,21.367,0,0,1,316.128,163.455Zm4.285-6.493q.647-.317,1.284-.656c.27-.2,1.412-1.041,3.652-2.813l.207-.16q-1.568.759-3.066,1.652a1.125,1.125,0,0,1-.6.175h-.049l-.877-.033A4.767,4.767,0,0,1,320.413,156.962Zm-305.535-.644q.622.331,1.255.642a4.818,4.818,0,0,1-.544-1.773l-.891.033h-.045a1.127,1.127,0,0,1-.6-.175q-1.374-.819-2.813-1.528C13.477,155.27,14.6,156.111,14.878,156.318ZM4.8,155.753a2.962,2.962,0,0,1-.186-.594,3.494,3.494,0,0,1,.115-1.854q-.884-.335-1.789-.61c-.547.22-.656.437-.678.523a1.31,1.31,0,0,0,.321.788H2.573Q3.663,154.905,4.8,155.753Zm327.16-.605a3.055,3.055,0,0,1-.177.564q1.109-.828,2.174-1.706a1.266,1.266,0,0,0,.315-.821c-.03-.119-.215-.307-.639-.5q-.909.274-1.8.61A3.446,3.446,0,0,1,331.96,155.148ZM6.3,151.818a2.917,2.917,0,0,1,.644-.12q-.429-.153-.861-.3a3.564,3.564,0,0,0-1.087-.2,2.052,2.052,0,0,0-.252.015Q5.525,151.5,6.3,151.818Zm323.974-.012q.808-.337,1.635-.627a1.875,1.875,0,0,0-.362-.033,3.531,3.531,0,0,0-1.079.2q-.5.164-.987.34A3.031,3.031,0,0,1,330.27,151.806ZM168.727,87.7c1.344,0,2.622-.049,3.826-.138a29.331,29.331,0,0,0,10.03-2.227c1.235-.6,1.941-1.236,2.029-1.8V67a28.1,28.1,0,0,1-4.2,3.386,20.8,20.8,0,0,1-7.382,3.114,17.313,17.313,0,0,1-3.675.431h-1.27a17.835,17.835,0,0,1-3.611-.419,20.782,20.782,0,0,1-7.447-3.137,28.3,28.3,0,0,1-4.175-3.364l-.012,16.474V83.5q.006.03.011.06l0,.02c.211.978,2.256,2.161,5.674,3.007A43.274,43.274,0,0,0,168.727,87.7ZM158.25,68.47a18.472,18.472,0,0,0,9.9,3.19h1.125a18.472,18.472,0,0,0,9.864-3.19,26.1,26.1,0,0,0,4.558-3.832c.372-.389.756-.817,1.176-1.311a1.129,1.129,0,0,1,.162-.157,38.3,38.3,0,0,0,6.134-10.393c.125-.3.235-.576.338-.85l.1-.264c.1-.256.218-.574.317-.861l.141-.377c.363-1.007.731-2.122,1.125-3.41a46.247,46.247,0,0,0,1.57-8.226,2.262,2.262,0,0,1,.022-.276c.007-.052.013-.105.017-.157a.339.339,0,0,1,0-.078c0-.02.064-.49.135-1.238h.743l-.726-.062c0-.011,0-.022,0-.032h-.017v-.067a59.389,59.389,0,0,0,.028-10.02c-.469-5.442-1.725-9.851-3.731-13.106A23.21,23.21,0,0,0,180.084,4.23,29.1,29.1,0,0,0,169.22,2.19c-.166,0-.334,0-.5,0l-.506.051a31.245,31.245,0,0,0-5.039.4,27.066,27.066,0,0,0-5.87,1.638,23.212,23.212,0,0,0-11.153,9.52c-2.006,3.255-3.262,7.664-3.731,13.106a59.426,59.426,0,0,0,.011,9.819,1.135,1.135,0,0,1,.035.274l.034.332c.041.411.078.7.1.844.007.051.01.08.01.085a1.2,1.2,0,0,1,0,.135,2.555,2.555,0,0,0,.034.354c.072.644.14,1.252.225,1.846v.039a43.293,43.293,0,0,0,1.345,6.381c.326,1.093.694,2.212,1.125,3.421a1.125,1.125,0,0,1,.041.145c.159.43.332.883.522,1.324.051.131.1.256.15.376.067.163.129.316.193.485a38.534,38.534,0,0,0,6.335,10.64l.138.16c.286.326.56.631.83.922l.157.163a25.775,25.775,0,0,0,4.546,3.815Zm36.985-18.494a6.5,6.5,0,0,0,5.435-2.938,7.452,7.452,0,0,0,1.125-6,4.2,4.2,0,0,0-2.11-2.723,4.578,4.578,0,0,0-.72-.27,4.17,4.17,0,0,0-1.822-.1c-.023.205-.042.368-.056.488v0c-.008.066-.014.117-.018.153l-.051.472a48.377,48.377,0,0,1-1.173,6.853,2.464,2.464,0,0,0,1.926-1.063A2.5,2.5,0,0,0,198,42.3a.562.562,0,1,1,.945-.608,3.652,3.652,0,0,1-3.2,5.351v-.017q-.093.006-.186.007-.09.332-.185.663c-.224.742-.465,1.5-.721,2.253C194.841,49.967,195.038,49.976,195.234,49.976Zm-55.709-12.1a4.132,4.132,0,0,0-1.245.191,4.01,4.01,0,0,0-.563.225,4.187,4.187,0,0,0-2.121,2.729,7.451,7.451,0,0,0,1.154,6,6.5,6.5,0,0,0,5.435,2.937c.2,0,.393-.009.588-.027-.114-.338-.222-.664-.324-.981l-.044-.138c-.113-.36-.23-.731-.344-1.1q-.1-.345-.2-.691a2.846,2.846,0,0,1-.306.01,3.652,3.652,0,0,1-3.2-5.351.563.563,0,1,1,.945.608,2.5,2.5,0,0,0,.225,2.549,2.459,2.459,0,0,0,2.045,1.063,46.5,46.5,0,0,1-1.02-5.547l0-.012c-.05-.417-.1-.847-.145-1.277a2.285,2.285,0,0,0-.024-.283c-.008-.062-.017-.127-.021-.19s-.018-.162-.036-.3c-.013-.1-.029-.221-.046-.367a4.283,4.283,0,0,0-.646-.049Zm63.327,485.048a.568.568,0,0,1-.265-.067l-4.179-2.207-4.182,2.207a.563.563,0,1,1-.523-1l3.5-1.848-3.5-1.848a.563.563,0,0,1,.089-1.043l3.412-1.8-3.5-1.851a.562.562,0,0,1,.523-1l4.182,2.21,4.179-2.21a.564.564,0,1,1,.529,1l-3.5,1.851,3.5,1.851.041.024a.564.564,0,0,1-.041.972l-3.5,1.848,3.5,1.848a.563.563,0,0,1-.257,1.063Zm-4.444-3.549,3.237-1.71-3.237-1.712-3.239,1.712Zm-59.3,3.122a.562.562,0,0,1,.29-.636l3.5-1.848-3.5-1.848a.564.564,0,0,1-.035-.976l.029-.017.006,0,3.5-1.851-3.5-1.851a.564.564,0,1,1,.529-1l4.179,2.21,4.182-2.21a.562.562,0,0,1,.523,1l-3.5,1.851,3.412,1.8a.562.562,0,0,1,.089,1.043l-3.5,1.848,3.5,1.848a.563.563,0,1,1-.523,1l-4.182-2.208-4.179,2.208a.568.568,0,0,1-.264.067h-.008A.563.563,0,0,1,139.105,522.494Zm5-3.122,3.239-1.71L144.1,515.95l-3.237,1.712Zm4.643-34.977a.563.563,0,0,1,0-1.125h6.482a.563.563,0,0,1,0,1.125Zm-4.209-119.374a15.426,15.426,0,0,1-5.706-1.356.563.563,0,1,1,.473-1.018c.056,0,5.824,2.65,8.254.231.259-.265.675-.754.563-1.126s-.647-.652-1.311-.76a.569.569,0,1,1,.174-1.125,2.667,2.667,0,0,1,2.211,1.519,2.163,2.163,0,0,1-.833,2.251,5.228,5.228,0,0,1-3.551,1.391Q144.676,365.028,144.538,365.021Zm50.983,0a15.426,15.426,0,0,1-5.706-1.356.563.563,0,1,1,.473-1.018c.062,0,5.823,2.65,8.254.225.259-.253.681-.749.563-1.126a1.65,1.65,0,0,0-1.317-.76.569.569,0,0,1,.174-1.125,2.668,2.668,0,0,1,2.211,1.519,2.142,2.142,0,0,1-.833,2.251,5.226,5.226,0,0,1-3.556,1.4Q195.653,365.027,195.521,365.021ZM168.17,252.4v-4.456a.563.563,0,0,1,1.125,0V252.4a.563.563,0,1,1-1.125,0Zm71.171-48.012h-.051c-.163,0-4.04-.388-5.126-2.751a.564.564,0,1,1,1.024-.473c.676,1.474,3.264,2.014,4.2,2.1a.561.561,0,0,1-.049,1.12ZM99.229,202.639a.563.563,0,0,1,.537-.588c.945-.085,3.534-.63,4.209-2.1a.563.563,0,1,1,1.024.467c-1.086,2.368-4.968,2.74-5.131,2.751l-.051.006h-.026A.563.563,0,0,1,99.229,202.639ZM299.647,156.7a.563.563,0,0,1,.371-1.063c2.082.737,6.752.647,6.814.642a.563.563,0,1,1,0,1.125l-.585.006A24.856,24.856,0,0,1,299.647,156.7ZM29.715,157.4a.563.563,0,0,1,0-1.125c.045,0,4.732.1,6.808-.642A.564.564,0,1,1,36.9,156.7a25.041,25.041,0,0,1-6.583.7Zm128.607-12.609a.563.563,0,0,1-.427-.2l-6.977-8.2a.565.565,0,0,1,.861-.731l6.977,8.209a.563.563,0,0,1-.427.928Zm-5.1-.315-3.731-4.389a.563.563,0,1,1,.855-.726l3.731,4.383a.563.563,0,1,1-.855.732Zm4.231-5.784-1.716-2.02a.563.563,0,0,1,.855-.732l1.722,2.026a.563.563,0,1,1-.861.726Zm57.735-14.461a1.125,1.125,0,0,1-.979-1.255c.394-3.218.855-6.06,1.373-8.44a1.125,1.125,0,1,1,2.2.472c-.5,2.324-.951,5.1-1.339,8.254a1.125,1.125,0,0,1-1.114.968ZM92.2,102.826a.562.562,0,0,1-.433-.669c3.781-17.735,17.865-23.137,18.005-23.193a.564.564,0,1,1,.393,1.058c-.135.051-13.65,5.261-17.3,22.372a.562.562,0,0,1-.546.433.42.42,0,0,1-.118,0Zm150.366-.444a32.234,32.234,0,0,0-10.027-17.668,25.94,25.94,0,0,0-7.275-4.7.564.564,0,1,1,.394-1.058c.141.056,14.224,5.458,18.005,23.193a.562.562,0,0,1-.433.669.4.4,0,0,1-.1.011h-.013A.562.562,0,0,1,242.57,102.382Zm-124.855.039a.562.562,0,0,1-.214-.765,12.581,12.581,0,0,1,5.357-4.406.564.564,0,0,1,.5,1.013,11.847,11.847,0,0,0-4.873,3.939.556.556,0,0,1-.766.219ZM245.294,89.53c-2-5.5-7.157-9.256-7.214-9.3a.563.563,0,0,1,.658-.912c.225.157,5.486,3.984,7.608,9.824a.563.563,0,0,1-.332.72.592.592,0,0,1-.2.034A.562.562,0,0,1,245.294,89.53ZM89.47,89.868a.562.562,0,0,1-.332-.72c2.121-5.84,7.382-9.667,7.607-9.824a.563.563,0,1,1,.658.912c-.056.039-5.2,3.792-7.208,9.3a.562.562,0,0,1-.529.371A.592.592,0,0,1,89.47,89.868Z" transform="translate(0)" fill="#353a46"/>
            </g>
            <g id="Chin" transform="translate(149.123 59.151)">
              <rect id="_01_Character_Setup_03_Face_Man_Chin_background" data-name="#01 Character/Setup/#03 Face/Man Chin background" width="39.386" height="5.627" fill="none"/>
              <g id="Group_2" data-name="Group 2" transform="translate(15.663 2.083)">
                <path id="Path-4" data-name="Path" d="M7.036,2.245a.563.563,0,0,1-.416-.18,4.046,4.046,0,0,0-2.813-.94,4.147,4.147,0,0,0-2.813.9.563.563,0,1,1-.8-.788,5.829,5.829,0,0,1,7.253.056.563.563,0,0,1-.411.951Z" transform="translate(0 0)" fill="#372168"/>
              </g>
            </g>
            <g id="Cheeks_color:" data-name="Cheeks color:" transform="translate(147.435 42.271)">
              <rect id="_01_Character_Setup_03_Face_Cheek_Ñheek_01_background" data-name="#01 Character/Setup/#03 Face/Cheek/Ñheek#01 background" width="41.637" height="11.816" fill="none"/>
              <path id="Cheeks_color:-2" data-name="Cheeks color:" d="M30.384,5.627a5.627,5.627,0,1,1,5.627,5.627A5.627,5.627,0,0,1,30.384,5.627ZM0,5.627a5.627,5.627,0,1,1,5.627,5.627A5.627,5.627,0,0,1,0,5.627Z" transform="translate(0 -0.4)" fill="#ff1300" opacity="0.15" style="mix-blend-mode: multiply;isolation: isolate"/>
            </g>
            <g id="Emotions" transform="translate(148.561 28.486)">
              <rect id="_01_Character_Setup_01_Emotions_kind_background" data-name="#01 Character/Setup/#01 Emotions/kind background" width="39.386" height="31.509" fill="none"/>
              <g id="Face">
                <g id="Mouth" transform="translate(0 20.256)">
                  <rect id="_01_Character_Setup_03_Face_Mouth_nose_background" data-name="#01 Character/Setup/#03 Face/Mouth/nose background" width="39.386" height="11.253" fill="none"/>
                  <g id="mouth-2" data-name="mouth" transform="translate(16.317 2.155)">
                    <path id="Path-5" data-name="Path" d="M5.486,1.969H.985A.985.985,0,1,1,.985,0h4.5a.985.985,0,1,1,0,1.969Z" transform="translate(0 0)" fill="#353a46"/>
                  </g>
                </g>
                <g id="Nose" transform="translate(0 14.067)">
                  <rect id="_01_Character_Setup_03_Face_Nose_background" data-name="#01 Character/Setup/#03 Face/Nose background" width="39.386" height="4.501" fill="none"/>
                  <g id="_Nose" data-name="ðŸ‘ƒNose" transform="translate(16.442 1.211)">
                    <path id="Path-6" data-name="Path" d="M3.236,3.17a3.669,3.669,0,0,1-3.078-1.6A.985.985,0,0,1,1.812.5a1.789,1.789,0,0,0,1.436.7A1.789,1.789,0,0,0,4.67.475.987.987,0,0,1,6.358,1.5,3.635,3.635,0,0,1,3.236,3.17Z" transform="translate(0)" fill="#353a46"/>
                  </g>
                </g>
                <g id="Eyes" transform="translate(0 6.752)">
                  <rect id="_01_Character_Setup_03_Face_Eyes_eyes-8_background" data-name="#01 Character/Setup/#03 Face/Eyes/eyes-8 background" width="39.386" height="5.627" fill="none"/>
                  <g id="silly_eyes" transform="translate(6.47 1.041)">
                    <path id="Path-7" data-name="Path" d="M1.878,3.882c2.5,0,2.5-3.882,0-3.882A1.942,1.942,0,0,0,1.878,3.882Z" transform="translate(0)" fill="#353a46"/>
                    <path id="Path-8" data-name="Path" d="M1.876,3.882c2.493,0,2.5-3.882,0-3.882S-.628,3.882,1.876,3.882Z" transform="translate(23.054)" fill="#353a46"/>
                  </g>
                </g>
                <g id="Eyebrows">
                  <rect id="_01_Character_Setup_03_Face_Eyebrow_wink_eyebrows_background" data-name="#01 Character/Setup/#03 Face/Eyebrow/wink_eyebrows background" width="39.386" height="6.752" fill="none"/>
                  <g id="kiss_eyebrows" transform="translate(2.047 0.939)">
                    <path id="Path-9" data-name="Path" d="M1.126,4.806A1.125,1.125,0,0,1,.4,2.82,12.893,12.893,0,0,1,11.209.361a1.125,1.125,0,1,1-.563,2.178,10.7,10.7,0,0,0-8.806,2,1.125,1.125,0,0,1-.715.264Z" transform="translate(0 0)" fill="#353a46"/>
                    <path id="Path-10" data-name="Path" d="M11.156,3.4a1.125,1.125,0,0,1-.512-.124,10.588,10.588,0,0,0-9,0,1.126,1.126,0,0,1-1.03-2c.231-.118,5.627-2.813,11.09,0A1.125,1.125,0,0,1,11.184,3.4Z" transform="translate(23.275 1.402)" fill="#353a46"/>
                  </g>
                </g>
              </g>
            </g>
          </g>
          <g id="_01_Character_Setup_02_Hairstyle_Man_Hairstyle_01" data-name="#01 Character/Setup/#02 Hairstyle/Man/Hairstyle#01" transform="translate(135.055 0)">
            <g id="_1_hairdo" transform="translate(0)">
              <g id="Hair_color:" data-name="Hair color:" transform="translate(1.228 1.093)">
                <path id="Hair_color:-2" data-name="Hair color:" d="M65.492,34.36c0,4.957-1.776,11.071-2.535,14.168a5.62,5.62,0,0,0-3.22.09L58.613,40.48A19.563,19.563,0,0,0,45.9,24.745c-.562-.191-.86-.281-.86-.281-4.5-1.034-11.453,7.244-20.648,6.884-5.176-.2-10.5-4.131-10.5-4.131-.225.225-.444.45-.652.674a29.134,29.134,0,0,0-7.6,16.388L5.072,48.6A5.569,5.569,0,0,0,1.7,48.556c-.646-3.962-2.411-7.621-1.388-16.3A19.392,19.392,0,0,1,5.966,21.367a2.613,2.613,0,0,0,.517-2.934C2.1,8.576,11.664,2.405,11.664,2.405c1.028,2.754,2.748,3.372,2.748,3.372C14.733.9,19.577,0,19.577,0a10.73,10.73,0,0,0,8.087,5.777A11.144,11.144,0,0,0,32.8,5.39a16.3,16.3,0,0,1,9.9,0c5.665,1.905,7.795,5.311,8.548,7.1a3.372,3.372,0,0,0,1.725,1.748C62.193,18.546,65.492,26.166,65.492,34.36Z" transform="translate(0 0)" fill="#92645c"/>
                <path id="Hair_color:-3" data-name="Hair color:" d="M65.492,34.36c0,4.957-1.776,11.071-2.535,14.168a5.62,5.62,0,0,0-3.22.09L58.613,40.48A19.563,19.563,0,0,0,45.9,24.745c-.562-.191-.86-.281-.86-.281-4.5-1.034-11.453,7.244-20.648,6.884-5.176-.2-10.5-4.131-10.5-4.131-.225.225-.444.45-.652.674a29.134,29.134,0,0,0-7.6,16.388L5.072,48.6A5.569,5.569,0,0,0,1.7,48.556c-.646-3.962-2.411-7.621-1.388-16.3A19.392,19.392,0,0,1,5.966,21.367a2.613,2.613,0,0,0,.517-2.934C2.1,8.576,11.664,2.405,11.664,2.405c1.028,2.754,2.748,3.372,2.748,3.372C14.733.9,19.577,0,19.577,0a10.73,10.73,0,0,0,8.087,5.777A11.144,11.144,0,0,0,32.8,5.39a16.3,16.3,0,0,1,9.9,0c5.665,1.905,7.795,5.311,8.548,7.1a3.372,3.372,0,0,0,1.725,1.748C62.193,18.546,65.492,26.166,65.492,34.36Z" transform="translate(0 0)" fill="rgba(255,255,255,0.09)"/>
              </g>
              <path id="Combined_Shape-3" data-name="Combined Shape" d="M60.954,50.863a1.086,1.086,0,0,1-.591-.174,1.122,1.122,0,0,1-.511-.793l-1.174-8.166A18.377,18.377,0,0,0,46.7,26.922c-.277-.1-.534-.183-.762-.253l-.005,0-.014,0a2.418,2.418,0,0,0-.538-.057c-1.525,0-3.627,1.172-6.06,2.53l-.009.005C35.735,31.127,31.287,33.6,26.136,33.6c-.2,0-.411,0-.616-.012a17.324,17.324,0,0,1-6.108-1.53,28.466,28.466,0,0,1-4.2-2.258A28.226,28.226,0,0,0,7.907,45.535l-.562,4.322a1.125,1.125,0,0,1-1.45.927,4.458,4.458,0,0,0-2.72-.039,1.124,1.124,0,0,1-1.45-.888c-.129-.809-.313-1.613-.508-2.465l-.054-.233A35.643,35.643,0,0,1,.331,33.273c.709-6,4.761-10.369,5.986-11.566a1.473,1.473,0,0,0,.275-1.686,13.082,13.082,0,0,1-1.131-7.19A13.344,13.344,0,0,1,7.586,7.354,17.49,17.49,0,0,1,12.212,2.6a1.131,1.131,0,0,1,1.664.551,6.31,6.31,0,0,0,.967,1.742,7.678,7.678,0,0,1,5.7-4.873A1.142,1.142,0,0,1,20.754,0a1.12,1.12,0,0,1,1.04.7,7.709,7.709,0,0,0,1.6,2.235A9.75,9.75,0,0,0,25.614,4.6a11.331,11.331,0,0,0,3.43,1.2,10.235,10.235,0,0,0,1.528.115,10.177,10.177,0,0,0,3.075-.475,17.35,17.35,0,0,1,10.582,0c6.05,2.034,8.375,5.718,9.223,7.733a2.24,2.24,0,0,0,1.163,1.158c8.647,4.006,13.218,11.311,13.218,21.126,0,4.415-1.322,9.56-2.2,12.965-.08.332-.156.629-.23.917-.05.2-.1.379-.141.556a1.123,1.123,0,0,1-1.393.815,4.491,4.491,0,0,0-2.585.079,1.115,1.115,0,0,1-.321.078Zm2.393-2.5c.046-.181.085-.331.124-.472l.022-.086c.837-3.283,2.1-8.244,2.1-12.323,0-9-4.008-15.428-11.914-19.107a4.505,4.505,0,0,1-1.056-.661,31.093,31.093,0,0,0-6.443,8.744q.154.025.306.06a8.628,8.628,0,0,1,.983.315A20.613,20.613,0,0,1,60.926,41.416l.984,6.946.165-.017c.968-7.99.061-12.181-.586-13.993a.563.563,0,1,1,1.062-.376c.825,2.314,1.578,6.659.655,14.372ZM5.317,48.3l.394-3.1a30.122,30.122,0,0,1,7.9-17.023c.227-.239.454-.471.674-.691a1.124,1.124,0,0,1,1.461-.112,25.375,25.375,0,0,0,3.173,1.906,17.324,17.324,0,0,0,6.7,2.028c.192.008.386.012.58.012,4.519,0,8.516-2.225,12.043-4.188l.217-.118c2.431-1.315,4.555-2.464,6.509-2.623a32.672,32.672,0,0,1,6.883-9.516,4.516,4.516,0,0,1-.464-.826c-1.6-3.869-5.616-5.717-7.868-6.474a15.123,15.123,0,0,0-9.217,0,12.318,12.318,0,0,1-3.7.571,12.384,12.384,0,0,1-5.882-1.493,12.361,12.361,0,0,1-4.13-3.637c-.33,1.5-.146,3.9,2.955,6.385a.562.562,0,1,1-.7.877C19.267,7.429,19.1,4.542,19.525,2.719a5.092,5.092,0,0,0-2.805,4.218,1.132,1.132,0,0,1-.5.859,1.122,1.122,0,0,1-.987.124A5.462,5.462,0,0,1,12.611,5.57a11.81,11.81,0,0,0,3.8,13.27.555.555,0,1,1-.7.86A12.844,12.844,0,0,1,11.29,6.307a15.622,15.622,0,0,0-1.781,2.2,10.478,10.478,0,0,0-.82,10.571,3.744,3.744,0,0,1-.759,4.193A18.3,18.3,0,0,0,2.614,33.5a33.347,33.347,0,0,0,.781,13.117c.149.621.274,1.172.382,1.686h.01A43.875,43.875,0,0,1,5.5,32.637a.562.562,0,0,1,1.068.354A44.755,44.755,0,0,0,4.895,48.264C5.036,48.271,5.177,48.283,5.317,48.3ZM25.807,28.17a19.823,19.823,0,0,1-8.323-2.681.566.566,0,1,1,.562-.984,18.324,18.324,0,0,0,7.823,2.541A17.985,17.985,0,0,0,33.6,25.433a.562.562,0,1,1,.439,1.034,19.4,19.4,0,0,1-7.637,1.7ZM36.3,24.617a.562.562,0,0,1,.279-.628q1.124-.607,2.2-1.208l.073-.039a.564.564,0,0,1,.551.984l-.079.039c-.714.4-1.455.809-2.248,1.219a.628.628,0,0,1-.242.062A.562.562,0,0,1,36.3,24.617ZM16.064,19.83h0Zm-.013,0h.013Z" transform="translate(0)" fill="#353a46"/>
            </g>
          </g>
        </g>
      </g>
    </g>
    <g id="Mask_Group_29" data-name="Mask Group 29" transform="translate(-221.532 -149.849)" clip-path="url(#clip-path-2)">
      <g id="Group_3246" data-name="Group 3246" transform="translate(1380.421 3910.536)">
        <g id="_01_Character_Boys_Man" data-name="#01 Character/Boys/Man" transform="translate(0 0)">
          <g id="Man-2" data-name="Man" transform="translate(0)">
            <g id="Body-2" data-name="Body" transform="translate(0 14.206)">
              <path id="Skin_color:-2" data-name="Skin color:" d="M154.975,541.013V527.633h21.146v13.379Zm-44.116,0V527.633h21.3v13.379Zm131.3-437.229c12.155-.221,15.693,2.873,15.693,2.873-4.423-6.625-5.443-20.121-7.325-27.509-1.97-6.468-3.933-11.194-3.933-11.194-4.16,4.079-6,2.121-6,2.121-2.11,1.882-5.1.472-5.1.472-2.185,1.934-3.846,1.113-4.271.9a.676.676,0,0,0-.618,0A3.111,3.111,0,0,1,230,71.7a3.567,3.567,0,0,1-3.251-.7,14.7,14.7,0,0,1-5.116-9.854,6.62,6.62,0,0,1,2.96-6.346c5.716-3.758,16.042-5.477,20.552-6.445a8.084,8.084,0,0,1,8.246,2.6s20.79,19.229,29.135,46.931a90.847,90.847,0,0,0,4.143,11.328c1.748,3.9,3.094,9.976-2.3,14.684-3.718,3.24-16.648,13.553-42.211,13.74C238.179,127.732,242.158,103.783,242.158,103.783ZM3.834,123.9c-5.39-4.7-4.044-10.774-2.278-14.672A90.01,90.01,0,0,0,5.7,97.9C14.025,70.22,34.839,50.967,34.839,50.967a8.047,8.047,0,0,1,8.245-2.6c4.51.967,14.836,2.686,20.552,6.445a6.607,6.607,0,0,1,2.9,6.334A14.627,14.627,0,0,1,61.428,71a3.567,3.567,0,0,1-3.251.7,2.99,2.99,0,0,1-.583-.256.676.676,0,0,0-.618,0c-.425.216-2.086,1.037-4.271-.9,0,0-2.989,1.41-5.1-.472,0,0-1.836,1.963-6-2.121,0,0-1.963,4.726-3.933,11.194-1.882,7.388-2.913,20.884-7.324,27.509,0,0,3.537-3.094,15.692-2.873,0,0,3.98,23.943,0,33.855C20.482,137.452,7.552,127.15,3.834,123.9ZM126.5,85.527V65.293l-.017-.02a41.258,41.258,0,0,1-6.748-11.333c-.122-.3-.245-.583-.361-.9-.192-.5-.39-1.02-.583-1.533-.268-.763-.536-1.538-.787-2.331l-.4-1.276a47.19,47.19,0,0,1-1.515-7.43c-.052-.425-.1-.862-.152-1.305,0-.163-.035-.326-.047-.489,0,0-.07-.49-.152-1.335a1.349,1.349,0,0,1,0-.145c-.384-4.242-.979-16.578,4-24.666C125.787,2.731,135.705-.129,144.1,0c8.385-.134,18.3,2.727,24.345,12.522,4.942,8.08,4.354,20.4,3.969,24.654a5.633,5.633,0,0,1,4.229.268c3.088,1.445,4.394,6.3,1.5,10.728a8.089,8.089,0,0,1-8.765,3.329c-.192.512-.384,1.03-.582,1.531-.117.309-.239.583-.361.9a41.048,41.048,0,0,1-6.7,11.258l-.029.035v20.3c-.46,2.955-8.157,5.3-17.6,5.3S126.964,88.494,126.5,85.527Zm33.972-18.92a27.811,27.811,0,0,1-4.93,4.137,20.347,20.347,0,0,1-5.01,2.469,20.346,20.346,0,0,0,5.027-2.475,27.792,27.792,0,0,0,4.93-4.137l.127-.146ZM109.984,48.176c-2.913-4.428-1.591-9.282,1.463-10.728a6.046,6.046,0,0,1,.746-.3,5.771,5.771,0,0,1,3.5.041,1.208,1.208,0,0,0,0,.151v.321c.064.647.122,1.014.122,1.014a4.638,4.638,0,0,0,.047.489c.07.647.146,1.282.233,1.906a46.316,46.316,0,0,0,1.433,6.818q.624,1.859,1.253,3.607a9.223,9.223,0,0,1-2.072.236A7.8,7.8,0,0,1,109.984,48.176Z" transform="translate(1.179 1.159)" fill="#dd9488"/>
              <path id="Combined_Shape-4" data-name="Combined Shape" d="M45.281,15.733a1.167,1.167,0,0,1-1.165-1.165V1.165A1.167,1.167,0,0,1,45.281,0H66.427a1.167,1.167,0,0,1,1.166,1.165v13.4a1.167,1.167,0,0,1-1.166,1.165ZM46.447,13.4H65.262V2.331H46.447ZM1.165,15.733A1.167,1.167,0,0,1,0,14.568V1.165A1.167,1.167,0,0,1,1.165,0h21.3a1.167,1.167,0,0,1,1.166,1.165v13.4a1.167,1.167,0,0,1-1.166,1.165ZM2.331,13.4H21.3V2.331H2.331Z" transform="translate(110.872 527.604)" fill="#353a46"/>
              <path id="Path-11" data-name="Path" d="M32.952,0V16.193C17.219,16.461,5.495,8.869,0,4.394V.058l.064.07A27.777,27.777,0,0,0,4.994,4.26a20.336,20.336,0,0,0,10.885,3.5h1.136a20.336,20.336,0,0,0,10.891-3.5A28.057,28.057,0,0,0,32.841.122Z" transform="translate(128.79 67.644)" fill="#7c3830" opacity="0.15" style="mix-blend-mode: multiply;isolation: isolate"/>
              <path id="Combined_Shape-5" data-name="Combined Shape" d="M63.159,5.274V0h46.61V5.274ZM0,5.274V0H46.61V5.274Z" transform="translate(89.784 561.995)" fill="#fff"/>
              <g id="Shoe_color:-4" data-name="Shoe color:" transform="translate(89.807 534.859)">
                <path id="Shoe_color:-5" data-name="Shoe color:" d="M63.136,27.137V9.527a2.214,2.214,0,0,1,2.22-2.2h7.913V4.417A3.647,3.647,0,0,1,76.141.863c5.4-1.183,16.065-1.34,18.005.752,2.523,2.744,0,11.392,0,11.392,15.389,2.109,15.6,14.131,15.6,14.131ZM0,27.137S.216,15.115,15.6,13.006c0,0-2.524-8.647,0-11.392C17.545-.478,28.209-.32,33.61.863a3.647,3.647,0,0,1,2.873,3.554V7.33H44.4a2.214,2.214,0,0,1,2.22,2.2V27.137Z" transform="translate(0 0)" fill="#92645c"/>
                <path id="Shoe_color:-6" data-name="Shoe color:" d="M63.136,27.137V9.527a2.214,2.214,0,0,1,2.22-2.2h7.913V4.417A3.647,3.647,0,0,1,76.141.863c5.4-1.183,16.065-1.34,18.005.752,2.523,2.744,0,11.392,0,11.392,15.389,2.109,15.6,14.131,15.6,14.131ZM0,27.137S.216,15.115,15.6,13.006c0,0-2.524-8.647,0-11.392C17.545-.478,28.209-.32,33.61.863a3.647,3.647,0,0,1,2.873,3.554V7.33H44.4a2.214,2.214,0,0,1,2.22,2.2V27.137Z" transform="translate(0 0)" fill="rgba(0,0,0,0.1)"/>
              </g>
              <g id="Top_color:-4" data-name="Top color:" transform="translate(47.194 86.687)">
                <path id="Top_color:-5" data-name="Top color:" d="M196.143,52.1c-5.979.921-15.593,1.684-31.413,0l-5.961,117.2a.431.431,0,0,1-.431.408H37.841a.67.67,0,0,1-.67-.641L32.55,52.1c-8.5,1.655-23.815,1.643-32.55,0,3.98-9.906,0-33.855,0-33.855s15.039-7.47,37.841-5.949a6.41,6.41,0,0,0,2.436-.309C47.851,9.5,55.391,5.3,80.448,0c.46,2.954,8.158,5.3,17.6,5.3,9.125,0,16.636-2.191,17.539-5.011,0,0,20.033,3.654,36.127,9.533a6.783,6.783,0,0,0,2.057.227c26.041-1.084,42.4,8.2,42.4,8.2S192.163,42.187,196.143,52.1Z" fill="#3acfb3"/>
                <path id="Top_color:-6" data-name="Top color:" d="M196.143,52.1c-5.979.921-15.593,1.684-31.413,0l-5.961,117.2a.431.431,0,0,1-.431.408H37.841a.67.67,0,0,1-.67-.641L32.55,52.1c-8.5,1.655-23.815,1.643-32.55,0,3.98-9.906,0-33.855,0-33.855s15.039-7.47,37.841-5.949a6.41,6.41,0,0,0,2.436-.309C47.851,9.5,55.391,5.3,80.448,0c.46,2.954,8.158,5.3,17.6,5.3,9.125,0,16.636-2.191,17.539-5.011,0,0,20.033,3.654,36.127,9.533a6.783,6.783,0,0,0,2.057.227c26.041-1.084,42.4,8.2,42.4,8.2S192.163,42.187,196.143,52.1Z" fill="rgba(255,255,255,0.05)"/>
              </g>
              <path id="Pants_color:-4" data-name="Pants color:" d="M59.185,272.4l-.256-16.461h.04L55.677,42.456l-6.515.017L47.076,255.939h.017L46.931,272.4H16.484l-1-16.461h-.023L0,0H108.044L93.221,255.939H93.18L92.224,272.4Z" transform="translate(91.113 256.392)" fill="#32adff"/>
              <path id="Light_layer" data-name="Light layer" d="M43.7,16.461,43.44,0H77.691l-.956,16.461Zm-42.7,0L0,0H31.606l-.163,16.461Z" transform="translate(106.601 512.331)" fill="#fff" opacity="0.4" style="mix-blend-mode: soft-light;isolation: isolate"/>
              <path id="Path-12" data-name="Path" d="M0,.5H105.416" transform="translate(91.654 264.889)" fill="#f9f9f9"/>
              <path id="Combined_Shape-6" data-name="Combined Shape" d="M152.937,568.434a1.167,1.167,0,0,1-1.166-1.165V544.386a3.384,3.384,0,0,1,3.379-3.38H161.9v-1.748a4.785,4.785,0,0,1,3.787-4.691,49.316,49.316,0,0,1,9.557-.9,33.068,33.068,0,0,1,5.846.449,6.852,6.852,0,0,1,3.709,1.547c1.014,1.1,1.49,2.97,1.415,5.551a28.714,28.714,0,0,1-.832,5.678c7.582,1.383,11.318,5.225,13.117,8.2a15.021,15.021,0,0,1,2.184,6.6,1.164,1.164,0,0,1,.036.29v5.274a1.166,1.166,0,0,1-1.165,1.165ZM154.1,566.1h44.285v-2.943H154.1Zm44.145-5.274c-.533-3.029-3.009-10.245-14.463-11.811-.035,0-.07-.011-.1-.019a1.167,1.167,0,0,1-.384.025,31.351,31.351,0,0,0-15.1,2.744,1.127,1.127,0,0,1-.507.116,1.165,1.165,0,0,1-.519-2.208,33.149,33.149,0,0,1,15.888-3.01,28.748,28.748,0,0,0,.791-4.813c.111-1.586.068-3.67-.765-4.588a5.421,5.421,0,0,0-2.8-.935,35.411,35.411,0,0,0-5.09-.32,44.31,44.31,0,0,0-9.008.853,2.468,2.468,0,0,0-1.958,2.412v2.75c0,.02,0,.039.006.059a47.986,47.986,0,0,0,.845,6.234,1.165,1.165,0,0,1-.851,1.41,1.184,1.184,0,0,1-.292.035,1.165,1.165,0,0,1-1.13-.88,49.784,49.784,0,0,1-.816-5.53h-6.842A1.059,1.059,0,0,0,154.1,544.4V560.83Zm-108.44,7.6a1.167,1.167,0,0,1-1.165-1.165v-5.274q0-.056.005-.11a15.538,15.538,0,0,1,2.058-6.448,15.914,15.914,0,0,1,4.566-5.019,21.352,21.352,0,0,1,8.689-3.48,28.93,28.93,0,0,1-.828-5.678c-.077-2.582.4-4.45,1.41-5.551a6.856,6.856,0,0,1,3.71-1.547,33.074,33.074,0,0,1,5.846-.45,49.314,49.314,0,0,1,9.557.9,4.785,4.785,0,0,1,3.787,4.691v1.748h6.748a3.384,3.384,0,0,1,3.379,3.38v17.367a1.166,1.166,0,0,1,.017.2v5.274a1.167,1.167,0,0,1-1.165,1.165Zm1.165-2.331h44.285v-2.943H90.973Zm44.285-5.274V544.386a1.058,1.058,0,0,0-1.049-1.049h-6.857a49.862,49.862,0,0,1-.817,5.547,1.165,1.165,0,0,1-1.136.88,1.22,1.22,0,0,1-.286-.035,1.166,1.166,0,0,1-.845-1.41,48.642,48.642,0,0,0,.839-6.234,1.171,1.171,0,0,1,.024-.163v-2.663a2.468,2.468,0,0,0-1.958-2.412,44.324,44.324,0,0,0-9.009-.853,35.4,35.4,0,0,0-5.09.32,5.423,5.423,0,0,0-2.8.935c-1.412,1.538-.686,6.519.029,9.4a33.1,33.1,0,0,1,15.861,3.014,1.165,1.165,0,0,1-.519,2.208v.012a1.127,1.127,0,0,1-.507-.116,31.128,31.128,0,0,0-15.092-2.744,1.173,1.173,0,0,1-.418-.032l-.054.009c-4.939.684-8.75,2.507-11.329,5.418A13.568,13.568,0,0,0,91.1,560.83Zm48.078-30.877H150.3a1.167,1.167,0,0,1-1.165-1.165l-.256-16.456a1.164,1.164,0,0,1,.036-.29L145.641,300h-4.207l-2.1,212.089a1.156,1.156,0,0,1,.027.259L139.2,528.8a1.17,1.17,0,0,1-1.16,1.154H107.6a1.168,1.168,0,0,1-1.165-1.1l-.979-16.159a1.163,1.163,0,0,1-.053-.284L89.995,257.557H85.033A1.833,1.833,0,0,1,83.2,255.81L78.631,140.184a98.37,98.37,0,0,1-15.071,1.025,96.292,96.292,0,0,1-16.581-1.258l-.01,0c-23.419-.222-36.826-8.874-42.743-14.023-4.547-3.964-5.459-9.656-2.57-16.03A87.984,87.984,0,0,0,5.735,98.713,99.425,99.425,0,0,1,13.526,80.2,123.93,123.93,0,0,1,22.91,65.488,118.355,118.355,0,0,1,35.1,51.336a8.989,8.989,0,0,1,7-3.215,11.33,11.33,0,0,1,2.36.259l1.94.4.015,0c5.166,1.048,13.812,2.8,18.993,6.208a7.715,7.715,0,0,1,3.5,7.464,15.769,15.769,0,0,1-5.535,10.617,4.7,4.7,0,0,1-4.324.9,4.229,4.229,0,0,1-.582-.227h0a4.2,4.2,0,0,1-1.724.374,5.138,5.138,0,0,1-3.049-1.1,7.409,7.409,0,0,1-2.193.352,5.174,5.174,0,0,1-2.766-.749,3.479,3.479,0,0,1-1.224.239l-.1,0a6.975,6.975,0,0,1-4.126-1.785c-.664,1.723-1.977,5.255-3.287,9.556-.544,2.152-1.04,4.971-1.521,7.7-1.006,5.683-2.147,12.124-4.242,16.939a28.311,28.311,0,0,1,4.654-1.045,50.207,50.207,0,0,1,7.152-.469c.328,0,.663,0,1,.007,2.2-1.017,14.085-6.1,31.878-6.1,2.06,0,4.156.069,6.228.206.113.008.229.012.342.012a5.173,5.173,0,0,0,1.645-.268c1.872-.624,3.748-1.332,5.495-2,6.446-2.464,15.236-5.824,33.855-9.814V66.846a42.262,42.262,0,0,1-6.66-11.31c-.031-.075-.062-.149-.094-.224-.092-.219-.187-.445-.279-.7q-.122-.316-.242-.634a10.512,10.512,0,0,1-1.326.086l-.2,0a8.907,8.907,0,0,1-7.486-4.081,9.989,9.989,0,0,1-1.486-8.123,6.661,6.661,0,0,1,3.426-4.295,7.5,7.5,0,0,1,.874-.35,6.919,6.919,0,0,1,2.064-.315q.28,0,.558.023c-.363-5.558-.334-16.336,4.289-23.843A26.308,26.308,0,0,1,132.49,2.306a30.3,30.3,0,0,1,6.593-1.85A34.806,34.806,0,0,1,144.727,0c.181,0,.366,0,.547,0s.363,0,.543,0a32.52,32.52,0,0,1,12.2,2.306A26.3,26.3,0,0,1,170.587,13.08c2.2,3.571,3.6,8.258,4.161,13.93a62.145,62.145,0,0,1,.136,9.872q.262-.02.526-.02a7,7,0,0,1,1.827.243,7.134,7.134,0,0,1,1.113.425,6.613,6.613,0,0,1,3.42,4.282,10,10,0,0,1-1.48,8.129,8.919,8.919,0,0,1-7.517,4.121l-.163,0a10.524,10.524,0,0,1-1.3-.085l-.059.162c-.061.166-.121.33-.182.494-.143.382-.24.614-.364.907l-.008.019a42.017,42.017,0,0,1-6.66,11.306v19.2c2.238.435,6.541,1.31,11.906,2.587a212.741,212.741,0,0,1,23.313,6.786,5.448,5.448,0,0,0,1.391.181c.088,0,.176,0,.264-.007,1.437-.06,2.891-.09,4.32-.09a99.128,99.128,0,0,1,15.891,1.268A89.206,89.206,0,0,1,233.169,99.6a62.118,62.118,0,0,1,10.407,4.159c.327,0,.653-.007.972-.007a39.3,39.3,0,0,1,11.806,1.515c-2.091-4.792-3.229-11.217-4.233-16.885l-.009-.054-.061-.344c-.489-2.747-.951-5.342-1.477-7.407-1.22-4-2.454-7.376-3.275-9.5a7,7,0,0,1-4.143,1.783h-.1a3.547,3.547,0,0,1-1.223-.239,5.173,5.173,0,0,1-2.765.749,7.35,7.35,0,0,1-2.188-.352,5.063,5.063,0,0,1-3.033,1.1,4.3,4.3,0,0,1-1.745-.377,5.148,5.148,0,0,1-.583.233,4.7,4.7,0,0,1-4.318-.909,15.863,15.863,0,0,1-5.547-10.617,7.747,7.747,0,0,1,3.5-7.464c5.181-3.405,13.826-5.16,18.992-6.208l.016,0,1.94-.4a11.33,11.33,0,0,1,2.36-.259,8.979,8.979,0,0,1,7,3.213,115.653,115.653,0,0,1,12.178,14.128,123.752,123.752,0,0,1,9.387,14.719,99.442,99.442,0,0,1,7.791,18.532,89.721,89.721,0,0,0,4.079,11.182c2.908,6.357,2,12.05-2.57,16.03-5.905,5.144-19.283,13.785-42.674,14.023q-.05.012-.1.02a94.822,94.822,0,0,1-14.336,1.007,160.668,160.668,0,0,1-16.151-.9l-5.9,115.957a1.6,1.6,0,0,1-1.595,1.515h-5.332L185.481,512.413a1.152,1.152,0,0,1-.036.217l-.943,16.226a1.167,1.167,0,0,1-1.163,1.1Zm-31.891-2.331h30.8l.822-14.124H151.23Zm-42.747,0H136.89l.139-14.113H107.871Zm74.533-16.456.283-4.889h-4.985a.583.583,0,1,1,0-1.165h5.053l12.545-216.58a59.881,59.881,0,0,1-9.527-8.389.584.584,0,1,1,.868-.781,58.523,58.523,0,0,0,8.739,7.792l1.2-20.646a1.166,1.166,0,0,1-.326.046H92.892l1.235,20.434c9.931-7.326,12.825-13.556,12.852-13.622a.584.584,0,1,1,1.067.478c-.131.284-3.177,6.842-13.836,14.528l13.468,222.793h29.357l2.07-211.229H132.28a1.165,1.165,0,1,1,0-2.331h24.362a1.165,1.165,0,1,1,0,2.331h-8.665l3.252,211.229Zm13.845-246.943a1.163,1.163,0,0,1,.453.091l.391-6.757H152.232v6.666Zm-47.175,0v-2.756h-2.815a.583.583,0,0,1,0-1.166H149.9v-2.744H140.63v6.666Zm-11.6,0v-6.666H92.348l.4,6.666Zm66.533-9,5.875-115.491q-1.211-.209-2.408-.49a1.165,1.165,0,1,1,.624-2.243,40.013,40.013,0,0,0,6.264.921,1.17,1.17,0,0,1,.265.042c4.955.452,9.475.673,13.737.673a94.889,94.889,0,0,0,12.582-.779q-.132-.438-.25-.9c-2.544-9.841-.1-27.3.532-31.36a65.265,65.265,0,0,0-10.567-4.077,94.657,94.657,0,0,0-26.257-3.714c-1.41,0-2.839.033-4.247.1-.118.005-.238.008-.356.008a7.788,7.788,0,0,1-1.162-.087,39.843,39.843,0,0,0-4.933,1.2.736.736,0,0,1-.146.029.584.584,0,0,1-.216-1.136q1.428-.449,2.884-.791c-5.635-1.99-12.305-3.931-19.854-5.778-2.251-.551-4.352-1.037-6.22-1.453-1.134,4.112-9.848,7.859-19.235,8.15H151.7a.583.583,0,1,1,0-1.165c9.377-.291,17.176-4.04,18.133-7.238-3-.655-5.273-1.106-6.42-1.327-.945,1.354-2.978,2.5-5.915,3.354a34.617,34.617,0,0,1-6.183,1.179,54.161,54.161,0,0,1-6.071.338,55.164,55.164,0,0,1-7.121-.428,32.213,32.213,0,0,1-5.4-1.141,15.987,15.987,0,0,1-3.713-1.637,6.423,6.423,0,0,1-2.063-1.916c-18.493,3.96-27.176,7.285-33.517,9.714-1.9.724-3.554,1.355-5.245,1.923a19.637,19.637,0,0,1,2.477,1.06.583.583,0,0,1-.268,1.1.626.626,0,0,1-.268-.064,20.641,20.641,0,0,0-4.385-1.6q-.138.005-.277.005c-.166,0-.335-.006-.5-.017-1.993-.133-4.012-.2-6-.2-16.037,0-27.285,4.3-30.427,5.657.313,2.05,1.03,7.141,1.405,12.927a92.749,92.749,0,0,1,.128,11.148,35.483,35.483,0,0,1-1.284,8.2,100.512,100.512,0,0,0,14.808.973,92.5,92.5,0,0,0,15.551-1.133,1.164,1.164,0,0,1,.476-.131,16.238,16.238,0,0,0,2.156-.443,1.165,1.165,0,0,1,.583,2.255q-.7.189-1.4.327l4.563,115.467H139.3a1.168,1.168,0,0,1,.164-.012h11.6a1.167,1.167,0,0,1,.164.012ZM36.887,52.8a1.058,1.058,0,0,1-.152.175A110.078,110.078,0,0,0,25.309,66.116a121.93,121.93,0,0,0-9.467,14.642,97.637,97.637,0,0,0-7.9,18.631,90.432,90.432,0,0,1-4.2,11.473A13.946,13.946,0,0,0,2.3,117.386a9.409,9.409,0,0,0,3.427,6.785c5.586,4.868,18.292,13.088,40.638,13.449a31.362,31.362,0,0,0,1.306-7.993,86.577,86.577,0,0,0-.05-9.4c-.335-6.243-1.124-11.969-1.448-14.141h-.216c-10.423,0-13.691,2.584-13.723,2.61a1.169,1.169,0,0,1-1.725-1.538c2.986-4.469,4.371-12.31,5.594-19.229l.048-.27c.5-2.824.977-5.492,1.525-7.649,1.449-4.77,2.9-8.621,3.669-10.563a6.99,6.99,0,0,1-2.509-3.392,2.547,2.547,0,0,1,.245-2.558,2.728,2.728,0,0,1,1-.787,5.821,5.821,0,0,1-2.116-3.677,1.168,1.168,0,0,1,2.331-.163c0,.106.242,1.567,2.616,3.059.116-.217.207-.364.239-.414a1.166,1.166,0,0,1,1.97,1.241,4.008,4.008,0,0,0-.67,2.1,1.166,1.166,0,0,1-.927,1.364,1.475,1.475,0,0,1-.2.023,1.165,1.165,0,0,1-1.166-.95,3.281,3.281,0,0,1-.05-.741,2.131,2.131,0,0,0-1.161.327,1.072,1.072,0,0,0,.082.32c.373.991.53,1.4,2.476,2.978a1.163,1.163,0,0,1,.252.28c1.883,1.793,3.067,2.067,3.614,2.067a.935.935,0,0,0,.533-.128q.026-.032.053-.062c3.939-5.442,3.717-9.961,3.717-10A1.169,1.169,0,0,1,54,60.168c0,.21.317,4.912-3.578,10.717a3.258,3.258,0,0,0,1.026.155,5.086,5.086,0,0,0,1.723-.328c4.479-4.816,3.619-9.678,3.579-9.885a1.167,1.167,0,1,1,2.29-.455c.049.242,1.073,5.667-3.464,11.137a2.417,2.417,0,0,0,1.09.285,1.915,1.915,0,0,0,.906-.234,1.875,1.875,0,0,1,.59-.183C62.081,65.285,61.6,61.128,61.6,61.083a1.175,1.175,0,0,1,2.331-.3c0,.2.534,4.66-3.273,11.024a2.4,2.4,0,0,0,1.222-.554,13.375,13.375,0,0,0,4.661-9.084,5.407,5.407,0,0,0-2.435-5.244c-4.814-3.164-13.188-4.86-18.192-5.874l-1.963-.4a8.881,8.881,0,0,0-1.778-.18h-.046l-.192,0A6.626,6.626,0,0,0,36.887,52.8ZM243.04,118.3a94.025,94.025,0,0,0-.193,10.918,32.2,32.2,0,0,0,1.322,8.393c22.338-.367,35.031-8.583,40.609-13.449,4.752-4.135,3.7-9.519,1.981-13.309a90.846,90.846,0,0,1-4.2-11.473,98.224,98.224,0,0,0-7.906-18.631,122.3,122.3,0,0,0-9.458-14.642,108.307,108.307,0,0,0-11.421-13.139.863.863,0,0,1-.152-.175,6.633,6.633,0,0,0-5.213-2.342,8.821,8.821,0,0,0-1.844.2l-1.969.4-.061.013c-5,1.014-13.36,2.71-18.125,5.861a5.437,5.437,0,0,0-2.448,5.244,13.628,13.628,0,0,0,4.662,9.084,2.372,2.372,0,0,0,1.277.564c-3.826-6.37-3.309-10.812-3.287-11.04a1.174,1.174,0,1,1,2.331.292c0,.073-.422,4.3,3.449,10.318a1.855,1.855,0,0,1,.479.153,1.979,1.979,0,0,0,.941.247,2.44,2.44,0,0,0,1.127-.3c-4.52-5.464-3.5-10.877-3.449-11.119a1.165,1.165,0,0,1,2.284.455c-.041.225-.9,5.1,3.617,9.921a5.149,5.149,0,0,0,1.64.3,3.243,3.243,0,0,0,1.069-.169c-3.888-5.8-3.581-10.5-3.565-10.706a1.169,1.169,0,0,1,2.331.175c0,.046-.255,4.622,3.794,10.114a1.072,1.072,0,0,0,.448.082c.566,0,1.814-.294,3.817-2.26a1.174,1.174,0,0,1,.267-.2c1.8-1.47,1.958-1.887,2.32-2.851a.662.662,0,0,0,.07-.338,2.244,2.244,0,0,0-1.179-.311,3.284,3.284,0,0,1-.05.742,1.165,1.165,0,0,1-1.148.926,1.347,1.347,0,0,1-.216,0,1.166,1.166,0,0,1-.927-1.364,4.046,4.046,0,0,0-.67-2.1,1.165,1.165,0,0,1,1.969-1.241c.032.051.125.2.242.421,2.431-1.544,2.637-3.066,2.642-3.066a1.168,1.168,0,0,1,2.331.14,5.754,5.754,0,0,1-2.116,3.677,2.708,2.708,0,0,1,.991.787,2.517,2.517,0,0,1,.245,2.558,7.041,7.041,0,0,1-2.555,3.436c1.369,3.5,2.594,7.023,3.644,10.473.581,2.272,1.069,5.025,1.586,7.939l0,.026c1.223,6.926,2.609,14.775,5.588,19.229a1.165,1.165,0,0,1-1.748,1.527,9.876,9.876,0,0,0-2.945-1.3,37.213,37.213,0,0,0-10.76-1.3l-.138,0C244.085,108.023,243.421,112.792,243.04,118.3ZM145.251,90.818c9.781,0,16.177-2.508,16.456-4.306V69.4a29.065,29.065,0,0,1-4.341,3.5,21.518,21.518,0,0,1-11.485,3.683h-1.23l-.029-.023H144.6a21.533,21.533,0,0,1-11.479-3.683,28.473,28.473,0,0,1-4.341-3.5L128.8,86.46a.148.148,0,0,1,0,.03q.006.028.01.057a.925.925,0,0,0,.04.156C129.531,88.482,135.815,90.818,145.251,90.818ZM118.193,39.59q.009.075.009.079a.427.427,0,0,1,0,.082l.035.408c.056.5.111.954.157,1.328a46.513,46.513,0,0,0,1.474,7.237c.132.427.265.849.4,1.253.23.733.482,1.457.727,2.156l.048.139c.177.484.37,1,.583,1.5.078.2.156.4.233.584v0c.039.1.078.191.116.287a40.052,40.052,0,0,0,6.555,11.019c.364.425.724.824,1.165,1.294a27.012,27.012,0,0,0,4.72,3.962,19.155,19.155,0,0,0,10.209,3.3h1.165l.208,0c.178,0,.4,0,.676-.021a16.791,16.791,0,0,0,3.312-.553,21.108,21.108,0,0,0,6.053-2.732,26.8,26.8,0,0,0,4.72-3.963c.388-.406.789-.852,1.223-1.364q.029-.034.06-.065a39.8,39.8,0,0,0,6.449-10.878c.119-.282.236-.576.35-.874l.431-1.136.146-.4c.465-1.329.835-2.451,1.165-3.531A47.637,47.637,0,0,0,172.2,40.2a1.949,1.949,0,0,1,.028-.3c.007-.05.015-.1.018-.146v-.082c0-.007,0-.042.013-.105.023-.175.077-.581.133-1.176h1.061l-.842-.076-.219-.018v-.076c.327-3.627,1.017-16.074-3.834-23.949A24.045,24.045,0,0,0,156.978,4.4,30.221,30.221,0,0,0,145.737,2.3c-.161,0-.325,0-.486,0l-.513.029a32.447,32.447,0,0,0-5.222.418,28.063,28.063,0,0,0-6.08,1.694A24.028,24.028,0,0,0,121.885,14.3c-1.231,2-5.144,9.63-3.835,23.943a1.184,1.184,0,0,1,.006.122v.043C118.121,39.019,118.173,39.432,118.193,39.59Zm54.5,12.168a6.748,6.748,0,0,0,5.651-3.046,7.662,7.662,0,0,0,1.165-6.218,4.293,4.293,0,0,0-2.18-2.814,4.6,4.6,0,0,0-.752-.286,4.391,4.391,0,0,0-1.882-.1c-.031.281-.057.485-.072.6q-.005.046-.009.074c-.006.053-.008.106-.01.163a1.108,1.108,0,0,1-.031.274,50.743,50.743,0,0,1-1.222,7.148,2.541,2.541,0,0,0,1.98-1.093,2.586,2.586,0,0,0,.239-2.639.584.584,0,0,1,.979-.636,3.782,3.782,0,0,1-3.306,5.542q-.1,0-.192-.008-.093.343-.191.684c-.246.806-.5,1.586-.746,2.334C172.3,51.749,172.5,51.758,172.692,51.758ZM112.4,40.135a4.154,4.154,0,0,0-1.447,2.343,7.682,7.682,0,0,0,1.165,6.217,6.713,6.713,0,0,0,5.623,3.049c.209,0,.421-.01.629-.03-.228-.678-.463-1.419-.74-2.331q-.1-.333-.189-.667a3.028,3.028,0,0,1-.306.009,3.788,3.788,0,0,1-3.315-5.542.583.583,0,1,1,.979.636,2.6,2.6,0,0,0,.239,2.639,2.541,2.541,0,0,0,2.1,1.1,46.749,46.749,0,0,1-.976-5.163.09.09,0,0,1,0-.041c-.081-.579-.157-1.2-.233-1.905a1.984,1.984,0,0,0-.025-.259c-.01-.079-.022-.16-.027-.243s-.018-.178-.034-.285-.031-.218-.048-.379a5.1,5.1,0,0,0-.763-.059h-.036A4.155,4.155,0,0,0,112.4,40.135Zm59.386,466.143a.583.583,0,1,1,0-1.165h3.77a.583.583,0,1,1,0,1.165Zm.315-103.138a11.064,11.064,0,0,1-4.417-1.043,12.012,12.012,0,0,1-2.442-1.451.584.584,0,1,1,.711-.927,11.013,11.013,0,0,0,2.208,1.317,9.474,9.474,0,0,0,4.295.927,2.44,2.44,0,0,0,2.2-1.049c.373-.833-.251-2.133-1.591-3.3a.583.583,0,1,1,.763-.88c1.795,1.568,2.5,3.31,1.888,4.662a3.485,3.485,0,0,1-3.2,1.748Zm-55.193,0a3.442,3.442,0,0,1-3.2-1.748c-.583-1.352.093-3.094,1.882-4.662a.584.584,0,1,1,.769.88c-1.346,1.165-1.969,2.471-1.591,3.3a2.47,2.47,0,0,0,2.2,1.049,9.489,9.489,0,0,0,4.289-.927,10.939,10.939,0,0,0,2.208-1.311.583.583,0,1,1,.716.921,12.01,12.01,0,0,1-2.441,1.451,11.074,11.074,0,0,1-4.423,1.043Zm66.824-126.574a18.685,18.685,0,0,1-1.649-2.721.583.583,0,0,1,1.061-.484,17.933,17.933,0,0,0,1.544,2.535.584.584,0,1,1-.956.67ZM174.98,170.607a12.524,12.524,0,0,1-12.522-12.522V139.473a.793.793,0,0,1,.792-.792h26.478a.793.793,0,0,1,.792.792v18.611A12.523,12.523,0,0,1,178,170.607Zm-11.357-12.522a11.36,11.36,0,0,0,11.357,11.357H178a11.358,11.358,0,0,0,11.357-11.357V139.846H163.623Zm-47.012,11.194-6.585-7.744a.583.583,0,1,1,.886-.752l6.585,7.744a.581.581,0,0,1-.886.752Zm-4.411-.111-3.5-4.137a.583.583,0,1,1,.886-.752l3.5,4.137a.581.581,0,0,1-.886.752Zm67.7-3.951a.582.582,0,0,1,.455-.693,5.4,5.4,0,0,0,3.846-3.17.581.581,0,1,1,1.072.448,6.573,6.573,0,0,1-4.662,3.863l-.128.012h-.013A.582.582,0,0,1,179.9,165.217Zm-63.7-1.5-1.626-1.912a.583.583,0,1,1,.886-.752l1.626,1.911a.581.581,0,0,1-.886.752Zm134.033-.455h-1.165a.583.583,0,0,1,0-1.165,33.388,33.388,0,0,0,13.746-2.436.583.583,0,0,1,.443,1.072,34.262,34.262,0,0,1-12.919,2.529ZM48.82,156.331c-20.138,0-33.738-8.07-33.9-8.158a.583.583,0,0,1,.583-1c.187.111,19.048,11.287,45.212,7.039a.59.59,0,0,1,.187,1.165,75.517,75.517,0,0,1-11.942.95Zm180.527-.979a.59.59,0,0,1,.186-1.165c26.181,4.254,45.02-6.922,45.212-7.039a.583.583,0,0,1,.583,1c-.139.116-13.746,8.187-33.884,8.187A75.435,75.435,0,0,1,229.347,155.352ZM8.987,121l-.024-.017H8.847a2.82,2.82,0,0,1-1.905-1.294c-1.055-1.7-.356-4.376-.326-4.487a.581.581,0,0,1,1.124.3,5.464,5.464,0,0,0,.192,3.578,1.643,1.643,0,0,0,1.165.757A.585.585,0,0,1,9.043,121Zm273.007-.484a.582.582,0,0,1,.46-.688,1.644,1.644,0,0,0,1.166-.758,5.462,5.462,0,0,0,.192-3.578.582.582,0,0,1,1.125-.3c.029.111.728,2.791-.327,4.486a2.819,2.819,0,0,1-1.928,1.3h-.117A.582.582,0,0,1,281.994,120.512ZM173.233,48.724h.023Z" fill="#353a46"/>
            </g>
            <g id="Cheeks_color:-3" data-name="Cheeks color:" transform="translate(123.691 56.63)">
              <rect id="_01_Character_Setup_03_Face_Cheek_Ñheek_01_background-2" data-name="#01 Character/Setup/#03 Face/Cheek/Ñheek#01 background" width="43.12" height="12.237" transform="translate(0 0.414)" fill="none"/>
              <path id="Cheeks_color:-4" data-name="Cheeks color:" d="M31.466,5.827a5.827,5.827,0,1,1,5.827,5.827A5.827,5.827,0,0,1,31.466,5.827ZM0,5.827a5.827,5.827,0,1,1,5.827,5.827A5.827,5.827,0,0,1,0,5.827Z" transform="translate(0 0)" fill="#ff1300" opacity="0.15" style="mix-blend-mode: multiply;isolation: isolate"/>
            </g>
            <g id="Emotions-2" data-name="Emotions" transform="translate(124.857 42.768)">
              <rect id="_01_Character_Setup_01_Emotions_wink_background" data-name="#01 Character/Setup/#01 Emotions/wink background" width="40.789" height="32.631" fill="none"/>
              <g id="Face-2" data-name="Face">
                <g id="Mouth-3" data-name="Mouth" transform="translate(0 20.977)">
                  <rect id="_01_Character_Setup_03_Face_Mouth_silly_mouth_background" data-name="#01 Character/Setup/#03 Face/Mouth/silly_mouth background" width="40.789" height="11.654" fill="none"/>
                  <g id="silly_mouth" transform="translate(11.385 0.752)">
                    <g id="smile-4" transform="translate(0 0)">
                      <path id="Path-13" data-name="Path" d="M15.292,0a.629.629,0,0,1,.618.682A8.018,8.018,0,0,1,7.956,7.688,8.018,8.018,0,0,1,0,.682.629.629,0,0,1,.62,0Z" transform="translate(1.019 1.014)" fill="#353a46"/>
                      <path id="Shape" d="M8.975,9.713A8.834,8.834,0,0,1,.007,1.789,1.637,1.637,0,0,1,1.639,0H16.311a1.637,1.637,0,0,1,1.632,1.789A8.834,8.834,0,0,1,9.159,9.715Z" fill="#353a46"/>
                    </g>
                    <g id="Path-14" data-name="Path" transform="translate(3.808 3.729)">
                      <path id="Path-15" data-name="Path" d="M5.184,8.589C1.3,8.589.231,4.842,0,1.806A1.69,1.69,0,0,1,1.694,0H8.686A1.684,1.684,0,0,1,10.37,1.8C10.143,4.831,9.1,8.589,5.184,8.589Z" transform="translate(0 0)" fill="#f66"/>
                      <path id="Path-16" data-name="Path" d="M5.184,8.589C1.3,8.589.231,4.842,0,1.806A1.69,1.69,0,0,1,1.694,0H8.686A1.684,1.684,0,0,1,10.37,1.8C10.143,4.831,9.1,8.589,5.184,8.589Z" transform="translate(0 0)" fill="rgba(255,255,255,0.09)"/>
                    </g>
                    <path id="Shape-2" data-name="Shape" d="M.009,2.914A2.693,2.693,0,0,1,2.713,0H9.705a2.7,2.7,0,0,1,2.7,2.914C12.042,7.9,9.839,10.64,6.2,10.64,2.585,10.64.376,7.9.009,2.914Z" transform="translate(2.789 2.698)" fill="#353a46"/>
                    <path id="Path-17" data-name="Path" d="M.583,4.324A.583.583,0,0,1,0,3.741V.583a.583.583,0,0,1,1.165,0V3.741A.583.583,0,0,1,.583,4.324Z" transform="translate(8.41 3.147)" fill="#353a46"/>
                  </g>
                </g>
                <g id="Nose-2" data-name="Nose" transform="translate(0 14.567)">
                  <rect id="_01_Character_Setup_03_Face_Nose_background-2" data-name="#01 Character/Setup/#03 Face/Nose background" width="40.789" height="4.662" fill="none"/>
                  <g id="_Nose-2" data-name="ðŸ‘ƒNose" transform="translate(17.028 1.254)">
                    <path id="Path-18" data-name="Path" d="M3.351,3.283A3.8,3.8,0,0,1,.163,1.628,1.02,1.02,0,0,1,1.877.521a1.853,1.853,0,0,0,1.487.724A1.853,1.853,0,0,0,4.837.492,1.022,1.022,0,0,1,6.585,1.553,3.764,3.764,0,0,1,3.351,3.283Z" transform="translate(0 0)" fill="#353a46"/>
                  </g>
                </g>
                <g id="Eyes-2" data-name="Eyes" transform="translate(0 6.992)">
                  <rect id="_01_Character_Setup_03_Face_Eyes_silly_eyes_background" data-name="#01 Character/Setup/#03 Face/Eyes/silly_eyes background" width="40.789" height="5.827" fill="none"/>
                  <g id="silly_eyes-2" data-name="silly_eyes" transform="translate(6.7 0.973)">
                    <g id="eyes-7">
                      <path id="Path-19" data-name="Path" d="M1.945,4.021C4.532,4.021,4.538,0,1.945,0S-.648,4.021,1.945,4.021Z" fill="#372168"/>
                    </g>
                    <path id="Path-20" data-name="Path" d="M4.737,2.331H1.165A1.165,1.165,0,0,1,1.165,0H4.737a1.165,1.165,0,0,1,0,2.331Z" transform="translate(22.865 0.845)" fill="#372168"/>
                  </g>
                </g>
                <g id="Eyebrows-2" data-name="Eyebrows">
                  <rect id="_01_Character_Setup_03_Face_Eyebrow_wink_eyebrows_background-2" data-name="#01 Character/Setup/#03 Face/Eyebrow/wink_eyebrows background" width="40.789" height="6.992" fill="none"/>
                  <g id="kiss_eyebrows-2" data-name="kiss_eyebrows" transform="translate(2.12 0.972)">
                    <path id="Path-21" data-name="Path" d="M1.167,4.977A1.165,1.165,0,0,1,.415,2.92,13.352,13.352,0,0,1,11.609.374a1.165,1.165,0,1,1-.583,2.255A11.083,11.083,0,0,0,1.907,4.7a1.165,1.165,0,0,1-.74.274Z" transform="translate(0 0)" fill="#353a46"/>
                    <path id="Path-22" data-name="Path" d="M11.553,3.525a1.165,1.165,0,0,1-.53-.128A10.965,10.965,0,0,0,1.7,3.4,1.166,1.166,0,0,1,.633,1.323c.239-.122,5.827-2.913,11.485,0a1.165,1.165,0,0,1-.536,2.2Z" transform="translate(24.104 1.452)" fill="#353a46"/>
                  </g>
                </g>
              </g>
            </g>
            <g id="_01_Character_Setup_02_Hairstyle_Man_Hairstyle_01-2" data-name="#01 Character/Setup/#02 Hairstyle/Man/Hairstyle#01" transform="translate(110.413 0)">
              <g id="_1_hairdo-2" data-name="_1_hairdo" transform="translate(0)">
                <g id="Hair_color:-4" data-name="Hair color:" transform="translate(1.273 1.133)">
                  <path id="Hair_color:-5" data-name="Hair color:" d="M67.905,35.626c0,5.139-1.841,11.479-2.628,14.69a5.827,5.827,0,0,0-3.339.093l-1.165-8.437A20.284,20.284,0,0,0,47.586,25.656c-.583-.2-.892-.291-.892-.291-4.662-1.072-11.875,7.511-21.408,7.138C19.92,32.3,14.4,28.22,14.4,28.22c-.233.233-.46.466-.676.7A30.207,30.207,0,0,0,5.842,45.911l-.583,4.475a5.774,5.774,0,0,0-3.5-.041c-.67-4.108-2.5-7.9-1.439-16.9.583-5.035,3.764-9.242,5.862-11.293a2.71,2.71,0,0,0,.536-3.042C2.176,8.892,12.094,2.494,12.094,2.494c1.066,2.855,2.849,3.5,2.849,3.5C15.276.932,20.3,0,20.3,0a11.125,11.125,0,0,0,8.385,5.99,11.555,11.555,0,0,0,5.32-.4,16.9,16.9,0,0,1,10.261,0c5.874,1.975,8.082,5.507,8.863,7.365a3.5,3.5,0,0,0,1.789,1.812C64.485,19.229,67.905,27.131,67.905,35.626Z" transform="translate(0)" fill="#92645c"/>
                  <path id="Hair_color:-6" data-name="Hair color:" d="M67.905,35.626c0,5.139-1.841,11.479-2.628,14.69a5.827,5.827,0,0,0-3.339.093l-1.165-8.437A20.284,20.284,0,0,0,47.586,25.656c-.583-.2-.892-.291-.892-.291-4.662-1.072-11.875,7.511-21.408,7.138C19.92,32.3,14.4,28.22,14.4,28.22c-.233.233-.46.466-.676.7A30.207,30.207,0,0,0,5.842,45.911l-.583,4.475a5.774,5.774,0,0,0-3.5-.041c-.67-4.108-2.5-7.9-1.439-16.9.583-5.035,3.764-9.242,5.862-11.293a2.71,2.71,0,0,0,.536-3.042C2.176,8.892,12.094,2.494,12.094,2.494c1.066,2.855,2.849,3.5,2.849,3.5C15.276.932,20.3,0,20.3,0a11.125,11.125,0,0,0,8.385,5.99,11.555,11.555,0,0,0,5.32-.4,16.9,16.9,0,0,1,10.261,0c5.874,1.975,8.082,5.507,8.863,7.365a3.5,3.5,0,0,0,1.789,1.812C64.485,19.229,67.905,27.131,67.905,35.626Z" transform="translate(0)" fill="rgba(255,255,255,0.09)"/>
                </g>
                <path id="Combined_Shape-7" data-name="Combined Shape" d="M63.2,52.737a1.126,1.126,0,0,1-.613-.18,1.164,1.164,0,0,1-.53-.822L60.84,43.268A19.054,19.054,0,0,0,48.417,27.914c-.287-.1-.554-.19-.79-.262l-.005,0-.014,0a2.507,2.507,0,0,0-.557-.059c-1.582,0-3.761,1.216-6.284,2.623l-.009.005c-3.706,2.059-8.317,4.622-13.658,4.622-.212,0-.426,0-.638-.012a17.962,17.962,0,0,1-6.333-1.586A29.514,29.514,0,0,1,15.774,30.9,29.266,29.266,0,0,0,8.2,47.213l-.583,4.481a1.166,1.166,0,0,1-1.5.961,4.622,4.622,0,0,0-2.82-.041,1.166,1.166,0,0,1-1.5-.92c-.134-.839-.325-1.672-.527-2.556L1.206,48.9A36.956,36.956,0,0,1,.344,34.5C1.078,28.281,5.28,23.748,6.55,22.506a1.527,1.527,0,0,0,.285-1.748A13.564,13.564,0,0,1,5.662,13.3a13.835,13.835,0,0,1,2.2-5.679,18.135,18.135,0,0,1,4.8-4.93,1.173,1.173,0,0,1,1.725.571,6.543,6.543,0,0,0,1,1.807A7.961,7.961,0,0,1,21.3.02,1.184,1.184,0,0,1,21.519,0,1.162,1.162,0,0,1,22.6.725a7.993,7.993,0,0,0,1.658,2.317,10.109,10.109,0,0,0,2.3,1.729A11.749,11.749,0,0,0,30.114,6.01a10.613,10.613,0,0,0,1.584.12,10.552,10.552,0,0,0,3.188-.492,17.99,17.99,0,0,1,10.972,0c6.273,2.109,8.684,5.929,9.562,8.018a2.323,2.323,0,0,0,1.206,1.2c8.966,4.153,13.7,11.728,13.7,21.9,0,4.577-1.371,9.912-2.278,13.443-.083.345-.162.652-.239.95-.052.2-.1.393-.146.576a1.165,1.165,0,0,1-1.445.845,4.657,4.657,0,0,0-2.68.082,1.156,1.156,0,0,1-.332.081Zm2.482-2.593c.047-.187.088-.343.128-.489l.023-.09c.868-3.4,2.18-8.548,2.18-12.777,0-9.331-4.156-16-12.353-19.811a4.671,4.671,0,0,1-1.095-.686,32.239,32.239,0,0,0-6.681,9.067q.16.026.317.062a8.947,8.947,0,0,1,1.019.326,21.373,21.373,0,0,1,13.95,17.2l1.02,7.2.171-.018c1-8.284.064-12.63-.608-14.509a.584.584,0,1,1,1.1-.39c.855,2.4,1.636,6.9.679,14.9ZM5.512,50.08l.408-3.217a31.232,31.232,0,0,1,8.193-17.65c.235-.248.47-.488.7-.717a1.166,1.166,0,0,1,1.515-.116,26.31,26.31,0,0,0,3.29,1.976,17.963,17.963,0,0,0,6.948,2.1c.2.008.4.013.6.013,4.685,0,8.83-2.307,12.487-4.342l.226-.122c2.521-1.364,4.723-2.555,6.749-2.719a33.876,33.876,0,0,1,7.136-9.867,4.681,4.681,0,0,1-.481-.857c-1.658-4.012-5.823-5.928-8.158-6.713a15.68,15.68,0,0,0-9.556,0,12.772,12.772,0,0,1-3.841.592,12.841,12.841,0,0,1-6.1-1.548,12.816,12.816,0,0,1-4.282-3.771c-.343,1.553-.151,4.039,3.064,6.62a.582.582,0,1,1-.728.909c-3.7-2.952-3.872-5.945-3.437-7.835a5.28,5.28,0,0,0-2.909,4.374,1.173,1.173,0,0,1-.52.891,1.163,1.163,0,0,1-1.024.128,5.663,5.663,0,0,1-2.716-2.437,12.245,12.245,0,0,0,3.939,13.759.576.576,0,1,1-.728.892A13.317,13.317,0,0,1,11.706,6.539,16.2,16.2,0,0,0,9.859,8.825a10.864,10.864,0,0,0-.851,10.961,3.882,3.882,0,0,1-.787,4.347,18.977,18.977,0,0,0-5.512,10.6,34.575,34.575,0,0,0,.81,13.6c.155.643.284,1.215.4,1.748h.01A45.491,45.491,0,0,1,5.7,33.84a.583.583,0,0,1,1.107.367A46.4,46.4,0,0,0,5.075,50.042C5.221,50.05,5.368,50.062,5.512,50.08ZM26.758,29.208a20.553,20.553,0,0,1-8.629-2.779.587.587,0,1,1,.583-1.02,19,19,0,0,0,8.111,2.634A18.648,18.648,0,0,0,34.84,26.37a.582.582,0,1,1,.455,1.072,20.118,20.118,0,0,1-7.919,1.766Zm10.875-3.684a.583.583,0,0,1,.289-.651q1.165-.629,2.284-1.253l.076-.041a.585.585,0,0,1,.571,1.02l-.082.041c-.74.414-1.509.839-2.331,1.264a.651.651,0,0,1-.251.064A.583.583,0,0,1,37.633,25.523ZM16.656,20.56h0Zm-.014,0h.014Z" transform="translate(0)" fill="#353a46"/>
              </g>
            </g>
          </g>
        </g>
        <g id="_01_Character_Setup_04_Accessories_Face_Accessories_07" data-name="#01 Character/Setup/#04 Accessories/Face/Accessories#07" transform="translate(115.723 48.164)">
          <g id="_3_glasses" transform="translate(0 0)">
            <g id="Group" transform="translate(10.364 1.189)" opacity="0.41">
              <g id="Path-23" data-name="Path" transform="translate(0 0)">
                <path id="Path-24" data-name="Path" d="M13.944,6.992A6.972,6.972,0,1,1,6.992,0,6.853,6.853,0,0,1,8.869.256a6.41,6.41,0,0,1,1.282.5,6.952,6.952,0,0,1,3.793,6.235Z" fill="#7dbcdd"/>
                <path id="Path-25" data-name="Path" d="M13.944,6.992A6.972,6.972,0,1,1,6.992,0,6.853,6.853,0,0,1,8.869.256a6.41,6.41,0,0,1,1.282.5,6.952,6.952,0,0,1,3.793,6.235Z" fill="rgba(255,255,255,0.16)"/>
              </g>
              <g id="Path-26" data-name="Path" transform="translate(24.165 0)">
                <path id="Path-27" data-name="Path" d="M13.985,6.992A6.992,6.992,0,1,1,6.992,0,6.893,6.893,0,0,1,8.84.251a6.619,6.619,0,0,1,1.253.478,6.957,6.957,0,0,1,3.892,6.264Z" transform="translate(0 0)" fill="#7dbcdd"/>
                <path id="Path-28" data-name="Path" d="M13.985,6.992A6.992,6.992,0,1,1,6.992,0,6.893,6.893,0,0,1,8.84.251a6.619,6.619,0,0,1,1.253.478,6.957,6.957,0,0,1,3.892,6.264Z" transform="translate(0 0)" fill="rgba(255,255,255,0.16)"/>
              </g>
            </g>
            <path id="Light_layer-2" data-name="Light layer" d="M9.323.5.833,11.194A6.9,6.9,0,0,1,0,9.953L8.041,0A6.41,6.41,0,0,1,9.323.5Z" transform="translate(11.168 1.468)" fill="#fff" opacity="0.5"/>
            <path id="Light_layer-3" data-name="Light layer" d="M9.282.449.81,11.124A6.917,6.917,0,0,1,0,9.906L8.03,0A6.619,6.619,0,0,1,9.282.449Z" transform="translate(35.361 1.492)" fill="#fff" opacity="0.5"/>
            <path id="Shape-3" data-name="Shape" d="M0,8.158a8.158,8.158,0,1,1,8.158,8.158A8.158,8.158,0,0,1,0,8.158Z" transform="translate(9.157 0)" fill="#353a46"/>
            <path id="Shape-4" data-name="Shape" d="M0,8.158a8.158,8.158,0,1,1,8.158,8.158A8.158,8.158,0,0,1,0,8.158Z" transform="translate(33.386 0)" fill="#353a46"/>
            <path id="Path-29" data-name="Path" d="M11.535,3.308a1.09,1.09,0,0,1-.4-.076,12.722,12.722,0,0,0-9.416-.047A1.165,1.165,0,1,1,.679,1.1a14.968,14.968,0,0,1,11.264-.052,1.165,1.165,0,0,1-.408,2.261Z" transform="translate(23.075 5.363)" fill="#353a46"/>
            <path id="Path-30" data-name="Path" d="M10.369,3.688h-.175L.93,2.307a1.165,1.165,0,0,1,.344-2.3L10.538,1.38a1.168,1.168,0,1,1-.169,2.331Z" transform="translate(0 5.659)" fill="#353a46"/>
            <path id="Path-31" data-name="Path" d="M1.253,3.731A1.168,1.168,0,0,1,1.084,1.4L10.355.025a1.165,1.165,0,1,1,.338,2.3L1.428,3.708Z" transform="translate(47.26 5.615)" fill="#353a46"/>
          </g>
        </g>
      </g>
    </g>
  </g>
</svg>
