<svg xmlns="http://www.w3.org/2000/svg" width="27" height="22" viewBox="0 0 27 28.472">
  <g id="bazaar" transform="translate(-5.953 -4.87)">
    <path id="Path_2156" data-name="Path 2156" d="M20.772,19.242s-9.4,9.35-14.16,14.1c-.573-.256-.648-.8-.648-1.433V11.355c0-1.749-.03-3.5.015-5.248A5.029,5.029,0,0,1,6.325,4.87C11.241,9.756,20.772,19.242,20.772,19.242Z" transform="translate(0 0)" fill="#fff"/>
    <path id="Path_2157" data-name="Path 2157" d="M20.787,18.457c-4.449-4.434-8.943-8.9-13.557-13.5,5.957,3.257,11.748,6.424,17.523,9.576Z" transform="translate(0.649 0.046)" fill="#fff"/>
    <path id="Path_2158" data-name="Path 2158" d="M20.633,14.85c1.146,1.131,2.413,2.383,3.755,3.71-5.61,3.061-11.2,6.123-16.558,9.048Z" transform="translate(0.953 5.07)" fill="#fff"/>
    <path id="Path_2159" data-name="Path 2159" d="M16.62,15.853c1.418-1.418,2.79-2.79,4.238-4.223.935.513,1.991,1.071,3.046,1.644,1,.543,1.991,1.071,2.986,1.644q1.289.746,0,1.493c-1.945,1.086-3.891,2.141-5.851,3.2a.649.649,0,0,1-.6-.015C19.123,18.341,17.857,17.074,16.62,15.853Z" transform="translate(5.419 3.434)" fill="#fff"/>
  </g>
</svg>
