<svg id="Group_189" data-name="Group 189" xmlns="http://www.w3.org/2000/svg" width="74.125" height="64.022" viewBox="0 0 74.125 64.022">
  <path id="Path_13" data-name="Path 13" d="M68.231,5.994A20.5,20.5,0,0,0,53.546,0,20.752,20.752,0,0,0,38.861,5.994L36.913,7.942l-1.8-1.948A20.5,20.5,0,0,0,20.43,0,20.752,20.752,0,0,0,5.746,5.994C-2.346,14.086-1.9,27.572,6.2,35.663l1.5,1.5L32.868,62.336a5.879,5.879,0,0,0,8.242,0L66.283,37.162l1.5-1.5C75.873,27.721,76.173,14.086,68.231,5.994Zm-1.5,15.584a13.663,13.663,0,0,1-4.2,8.841l-1.648,1.648L36.913,56.042,12.938,32.067,11.29,30.419a14.052,14.052,0,0,1-4.2-8.841,12.9,12.9,0,0,1,3.9-10.19,13.427,13.427,0,0,1,10.19-3.9,13.664,13.664,0,0,1,8.841,4.2l1.648,1.648,2.847,2.847,3.9,3.9a3.92,3.92,0,0,0,5.544-5.544l-1.5-1.5,1.648-1.648a13.656,13.656,0,0,1,9.44-3.9,12.8,12.8,0,0,1,9.29,3.9A12.9,12.9,0,0,1,66.733,21.578Z" transform="translate(0.103 0)" fill="#3acfb3"/>
  <path id="Path_14" data-name="Path 14" d="M19.317,27.862l-6.743-6.743a3.62,3.62,0,0,1,0-5.245h0a3.62,3.62,0,0,1,5.245,0l6.743,6.743a3.62,3.62,0,0,1,0,5.245h0A3.62,3.62,0,0,1,19.317,27.862Z" transform="translate(5.862 7.352)" fill="#32adff"/>
</svg>
