
<svg id="Group_185" data-name="Group 185" xmlns="http://www.w3.org/2000/svg" width="51.784" height="74.125" viewBox="0 0 51.784 74.125">
  <path id="Path_9" data-name="Path 9" d="M38.024,51.784a3.662,3.662,0,0,0,5.03-1.48c4.735-9.173,8.729-18.642,8.729-24.413A25.892,25.892,0,1,0,0,25.892C0,36.989,16.127,62.881,23.229,72.5a3.92,3.92,0,0,0,3.255,1.628,4.351,4.351,0,0,0,3.4-1.775c1.628-2.219,3.551-5.326,5.77-9.025a3.823,3.823,0,0,0-1.332-5.178h0a3.748,3.748,0,0,0-4.883,1.332c-1.036,1.627-1.923,3.255-2.959,4.735C18.05,51.932,7.4,32.846,7.4,25.892a18.494,18.494,0,1,1,36.989,0c0,4.143-3.4,12.428-7.842,21.01a3.618,3.618,0,0,0,1.48,4.883Z" transform="translate(0 0)" fill="#3acfb3"/>
  <path id="Path_10" data-name="Path 10" d="M21.576,16.4A5.178,5.178,0,1,1,16.4,21.576,5.242,5.242,0,0,1,21.576,16.4m0-7.4A12.576,12.576,0,1,0,34.152,21.576,12.566,12.566,0,0,0,21.576,9Z" transform="translate(4.316 4.316)" fill="#32adff"/>
</svg>
