<svg xmlns="http://www.w3.org/2000/svg" width="1200.464" height="650.512" viewBox="0 0 1325.464 686.512">
  <g id="Group_3203" data-name="Group 3203" transform="translate(-140.943 -3686)">
    <g id="Group_3202" data-name="Group 3202" transform="translate(141.229 3686)">
      <g id="Group_3201" data-name="Group 3201">
        <path id="Path_2111" data-name="Path 2111" d="M-2033.535,15716.07v684.012H-2694v-244.438s16.48,4.635,65.012-18.721,106.17-62.123,129.114-74.709,24.7,4.018,56.787-14.549,71.559-59.717,71.559-59.717,14.844-18.946,38.893-18.946,27.968,30.117,57.3,18.946,48.053-53.066,60.041-63.632,25.271,1.384,47.177-26.964,39.285-48.244,56.791-73.442S-2033.535,15716.07-2033.535,15716.07Z" transform="translate(3358.714 -15716.07)" fill="#3acfb3" opacity="0.737"/>
        <path id="Path_2112" data-name="Path 2112" d="M-2984.209,16234.258s-57.018-9.6-89.688,1.13-120.994,73.328-172.5,75.332-82.616-78.38-150.413-72.779-100.139,79.575-120.771,95.175-84.63,43.293-100.628,66.031-31.28,79.5-31.28,79.5h664.967Z" transform="translate(3649.2 -15794.636)" fill="#20afff" opacity="0.75"/>
      </g>
    </g>
    <path id="Path_2113" data-name="Path 2113" d="M7,647.348V386.414" transform="translate(796.944 3722.664)" fill="none" stroke="#43457c" stroke-linecap="round" stroke-width="5"/>
  </g>
</svg>
