<svg id="Group_3197" data-name="Group 3197" xmlns="http://www.w3.org/2000/svg" width="74.438" height="74.438" viewBox="0 0 74.438 74.438">
  <g id="Group_190" data-name="Group 190" transform="translate(34.284 26.987)">
    <path id="Path_15" data-name="Path 15" d="M28.644,32.23l13.4-7.295a3.661,3.661,0,0,0,1.191-5.062h0a3.661,3.661,0,0,0-5.062-1.191l-13.4,7.295a3.661,3.661,0,0,0-1.191,5.062h0A3.539,3.539,0,0,0,28.644,32.23Z" transform="translate(-23.028 -18.128)" fill="#32adff"/>
  </g>
  <g id="Group_193" data-name="Group 193" transform="translate(0 0)">
    <g id="Group_191" data-name="Group 191">
      <path id="Path_16" data-name="Path 16" d="M37.219,0A37.219,37.219,0,1,0,74.438,37.219,37.233,37.233,0,0,0,37.219,0Zm0,66.994A29.775,29.775,0,1,1,66.994,37.219,29.863,29.863,0,0,1,37.219,66.994Z" fill="#3acfb3"/>
    </g>
    <g id="Group_192" data-name="Group 192" transform="translate(18.83 19.426)">
      <path id="Path_17" data-name="Path 17" d="M18.829,14.019a3.691,3.691,0,1,0-4.913,5.508L29.4,34.415a3.691,3.691,0,0,0,4.913-5.508Z" transform="translate(-12.648 -13.048)" fill="#3acfb3"/>
    </g>
  </g>
</svg>
