<svg xmlns="http://www.w3.org/2000/svg" xmlns:xlink="http://www.w3.org/1999/xlink" width="347" height="499" viewBox="0 0 347 499">
  <defs>
    <clipPath id="clip-path">
      <rect id="Rectangle_2132" data-name="Rectangle 2132" width="347" height="499" transform="translate(595.046 3898.795)" fill="#fff" stroke="#707070" stroke-width="1"/>
    </clipPath>
  </defs>
  <g id="Mask_Group_28" data-name="Mask Group 28" transform="translate(-595.046 -3898.795)" clip-path="url(#clip-path)">
    <g id="Group_3247" data-name="Group 3247" transform="translate(595 3911.803)">
      <g id="Group_1" data-name="Group 1" transform="translate(0 0)">
        <g id="Man" transform="translate(0 13.393)">
          <g id="Body" transform="translate(0 0)">
            <path id="Skin_color:" data-name="Skin color:" d="M206.311,508.944c-.174-.068-.354-.124-.534-.2a23.237,23.237,0,0,0-16.88-.248c-.371.152-.563.248-.563.248a1.557,1.557,0,0,0-.186.141V493.335H206.84l-.028,15.85A3.219,3.219,0,0,0,206.311,508.944Zm-72.82-15.609h18.664v15.552a1.556,1.556,0,0,0-.186-.141s-.191-.1-.563-.248a23.236,23.236,0,0,0-16.88.248c-.18.073-.361.129-.535.2a3.218,3.218,0,0,0-.5.242ZM43.065,167.6c-3.258-.067-10.381-.563-13.746-1.615-3.7-1.165-5.627-1.39-6.752-1.935a4.145,4.145,0,0,0-1.412-.4l-4.974-.5a6.111,6.111,0,0,1-2.639-1.035l-4.417-2.588a58.338,58.338,0,0,1-8.485-5.863,1.854,1.854,0,0,1,.883-3.2s.743-2.318,3.787-1.278a41.593,41.593,0,0,1,8.215,3.759l2.251-.085s1.2-.878,3.044.405c0,0,8.378-.709,9.734-.563a18.732,18.732,0,0,1-5.255-1.6c-2.639-1.277-5.278-4.158-4.158-6s5.064.079,6.082.636c.653.354,1.846.962,2.639,1.362a7,7,0,0,0,1.688.563l2.892.619s6.667-.051,10.566,1.519a10.321,10.321,0,0,1,4.788,3.539,10.066,10.066,0,0,0,1.845,2.093,19.024,19.024,0,0,1,3.686,3.972c.692,1.081,1.423,2.245,2.071,3.264A25.749,25.749,0,0,1,49.48,172.2C47.038,169.7,44.562,167.639,43.065,167.6Zm236.408-5.824c.49-.776,1.007-1.587,1.5-2.352a19.028,19.028,0,0,1,3.691-3.973,10.054,10.054,0,0,0,1.846-2.093,10.173,10.173,0,0,1,4.788-3.539c3.9-1.57,10.567-1.519,10.567-1.519l2.892-.619a7.042,7.042,0,0,0,1.688-.563c.793-.4,1.986-1.007,2.639-1.362,1.041-.563,4.963-2.476,6.082-.636s-1.519,4.721-4.164,6a18.679,18.679,0,0,1-5.25,1.6c1.356-.141,9.734.563,9.734.563,1.84-1.283,3.038-.405,3.038-.405l2.251.085a41.547,41.547,0,0,1,8.215-3.758c3.044-1.041,3.787,1.277,3.787,1.277a1.841,1.841,0,0,1,.889,3.185,58.341,58.341,0,0,1-8.485,5.863l-4.417,2.588a6.108,6.108,0,0,1-2.639,1.035l-4.974.5a4.142,4.142,0,0,0-1.412.4c-1.08.563-3.022.771-6.752,1.935-3.376,1.058-10.493,1.548-13.746,1.615-1.412,0-3.685,1.857-5.981,4.158A25.771,25.771,0,0,1,279.474,161.781ZM150.647,82.586V63.08l-.045-.052a39.838,39.838,0,0,1-6.516-10.944c-.118-.287-.236-.563-.349-.872-.185-.484-.377-.985-.563-1.48l0-.009a7.8,7.8,0,0,1-8.481-3.209c-2.814-4.277-1.536-8.963,1.412-10.359a5.841,5.841,0,0,1,.72-.287,5.576,5.576,0,0,1,3.376.039,1.171,1.171,0,0,0,0,.146,1.123,1.123,0,0,0,.028.309c.062.625.118.979.118.979a4.616,4.616,0,0,0,.045.472c.068.624.141,1.238.225,1.84A44.7,44.7,0,0,0,142,46.238q.342,1.07.7,2.1-.143-.426-.28-.858-.2-.608-.388-1.232a45.513,45.513,0,0,1-1.463-7.174c-.051-.411-.1-.833-.146-1.26,0-.157-.034-.315-.045-.472,0,0-.067-.473-.146-1.289a1.288,1.288,0,0,1,0-.14c-.371-4.1-.945-16.008,3.865-23.818C149.926,2.638,159.5-.125,167.605,0c8.1-.129,17.673,2.633,23.508,12.092,4.8,7.8,4.233,19.683,3.862,23.8a5.444,5.444,0,0,1,4.078.262c2.982,1.4,4.243,6.082,1.451,10.359a7.809,7.809,0,0,1-8.456,3.216v0c-.185.5-.371,1-.563,1.48-.112.3-.23.563-.349.872a39.634,39.634,0,0,1-6.465,10.871l-.028.033v19.6c-.445,2.853-7.877,5.115-17,5.115S151.091,85.45,150.647,82.586Zm32.8-18.27a26.855,26.855,0,0,1-4.76,3.995,19.657,19.657,0,0,1-2.306,1.344,19.655,19.655,0,0,0,2.351-1.366,26.876,26.876,0,0,0,4.76-3.995l.175-.21Q183.561,64.2,183.45,64.317Z" transform="translate(1.104 1.12)" fill="#dd9488"/>
            <path id="Combined_Shape" data-name="Combined Shape" d="M56.52,5.131a1.6,1.6,0,0,1-1.6-1.6V0L92.565.006a4.012,4.012,0,0,1,0,.518V3.247a1.822,1.822,0,0,1-1.756,1.885Zm-54.764,0A1.823,1.823,0,0,1,0,3.247V.523A4.019,4.019,0,0,1,.029.006L37.649,0V3.528a1.6,1.6,0,0,1-1.6,1.6Z" transform="translate(124.973 528.362)" fill="#fff"/>
            <g id="Shoe_color:" data-name="Shoe color:" transform="translate(125.002 508.154)">
              <path id="Shoe_color:-2" data-name="Shoe color:" d="M54.888,20.208a4.659,4.659,0,0,1,.7-2.4l7.7-14.46a3.7,3.7,0,0,1,.934-1.5,1.673,1.673,0,0,1,.186-.141s.191-.1.563-.248a23.241,23.241,0,0,1,16.88.248c.18.073.361.13.535.2a3.168,3.168,0,0,1,.5.242,1.221,1.221,0,0,1,.411.433L91.692,17.5a8.134,8.134,0,0,1,.816,2.707ZM0,20.208A8.134,8.134,0,0,1,.816,17.5L9.205,2.586a1.221,1.221,0,0,1,.411-.433,3.168,3.168,0,0,1,.5-.242c.174-.067.354-.124.534-.2a23.242,23.242,0,0,1,16.88-.248c.371.152.563.248.563.248a1.622,1.622,0,0,1,.185.141,3.7,3.7,0,0,1,.934,1.5l7.7,14.46a4.664,4.664,0,0,1,.7,2.4Z" transform="translate(0 0)" fill="#c2b9f5"/>
              <path id="Shoe_color:-3" data-name="Shoe color:" d="M54.888,20.208a4.659,4.659,0,0,1,.7-2.4l7.7-14.46a3.7,3.7,0,0,1,.934-1.5,1.673,1.673,0,0,1,.186-.141s.191-.1.563-.248a23.241,23.241,0,0,1,16.88.248c.18.073.361.13.535.2a3.168,3.168,0,0,1,.5.242,1.221,1.221,0,0,1,.411.433L91.692,17.5a8.134,8.134,0,0,1,.816,2.707ZM0,20.208A8.134,8.134,0,0,1,.816,17.5L9.205,2.586a1.221,1.221,0,0,1,.411-.433,3.168,3.168,0,0,1,.5-.242c.174-.067.354-.124.534-.2a23.242,23.242,0,0,1,16.88-.248c.371.152.563.248.563.248a1.622,1.622,0,0,1,.185.141,3.7,3.7,0,0,1,.934,1.5l7.7,14.46a4.664,4.664,0,0,1,.7,2.4Z" transform="translate(0 0)" fill="rgba(255,255,255,0.16)"/>
            </g>
            <path id="Path" d="M31.819,0V15.636C16.6,15.9,5.306,8.564,0,4.242V.056L.062.124a26.822,26.822,0,0,0,4.76,3.989A19.637,19.637,0,0,0,15.333,7.489h1.1A19.637,19.637,0,0,0,26.946,4.113,27.092,27.092,0,0,0,31.712.118Z" transform="translate(152.814 65.313)" fill="#7c3830" opacity="0.15" style="mix-blend-mode: multiply;isolation: isolate"/>
            <g id="Top_color:" data-name="Top color:" transform="translate(48.84 83.701)">
              <path id="Top_color:-2" data-name="Top color:" d="M239.176,90.8a1.592,1.592,0,0,1,.068,2.307c-4.946,5.064-24.757,22.163-46.819,30.3-3.939,1.457-8.395,0-11.338-3.021-4.9-5-10.46-16.064-15.659-32.634v71.346H74.265V87.725c-5.115,16.4-11.748,28.994-16.644,33.63a9.4,9.4,0,0,1-9.155,2.374C27.778,117.281,5.514,98.286.455,93.115a1.632,1.632,0,0,1,.107-2.363q.619-.563,1.182-1.125A25.747,25.747,0,0,0,7.663,80.1a24.713,24.713,0,0,0,.821-2.9,1.688,1.688,0,0,1,2.251-1.26c5.627,1.93,22.18,7.832,27.649,12.615C41,75.47,51.084,44.9,51.084,44.9c4.788-14.365,6.1-20.256,10.094-26.108a29.552,29.552,0,0,1,2.009-2.633A30.3,30.3,0,0,1,78.305,6.752L102.922,0c.445,2.853,7.877,5.115,17,5.115s16.554-2.251,17-5.115l24.588,6.752a30.277,30.277,0,0,1,15.1,9.408,30.65,30.65,0,0,1,2.009,2.633c3.984,5.869,5.627,15.192,10.387,29.534,0,0,10.128,28.831,12.412,40.23,5.666-4.963,23.249-11.129,28.229-12.817a1.165,1.165,0,0,1,1.525.9,23.234,23.234,0,0,0,.636,2.566,25.776,25.776,0,0,0,5.79,9.982A21.284,21.284,0,0,0,239.176,90.8Z" transform="translate(0)" fill="#3acfb3"/>
              <path id="Top_color:-3" data-name="Top color:" d="M239.176,90.8a1.592,1.592,0,0,1,.068,2.307c-4.946,5.064-24.757,22.163-46.819,30.3-3.939,1.457-8.395,0-11.338-3.021-4.9-5-10.46-16.064-15.659-32.634v71.346H74.265V87.725c-5.115,16.4-11.748,28.994-16.644,33.63a9.4,9.4,0,0,1-9.155,2.374C27.778,117.281,5.514,98.286.455,93.115a1.632,1.632,0,0,1,.107-2.363q.619-.563,1.182-1.125A25.747,25.747,0,0,0,7.663,80.1a24.713,24.713,0,0,0,.821-2.9,1.688,1.688,0,0,1,2.251-1.26c5.627,1.93,22.18,7.832,27.649,12.615C41,75.47,51.084,44.9,51.084,44.9c4.788-14.365,6.1-20.256,10.094-26.108a29.552,29.552,0,0,1,2.009-2.633A30.3,30.3,0,0,1,78.305,6.752L102.922,0c.445,2.853,7.877,5.115,17,5.115s16.554-2.251,17-5.115l24.588,6.752a30.277,30.277,0,0,1,15.1,9.408,30.65,30.65,0,0,1,2.009,2.633c3.984,5.869,5.627,15.192,10.387,29.534,0,0,10.128,28.831,12.412,40.23,5.666-4.963,23.249-11.129,28.229-12.817a1.165,1.165,0,0,1,1.525.9,23.234,23.234,0,0,0,.636,2.566,25.776,25.776,0,0,0,5.79,9.982A21.284,21.284,0,0,0,239.176,90.8Z" transform="translate(0)" fill="#3acfb3"/>
            </g>
            <path id="Path-2" data-name="Path" d="M35.172,10.837a46.7,46.7,0,0,1-10.347,1.125C13.313,11.962,3.539,8.142,0,2.183l.422-.124C3.612,1.137,6.2.461,7.827,0h.028C8.3,2.853,15.732,5.115,24.847,5.115S41.4,2.864,41.851,0h.09c1.609.461,4.175,1.125,7.315,2.042l.383.113C47.9,5.1,44.642,7.523,40.4,9.228" transform="translate(143.874 83.718)" fill="#fff" opacity="0.4" style="mix-blend-mode: soft-light;isolation: isolate"/>
            <path id="Path-3" data-name="Path" d="M35.172,10.837a46.7,46.7,0,0,1-10.347,1.125C13.313,11.962,3.539,8.142,0,2.183l.422-.124C3.612,1.137,6.2.461,7.827,0h.028C8.3,2.853,15.732,5.115,24.847,5.115S41.4,2.864,41.851,0h.09c1.609.461,4.175,1.125,7.315,2.042l.383.113C47.9,5.1,44.642,7.523,40.4,9.228" transform="translate(143.874 83.718)" fill="#fff" opacity="0.4" style="mix-blend-mode: soft-light;isolation: isolate"/>
            <g id="Pants_color:" data-name="Pants color:" transform="translate(123.106 242.777)">
              <path id="Pants_color:-2" data-name="Pants color:" d="M89.176,251.684H60.059L46.1,39.341,35.352,251.684H6.234L0,0H91.191L89.176,251.684Z" fill="#20afff"/>
              <path id="Pants_color:-3" data-name="Pants color:" d="M89.176,251.684H60.059L46.1,39.341,35.352,251.684H6.234L0,0H91.191L89.176,251.684Z" fill="#20afff"/>
            </g>
            <path id="Combined_Shape-2" data-name="Combined Shape" d="M181.493,534.618a2.732,2.732,0,0,1-2.729-2.729v-3.528q0-.024,0-.048a5.747,5.747,0,0,1,.865-2.889l7.692-14.449a1.11,1.11,0,0,0,.09-.2,3.862,3.862,0,0,1,.72-1.225V495.581h-4.971a1.129,1.129,0,0,1-1.122-1.047L169.345,301.49l-9.768,193.027a1.126,1.126,0,0,1-1.124,1.063h-4.042v14.006a3.831,3.831,0,0,1,.681,1.186,1.7,1.7,0,0,0,.079.191l7.714,14.472a5.78,5.78,0,0,1,.847,2.692,1.126,1.126,0,0,1,.025.239v3.528a2.729,2.729,0,0,1-2.728,2.723h-34.3a2.961,2.961,0,0,1-2.881-3.01v-2.723a4.979,4.979,0,0,1,.025-.527q0-.043,0-.086a9.223,9.223,0,0,1,.951-3.156l8.4-14.927a2.343,2.343,0,0,1,.27-.383V495.581h-4.147a1.119,1.119,0,0,1-1.125-1.1l-6.239-251.665q0-.023,0-.047V178.346a129.3,129.3,0,0,1-7.331,16.877c-2.577,4.828-5.141,8.527-7.416,10.694a10.478,10.478,0,0,1-10.263,2.628c-21.59-6.745-44.071-26.4-48.479-30.9a2.749,2.749,0,0,1-.776-2,2.828,2.828,0,0,1,.934-1.986q.179-.158.351-.318c-3.359-3.279-4.621-3.481-4.852-3.486-3.633-.073-10.665-.6-14.067-1.688-1.717-.551-3.019-.866-4.169-1.126a13.829,13.829,0,0,1-2.723-.849,2.985,2.985,0,0,0-1.024-.287l-4.969-.5a7.053,7.053,0,0,1-3.1-1.187L9.684,161.63a58.837,58.837,0,0,1-8.665-5.993l-.1-.1a3.51,3.51,0,0,1-.85-2.9,2.932,2.932,0,0,1,1.745-1.919,3.472,3.472,0,0,1,1.474-1.418,4.458,4.458,0,0,1,3.511-.056,44.2,44.2,0,0,1,8.153,3.686l1.62-.062a3.832,3.832,0,0,1,3.646.366l.387-.031h.007c.679-.055,1.7-.137,2.824-.216-1.667-.924-3.823-2.725-4.417-4.76a3.131,3.131,0,0,1,.27-2.588,2.849,2.849,0,0,1,2.626-1.32,11.78,11.78,0,0,1,4.947,1.55c.618.338,1.82.947,2.617,1.351a6.016,6.016,0,0,0,1.4.49l2.774.563c.7,0,6.992.045,10.87,1.6a11.584,11.584,0,0,1,5.295,3.938,8.832,8.832,0,0,0,1.637,1.863,19.947,19.947,0,0,1,3.91,4.226c.248.38.5.774.754,1.17q.044-.188.084-.377a2.848,2.848,0,0,1,3.691-2.093c3.247,1.111,8.16,2.865,13.126,4.916A73.652,73.652,0,0,1,86.454,170.3c3.068-13.8,12.306-41.826,12.378-42.014,1.026-3.072,1.89-5.753,2.653-8.118l.026-.08.154-.474c2.733-8.429,4.238-13.072,7.4-17.717a30.418,30.418,0,0,1,9.189-8.8,31.273,31.273,0,0,1,8.575-3.7l16.657-4.569.049-.017.445-.13c2.026-.563,3.815-1.075,5.25-1.463l1.362-.377V64.555a40.8,40.8,0,0,1-6.437-10.928c-.037-.092-.076-.183-.113-.271-.082-.2-.167-.4-.247-.623l-.209-.552-.029-.077a10.128,10.128,0,0,1-1.265.1l-.188,0a8.61,8.61,0,0,1-7.233-3.941,9.658,9.658,0,0,1-1.435-7.877,6.419,6.419,0,0,1,3.308-4.141,6.171,6.171,0,0,1,.85-.338,6.628,6.628,0,0,1,1.992-.306q.258,0,.515.02c-.348-5.377-.309-15.753,4.144-22.986A25.421,25.421,0,0,1,156.353,2.239,31.365,31.365,0,0,1,168.152,0c.192,0,.388,0,.58.005s.384-.005.576-.005a31.227,31.227,0,0,1,11.761,2.239A25.432,25.432,0,0,1,193.18,12.631c4.453,7.226,4.492,17.605,4.144,22.985q.252-.019.505-.019a6.549,6.549,0,0,1,2.851.643,6.447,6.447,0,0,1,3.3,4.141,9.659,9.659,0,0,1-1.435,7.877,8.612,8.612,0,0,1-7.233,3.941l-.189,0a10.149,10.149,0,0,1-1.254-.081l-.237.632c-.108.286-.228.576-.344.856l-.016.038a40.679,40.679,0,0,1-6.42,10.9V82.824c.5.14,1.068.294,1.693.466,1.385.377,3.056.833,4.935,1.378a1.377,1.377,0,0,1,.382.112,1.122,1.122,0,0,1,.169.065L210.622,89.4a31.27,31.27,0,0,1,15.653,9.768,30.1,30.1,0,0,1,2.082,2.729c2.783,4.095,4.4,9.6,6.634,17.211,1.086,3.689,2.316,7.869,3.888,12.6l.029.082c1.551,4.426,9.42,27.084,12.04,38.518,6.9-4.847,22.523-10.33,27.148-11.895a2.29,2.29,0,0,1,2.981,1.691l.1-.16a19.937,19.937,0,0,1,3.938-4.226,9.014,9.014,0,0,0,1.632-1.863,11.306,11.306,0,0,1,5.3-3.938c3.873-1.559,10.166-1.6,10.871-1.6l2.774-.563a5.774,5.774,0,0,0,1.4-.5c.864-.432,2-1.014,2.605-1.339a11.839,11.839,0,0,1,4.959-1.542,2.858,2.858,0,0,1,2.626,1.305,3.178,3.178,0,0,1,.27,2.594c-.589,2.027-2.751,3.828-4.422,4.755,1.14.079,2.175.163,2.86.218l.364.029a3.818,3.818,0,0,1,3.64-.366l1.626.062a44.171,44.171,0,0,1,8.153-3.686,4.425,4.425,0,0,1,3.511.056,3.509,3.509,0,0,1,1.474,1.418,2.938,2.938,0,0,1,1.738,1.919,3.446,3.446,0,0,1-.85,2.9l-.1.1a59.213,59.213,0,0,1-8.716,5.964l-4.4,2.577a7.113,7.113,0,0,1-3.095,1.181l-4.974.5a2.968,2.968,0,0,0-1.029.293,13.96,13.96,0,0,1-2.712.844l-.162.04c-1.042.261-2.339.587-4.007,1.085-3.352,1.054-10.249,1.587-14.067,1.688-.3,0-1.465.236-4.445,3.083.288.279.576.54.856.788a2.727,2.727,0,0,1,.9,1.93,2.777,2.777,0,0,1-.782,2.009c-5.214,5.338-25.089,22.412-47.263,30.569a10.414,10.414,0,0,1-3.61.635,12.667,12.667,0,0,1-8.921-3.926,43.409,43.409,0,0,1-6.892-10.237,128.021,128.021,0,0,1-6.837-16.242v64.077a1.11,1.11,0,0,1,.034.279L213.419,494.5a1.121,1.121,0,0,1-1.125,1.086H209.05l-.025,14.234a2.334,2.334,0,0,1,.263.379l8.389,14.91a9.117,9.117,0,0,1,.937,3.007q.012.054.019.11a4.609,4.609,0,0,1,.039.658v2.729a2.959,2.959,0,0,1-2.892,3.01Zm-.479-2.729a.479.479,0,0,0,.479.478h34.289a.7.7,0,0,0,.63-.76v-2.121h-35.4Zm-54.916-.281a.7.7,0,0,0,.63.76h34.289a.479.479,0,0,0,.479-.478v-2.4H126.1Zm9.093-20.289L126.8,526.24a5.509,5.509,0,0,0-.416,1h34.885a6.179,6.179,0,0,0-.361-.726L153.2,512.039a3.189,3.189,0,0,1-.185-.411,1.8,1.8,0,0,0-.473-.754H152.5c-.076-.041-.222-.1-.411-.18a22.142,22.142,0,0,0-16.024.253l-.332.124c-.052.015-.1.033-.15.052l-.024.01-.01,0-.018.008-.039.015a2.06,2.06,0,0,0-.242.12l-.048.027A.066.066,0,0,0,135.192,511.319Zm80.933,15.918a6.559,6.559,0,0,0-.416-1.035L207.32,511.29h0l-.028-.016a2.229,2.229,0,0,0-.321-.152l-.191-.067-.343-.13a22.156,22.156,0,0,0-16.019-.248c-.22.088-.352.151-.411.18q-.04.035-.083.067a1.762,1.762,0,0,0-.424.7c-.076.184-.135.314-.191.422l-7.7,14.449a6.393,6.393,0,0,0-.371.743Zm-80.382-18.612a24.5,24.5,0,0,1,15.9-.483q.247.076.494.157v-12.7h-16.39Zm71.025,0v-13.03H190.355v12.7a23.676,23.676,0,0,1,6.134-1.2q.809-.053,1.625-.053A24.394,24.394,0,0,1,206.768,508.622ZM184.222,493.33h26.946l1.856-229.82-13.165-12.626a.563.563,0,0,1,.776-.81l12.4,11.883.146-18.061H174.449v17.836a1.412,1.412,0,0,1-1.412,1.412h-5.751a1.125,1.125,0,1,1,0-2.25H172.2v-17H124.282l.445,17.916L135.743,250.1a.563.563,0,1,1,.794.8l-11.771,12.5,5.456,219.876H144.1a.563.563,0,0,1,0,1.125H130.25l.222,8.935h26.946l10.691-211.274a1.125,1.125,0,0,1,1.124-1.069h0a1.128,1.128,0,0,1,1.124,1.052l13.2,201.231h26.514a.563.563,0,0,1,0,1.125h-26.44ZM124.259,171.414l-.017,70.232h88.94V171.465a336.411,336.411,0,0,1,.467-42.965,1.13,1.13,0,0,1,2.25.2,331.7,331.7,0,0,0-.46,42.573c4.885,15.55,10.327,26.919,15.332,32.025a10.33,10.33,0,0,0,7.3,3.253,8.131,8.131,0,0,0,2.829-.5c21.777-8.026,41.285-24.794,46.4-30.035a.491.491,0,0,0,.141-.354.469.469,0,0,0-.152-.326c-.689-.65-1.234-1.186-1.716-1.688a27.013,27.013,0,0,1-6.043-10.415,24.582,24.582,0,0,1-.67-2.7l-.051-.034c-4.8,1.622-20.137,7-26.618,11.63a1.128,1.128,0,0,1-.226.2c-.008,0-.225.146-.573.4q-.228.183-.434.364a1.122,1.122,0,0,1-.291.185,23.006,23.006,0,0,0-3.861,3.686,1.126,1.126,0,1,1-1.784-1.373,23.947,23.947,0,0,1,3.944-3.833c-.745-3.45-2.545-10.236-6.846-23.421-2.861-8.772-5.37-15.907-5.386-15.947-1.213-3.642-2.223-7-3.113-9.962v0l-.007-.024c-.284-.943-.551-1.833-.817-2.705l-.009-.03c-2.185-7.416-3.765-12.775-6.332-16.551a29.556,29.556,0,0,0-1.93-2.538,29.06,29.06,0,0,0-14.539-9.053L194.06,87.159c-1.908,2.781-5.109,5.127-9.325,6.816a1.126,1.126,0,1,1-.839-2.088,18.784,18.784,0,0,0,7.839-5.366l-5.353-1.468c-1.654,2.531-7.423,4.893-17.644,4.893h-.006l-.462,0h-.4a48.741,48.741,0,0,1-7.385-.614l-.034-.006-.018,0a26.87,26.87,0,0,1-4.73-1.2q-.18-.066-.353-.133a13.712,13.712,0,0,1-2.257-1.1,6.338,6.338,0,0,1-2.01-1.827l-1.242.337c-1.031.282-2.237.613-3.583.976l-.551.151c3.894,4.905,12.682,8,23.012,8a45.557,45.557,0,0,0,10.1-1.086,1.125,1.125,0,0,1,.5,2.194A48,48,0,0,1,168.7,96.794c-11.492,0-21.3-3.758-25.346-9.634L127.4,91.528a29.013,29.013,0,0,0-14.561,9.053,28.279,28.279,0,0,0-1.93,2.532c-3.056,4.528-4.468,8.9-7.28,17.622l-.129.4c-.737,2.285-1.571,4.876-2.55,7.816-.019.056-2.557,7.728-5.419,17.045-4.393,14.3-6.288,21.851-7.1,25.759a27.191,27.191,0,0,1,5.077,4.69,1.125,1.125,0,1,1-1.784,1.373,26.83,26.83,0,0,0-5.156-4.624,1.118,1.118,0,0,1-.127-.1c-5.828-5.107-25.094-11.65-27.272-12.379a.568.568,0,0,0-.188-.032.593.593,0,0,0-.572.465,25.642,25.642,0,0,1-.85,3.033,26.693,26.693,0,0,1-6.189,9.942c-.437.45-.84.836-1.232,1.181a.562.562,0,0,0-.186.388.488.488,0,0,0,.135.349C55.9,182,77.969,200.236,97.623,206.373a8.23,8.23,0,0,0,8.091-2.144c5.85-5.543,12.368-20.474,16.27-32.906q0-.03.008-.06c2.121-13.363,2.729-35.921,1.48-54.848a1.128,1.128,0,0,1,2.251-.146c1.252,18.96.648,41.562-1.464,55.106Q124.259,171.394,124.259,171.414Zm-73.72.293a24.4,24.4,0,0,0,4.693-7.776l-.209-.332-.1-.154c-.48-.757-.976-1.539-1.46-2.282a17.8,17.8,0,0,0-3.422-3.688,11.725,11.725,0,0,0-5.789-1.246.569.569,0,0,1-.169-1.125,10.947,10.947,0,0,1,4.223.533q-.189-.253-.363-.516a8.989,8.989,0,0,0-4.277-3.129c-3.475-1.4-9.429-1.44-10.1-1.44h-.031a.854.854,0,0,1-.242,0l-2.892-.619a8.128,8.128,0,0,1-1.941-.681c-.527-.263-1.931-.976-2.673-1.378a9.53,9.53,0,0,0-3.867-1.281c-.372,0-.618.083-.712.24a.89.89,0,0,0-.039.782c.357,1.194,1.993,2.783,3.725,3.618a17.618,17.618,0,0,0,4.486,1.427,8.105,8.105,0,0,1,2.829-.949,1.137,1.137,0,0,1,.332,2.25,5.164,5.164,0,0,0-2.054.7,1.31,1.31,0,0,1-.812.328,1.085,1.085,0,0,1-.134-.008c-.089-.009-.225-.013-.4-.013-1.177,0-4.1.191-6.679.384,1.1,1.286,2.36,2.94,3.3,4.226,1.9.287,4.124.878,4.225.906a1.125,1.125,0,0,1-.287,2.211v.022a1,1,0,0,1-.287-.04A42.2,42.2,0,0,0,25,161.765a1.124,1.124,0,0,1-.771-.456,55.582,55.582,0,0,0-4.711-5.842,1.12,1.12,0,0,1-.234-.128,2.355,2.355,0,0,0-1.3-.5,1.23,1.23,0,0,0-.155.01,3.192,3.192,0,0,0,.776,1.827c.506.686.934,1.4,1.384,2.149a19.248,19.248,0,0,0,4.309,5.385,13.1,13.1,0,0,0,2.139.636c1.127.277,2.481.619,4.3,1.188,3.3,1.038,10.471,1.5,13.431,1.564a2.893,2.893,0,0,1,.379.025,5.836,5.836,0,0,0,2.963-.785.564.564,0,1,1,.664.911,4.9,4.9,0,0,1-1.575.705A23.925,23.925,0,0,1,50.539,171.707Zm231.3-8.648a24.7,24.7,0,0,0,4.614,8.2,21.272,21.272,0,0,1,3.472-2.8,4.707,4.707,0,0,1-1.542-.7.563.563,0,0,1,.658-.912,5.862,5.862,0,0,0,2.932.78,3.223,3.223,0,0,1,.382-.032c2.958-.062,10.134-.526,13.431-1.564,1.765-.545,3.091-.886,4.3-1.188a13.127,13.127,0,0,0,2.169-.642,19.286,19.286,0,0,0,4.308-5.378c.45-.754.872-1.463,1.378-2.149a3.073,3.073,0,0,0,.777-1.884,1.27,1.27,0,0,0-.172-.011,2.191,2.191,0,0,0-1.1.359,1.125,1.125,0,0,1-.32.264,50.344,50.344,0,0,0-4.805,5.925,1.127,1.127,0,0,1-.771.456,43.285,43.285,0,0,0-4.417.911,1.01,1.01,0,0,1-.287.017,1.125,1.125,0,0,1-.293-2.211c.1,0,2.335-.619,4.226-.906.961-1.308,2.25-3.011,3.363-4.31-2.5-.192-5.438-.388-6.7-.388-.171,0-.306,0-.4.011a1.126,1.126,0,0,1-.194.017v.023a1.127,1.127,0,0,1-.782-.321,5.126,5.126,0,0,0-2.054-.692,1.138,1.138,0,1,1,.332-2.251,8.232,8.232,0,0,1,2.775.915,17.57,17.57,0,0,0,4.506-1.433c1.736-.835,3.375-2.424,3.73-3.618a.891.891,0,0,0-.033-.782c-.1-.156-.345-.24-.718-.24a9.467,9.467,0,0,0-3.874,1.286c-.547.3-1.417.738-2.052,1.061l0,0c-.27.137-.483.246-.606.31a8.332,8.332,0,0,1-1.941.681l-2.892.619a.95.95,0,0,1-.248,0c-.265,0-6.535.016-10.128,1.44a9.092,9.092,0,0,0-4.282,3.129q-.2.307-.425.6a10.6,10.6,0,0,1,4.318-.56.569.569,0,0,1-.174,1.125,12.1,12.1,0,0,0-6.007,1.351,17.921,17.921,0,0,0-3.232,3.527c-.385.665-.8,1.3-1.193,1.914l-.024.037,0,.007Zm-266.606-.788a5.015,5.015,0,0,0,2.183.884l3,.3a21.474,21.474,0,0,1-2.151-3.091,46.664,46.664,0,0,1-4.5-2.084l-.135-.084c-.051-.034-1.176-.844-3.8-2.915-1.525-1.2-2.543-1.435-2.948-1.277a1.038,1.038,0,0,0-.056.743s.558,1.775,4.488,5.226Zm300.9,1.184,2.987-.3a4.992,4.992,0,0,0,2.178-.883l4-2.342c3.924-3.428,4.451-5.176,4.456-5.193a.975.975,0,0,0-.079-.754c-.388-.146-1.407.09-2.926,1.288-2.633,2.071-3.758,2.881-3.8,2.915l-.141.084a46.062,46.062,0,0,1-4.525,2.1A21.367,21.367,0,0,1,316.128,163.455Zm4.285-6.493q.647-.317,1.284-.656c.27-.2,1.412-1.041,3.652-2.813l.207-.16q-1.568.759-3.066,1.652a1.125,1.125,0,0,1-.6.175h-.049l-.877-.033A4.767,4.767,0,0,1,320.413,156.962Zm-305.535-.644q.622.331,1.255.642a4.818,4.818,0,0,1-.544-1.773l-.891.033h-.045a1.127,1.127,0,0,1-.6-.175q-1.374-.819-2.813-1.528C13.477,155.27,14.6,156.111,14.878,156.318ZM4.8,155.753a2.962,2.962,0,0,1-.186-.594,3.494,3.494,0,0,1,.115-1.854q-.884-.335-1.789-.61c-.547.22-.656.437-.678.523a1.31,1.31,0,0,0,.321.788H2.573Q3.663,154.905,4.8,155.753Zm327.16-.605a3.055,3.055,0,0,1-.177.564q1.109-.828,2.174-1.706a1.266,1.266,0,0,0,.315-.821c-.03-.119-.215-.307-.639-.5q-.909.274-1.8.61A3.446,3.446,0,0,1,331.96,155.148ZM6.3,151.818a2.917,2.917,0,0,1,.644-.12q-.429-.153-.861-.3a3.564,3.564,0,0,0-1.087-.2,2.052,2.052,0,0,0-.252.015Q5.525,151.5,6.3,151.818Zm323.974-.012q.808-.337,1.635-.627a1.875,1.875,0,0,0-.362-.033,3.531,3.531,0,0,0-1.079.2q-.5.164-.987.34A3.031,3.031,0,0,1,330.27,151.806ZM168.727,87.7c1.344,0,2.622-.049,3.826-.138a29.331,29.331,0,0,0,10.03-2.227c1.235-.6,1.941-1.236,2.029-1.8V67a28.1,28.1,0,0,1-4.2,3.386,20.8,20.8,0,0,1-7.382,3.114,17.313,17.313,0,0,1-3.675.431h-1.27a17.835,17.835,0,0,1-3.611-.419,20.782,20.782,0,0,1-7.447-3.137,28.3,28.3,0,0,1-4.175-3.364l-.012,16.474V83.5q.006.03.011.06l0,.02c.211.978,2.256,2.161,5.674,3.007A43.274,43.274,0,0,0,168.727,87.7ZM158.25,68.47a18.472,18.472,0,0,0,9.9,3.19h1.125a18.472,18.472,0,0,0,9.864-3.19,26.1,26.1,0,0,0,4.558-3.832c.372-.389.756-.817,1.176-1.311a1.129,1.129,0,0,1,.162-.157,38.3,38.3,0,0,0,6.134-10.393c.125-.3.235-.576.338-.85l.1-.264c.1-.256.218-.574.317-.861l.141-.377c.363-1.007.731-2.122,1.125-3.41a46.247,46.247,0,0,0,1.57-8.226,2.262,2.262,0,0,1,.022-.276c.007-.052.013-.105.017-.157a.339.339,0,0,1,0-.078c0-.02.064-.49.135-1.238h.743l-.726-.062c0-.011,0-.022,0-.032h-.017v-.067a59.389,59.389,0,0,0,.028-10.02c-.469-5.442-1.725-9.851-3.731-13.106A23.21,23.21,0,0,0,180.084,4.23,29.1,29.1,0,0,0,169.22,2.19c-.166,0-.334,0-.5,0l-.506.051a31.245,31.245,0,0,0-5.039.4,27.066,27.066,0,0,0-5.87,1.638,23.212,23.212,0,0,0-11.153,9.52c-2.006,3.255-3.262,7.664-3.731,13.106a59.426,59.426,0,0,0,.011,9.819,1.135,1.135,0,0,1,.035.274l.034.332c.041.411.078.7.1.844.007.051.01.08.01.085a1.2,1.2,0,0,1,0,.135,2.555,2.555,0,0,0,.034.354c.072.644.14,1.252.225,1.846v.039a43.293,43.293,0,0,0,1.345,6.381c.326,1.093.694,2.212,1.125,3.421a1.125,1.125,0,0,1,.041.145c.159.43.332.883.522,1.324.051.131.1.256.15.376.067.163.129.316.193.485a38.534,38.534,0,0,0,6.335,10.64l.138.16c.286.326.56.631.83.922l.157.163a25.775,25.775,0,0,0,4.546,3.815Zm36.985-18.494a6.5,6.5,0,0,0,5.435-2.938,7.452,7.452,0,0,0,1.125-6,4.2,4.2,0,0,0-2.11-2.723,4.578,4.578,0,0,0-.72-.27,4.17,4.17,0,0,0-1.822-.1c-.023.205-.042.368-.056.488v0c-.008.066-.014.117-.018.153l-.051.472a48.377,48.377,0,0,1-1.173,6.853,2.464,2.464,0,0,0,1.926-1.063A2.5,2.5,0,0,0,198,42.3a.562.562,0,1,1,.945-.608,3.652,3.652,0,0,1-3.2,5.351v-.017q-.093.006-.186.007-.09.332-.185.663c-.224.742-.465,1.5-.721,2.253C194.841,49.967,195.038,49.976,195.234,49.976Zm-55.709-12.1a4.132,4.132,0,0,0-1.245.191,4.01,4.01,0,0,0-.563.225,4.187,4.187,0,0,0-2.121,2.729,7.451,7.451,0,0,0,1.154,6,6.5,6.5,0,0,0,5.435,2.937c.2,0,.393-.009.588-.027-.114-.338-.222-.664-.324-.981l-.044-.138c-.113-.36-.23-.731-.344-1.1q-.1-.345-.2-.691a2.846,2.846,0,0,1-.306.01,3.652,3.652,0,0,1-3.2-5.351.563.563,0,1,1,.945.608,2.5,2.5,0,0,0,.225,2.549,2.459,2.459,0,0,0,2.045,1.063,46.5,46.5,0,0,1-1.02-5.547l0-.012c-.05-.417-.1-.847-.145-1.277a2.285,2.285,0,0,0-.024-.283c-.008-.062-.017-.127-.021-.19s-.018-.162-.036-.3c-.013-.1-.029-.221-.046-.367a4.283,4.283,0,0,0-.646-.049Zm63.327,485.048a.568.568,0,0,1-.265-.067l-4.179-2.207-4.182,2.207a.563.563,0,1,1-.523-1l3.5-1.848-3.5-1.848a.563.563,0,0,1,.089-1.043l3.412-1.8-3.5-1.851a.562.562,0,0,1,.523-1l4.182,2.21,4.179-2.21a.564.564,0,1,1,.529,1l-3.5,1.851,3.5,1.851.041.024a.564.564,0,0,1-.041.972l-3.5,1.848,3.5,1.848a.563.563,0,0,1-.257,1.063Zm-4.444-3.549,3.237-1.71-3.237-1.712-3.239,1.712Zm-59.3,3.122a.562.562,0,0,1,.29-.636l3.5-1.848-3.5-1.848a.564.564,0,0,1-.035-.976l.029-.017.006,0,3.5-1.851-3.5-1.851a.564.564,0,1,1,.529-1l4.179,2.21,4.182-2.21a.562.562,0,0,1,.523,1l-3.5,1.851,3.412,1.8a.562.562,0,0,1,.089,1.043l-3.5,1.848,3.5,1.848a.563.563,0,1,1-.523,1l-4.182-2.208-4.179,2.208a.568.568,0,0,1-.264.067h-.008A.563.563,0,0,1,139.105,522.494Zm5-3.122,3.239-1.71L144.1,515.95l-3.237,1.712Zm4.643-34.977a.563.563,0,0,1,0-1.125h6.482a.563.563,0,0,1,0,1.125Zm-4.209-119.374a15.426,15.426,0,0,1-5.706-1.356.563.563,0,1,1,.473-1.018c.056,0,5.824,2.65,8.254.231.259-.265.675-.754.563-1.126s-.647-.652-1.311-.76a.569.569,0,1,1,.174-1.125,2.667,2.667,0,0,1,2.211,1.519,2.163,2.163,0,0,1-.833,2.251,5.228,5.228,0,0,1-3.551,1.391Q144.676,365.028,144.538,365.021Zm50.983,0a15.426,15.426,0,0,1-5.706-1.356.563.563,0,1,1,.473-1.018c.062,0,5.823,2.65,8.254.225.259-.253.681-.749.563-1.126a1.65,1.65,0,0,0-1.317-.76.569.569,0,0,1,.174-1.125,2.668,2.668,0,0,1,2.211,1.519,2.142,2.142,0,0,1-.833,2.251,5.226,5.226,0,0,1-3.556,1.4Q195.653,365.027,195.521,365.021ZM168.17,252.4v-4.456a.563.563,0,0,1,1.125,0V252.4a.563.563,0,1,1-1.125,0Zm71.171-48.012h-.051c-.163,0-4.04-.388-5.126-2.751a.564.564,0,1,1,1.024-.473c.676,1.474,3.264,2.014,4.2,2.1a.561.561,0,0,1-.049,1.12ZM99.229,202.639a.563.563,0,0,1,.537-.588c.945-.085,3.534-.63,4.209-2.1a.563.563,0,1,1,1.024.467c-1.086,2.368-4.968,2.74-5.131,2.751l-.051.006h-.026A.563.563,0,0,1,99.229,202.639ZM299.647,156.7a.563.563,0,0,1,.371-1.063c2.082.737,6.752.647,6.814.642a.563.563,0,1,1,0,1.125l-.585.006A24.856,24.856,0,0,1,299.647,156.7ZM29.715,157.4a.563.563,0,0,1,0-1.125c.045,0,4.732.1,6.808-.642A.564.564,0,1,1,36.9,156.7a25.041,25.041,0,0,1-6.583.7Zm128.607-12.609a.563.563,0,0,1-.427-.2l-6.977-8.2a.565.565,0,0,1,.861-.731l6.977,8.209a.563.563,0,0,1-.427.928Zm-5.1-.315-3.731-4.389a.563.563,0,1,1,.855-.726l3.731,4.383a.563.563,0,1,1-.855.732Zm4.231-5.784-1.716-2.02a.563.563,0,0,1,.855-.732l1.722,2.026a.563.563,0,1,1-.861.726Zm57.735-14.461a1.125,1.125,0,0,1-.979-1.255c.394-3.218.855-6.06,1.373-8.44a1.125,1.125,0,1,1,2.2.472c-.5,2.324-.951,5.1-1.339,8.254a1.125,1.125,0,0,1-1.114.968ZM92.2,102.826a.562.562,0,0,1-.433-.669c3.781-17.735,17.865-23.137,18.005-23.193a.564.564,0,1,1,.393,1.058c-.135.051-13.65,5.261-17.3,22.372a.562.562,0,0,1-.546.433.42.42,0,0,1-.118,0Zm150.366-.444a32.234,32.234,0,0,0-10.027-17.668,25.94,25.94,0,0,0-7.275-4.7.564.564,0,1,1,.394-1.058c.141.056,14.224,5.458,18.005,23.193a.562.562,0,0,1-.433.669.4.4,0,0,1-.1.011h-.013A.562.562,0,0,1,242.57,102.382Zm-124.855.039a.562.562,0,0,1-.214-.765,12.581,12.581,0,0,1,5.357-4.406.564.564,0,0,1,.5,1.013,11.847,11.847,0,0,0-4.873,3.939.556.556,0,0,1-.766.219ZM245.294,89.53c-2-5.5-7.157-9.256-7.214-9.3a.563.563,0,0,1,.658-.912c.225.157,5.486,3.984,7.608,9.824a.563.563,0,0,1-.332.72.592.592,0,0,1-.2.034A.562.562,0,0,1,245.294,89.53ZM89.47,89.868a.562.562,0,0,1-.332-.72c2.121-5.84,7.382-9.667,7.607-9.824a.563.563,0,1,1,.658.912c-.056.039-5.2,3.792-7.208,9.3a.562.562,0,0,1-.529.371A.592.592,0,0,1,89.47,89.868Z" transform="translate(0)" fill="#353a46"/>
          </g>
          <g id="Chin" transform="translate(149.123 59.151)">
            <rect id="_01_Character_Setup_03_Face_Man_Chin_background" data-name="#01 Character/Setup/#03 Face/Man Chin background" width="39.386" height="5.627" fill="none"/>
            <g id="Group_2" data-name="Group 2" transform="translate(15.663 2.083)">
              <path id="Path-4" data-name="Path" d="M7.036,2.245a.563.563,0,0,1-.416-.18,4.046,4.046,0,0,0-2.813-.94,4.147,4.147,0,0,0-2.813.9.563.563,0,1,1-.8-.788,5.829,5.829,0,0,1,7.253.056.563.563,0,0,1-.411.951Z" transform="translate(0 0)" fill="#372168"/>
            </g>
          </g>
          <g id="Cheeks_color:" data-name="Cheeks color:" transform="translate(147.435 42.271)">
            <rect id="_01_Character_Setup_03_Face_Cheek_Ñheek_01_background" data-name="#01 Character/Setup/#03 Face/Cheek/Ñheek#01 background" width="41.637" height="11.816" fill="none"/>
            <path id="Cheeks_color:-2" data-name="Cheeks color:" d="M30.384,5.627a5.627,5.627,0,1,1,5.627,5.627A5.627,5.627,0,0,1,30.384,5.627ZM0,5.627a5.627,5.627,0,1,1,5.627,5.627A5.627,5.627,0,0,1,0,5.627Z" transform="translate(0 -0.4)" fill="#ff1300" opacity="0.15" style="mix-blend-mode: multiply;isolation: isolate"/>
          </g>
          <g id="Emotions" transform="translate(148.561 28.486)">
            <rect id="_01_Character_Setup_01_Emotions_kind_background" data-name="#01 Character/Setup/#01 Emotions/kind background" width="39.386" height="31.509" fill="none"/>
            <g id="Face">
              <g id="Mouth" transform="translate(0 20.256)">
                <rect id="_01_Character_Setup_03_Face_Mouth_nose_background" data-name="#01 Character/Setup/#03 Face/Mouth/nose background" width="39.386" height="11.253" fill="none"/>
                <g id="mouth-2" data-name="mouth" transform="translate(16.317 2.155)">
                  <path id="Path-5" data-name="Path" d="M5.486,1.969H.985A.985.985,0,1,1,.985,0h4.5a.985.985,0,1,1,0,1.969Z" transform="translate(0 0)" fill="#353a46"/>
                </g>
              </g>
              <g id="Nose" transform="translate(0 14.067)">
                <rect id="_01_Character_Setup_03_Face_Nose_background" data-name="#01 Character/Setup/#03 Face/Nose background" width="39.386" height="4.501" fill="none"/>
                <g id="_Nose" data-name="ðŸ‘ƒNose" transform="translate(16.442 1.211)">
                  <path id="Path-6" data-name="Path" d="M3.236,3.17a3.669,3.669,0,0,1-3.078-1.6A.985.985,0,0,1,1.812.5a1.789,1.789,0,0,0,1.436.7A1.789,1.789,0,0,0,4.67.475.987.987,0,0,1,6.358,1.5,3.635,3.635,0,0,1,3.236,3.17Z" transform="translate(0)" fill="#353a46"/>
                </g>
              </g>
              <g id="Eyes" transform="translate(0 6.752)">
                <rect id="_01_Character_Setup_03_Face_Eyes_eyes-8_background" data-name="#01 Character/Setup/#03 Face/Eyes/eyes-8 background" width="39.386" height="5.627" fill="none"/>
                <g id="silly_eyes" transform="translate(6.47 1.041)">
                  <path id="Path-7" data-name="Path" d="M1.878,3.882c2.5,0,2.5-3.882,0-3.882A1.942,1.942,0,0,0,1.878,3.882Z" transform="translate(0)" fill="#353a46"/>
                  <path id="Path-8" data-name="Path" d="M1.876,3.882c2.493,0,2.5-3.882,0-3.882S-.628,3.882,1.876,3.882Z" transform="translate(23.054)" fill="#353a46"/>
                </g>
              </g>
              <g id="Eyebrows">
                <rect id="_01_Character_Setup_03_Face_Eyebrow_wink_eyebrows_background" data-name="#01 Character/Setup/#03 Face/Eyebrow/wink_eyebrows background" width="39.386" height="6.752" fill="none"/>
                <g id="kiss_eyebrows" transform="translate(2.047 0.939)">
                  <path id="Path-9" data-name="Path" d="M1.126,4.806A1.125,1.125,0,0,1,.4,2.82,12.893,12.893,0,0,1,11.209.361a1.125,1.125,0,1,1-.563,2.178,10.7,10.7,0,0,0-8.806,2,1.125,1.125,0,0,1-.715.264Z" transform="translate(0 0)" fill="#353a46"/>
                  <path id="Path-10" data-name="Path" d="M11.156,3.4a1.125,1.125,0,0,1-.512-.124,10.588,10.588,0,0,0-9,0,1.126,1.126,0,0,1-1.03-2c.231-.118,5.627-2.813,11.09,0A1.125,1.125,0,0,1,11.184,3.4Z" transform="translate(23.275 1.402)" fill="#353a46"/>
                </g>
              </g>
            </g>
          </g>
        </g>
        <g id="_01_Character_Setup_02_Hairstyle_Man_Hairstyle_01" data-name="#01 Character/Setup/#02 Hairstyle/Man/Hairstyle#01" transform="translate(135.055 0)">
          <g id="_1_hairdo" transform="translate(0)">
            <g id="Hair_color:" data-name="Hair color:" transform="translate(1.228 1.093)">
              <path id="Hair_color:-2" data-name="Hair color:" d="M65.492,34.36c0,4.957-1.776,11.071-2.535,14.168a5.62,5.62,0,0,0-3.22.09L58.613,40.48A19.563,19.563,0,0,0,45.9,24.745c-.562-.191-.86-.281-.86-.281-4.5-1.034-11.453,7.244-20.648,6.884-5.176-.2-10.5-4.131-10.5-4.131-.225.225-.444.45-.652.674a29.134,29.134,0,0,0-7.6,16.388L5.072,48.6A5.569,5.569,0,0,0,1.7,48.556c-.646-3.962-2.411-7.621-1.388-16.3A19.392,19.392,0,0,1,5.966,21.367a2.613,2.613,0,0,0,.517-2.934C2.1,8.576,11.664,2.405,11.664,2.405c1.028,2.754,2.748,3.372,2.748,3.372C14.733.9,19.577,0,19.577,0a10.73,10.73,0,0,0,8.087,5.777A11.144,11.144,0,0,0,32.8,5.39a16.3,16.3,0,0,1,9.9,0c5.665,1.905,7.795,5.311,8.548,7.1a3.372,3.372,0,0,0,1.725,1.748C62.193,18.546,65.492,26.166,65.492,34.36Z" transform="translate(0 0)" fill="#92645c"/>
              <path id="Hair_color:-3" data-name="Hair color:" d="M65.492,34.36c0,4.957-1.776,11.071-2.535,14.168a5.62,5.62,0,0,0-3.22.09L58.613,40.48A19.563,19.563,0,0,0,45.9,24.745c-.562-.191-.86-.281-.86-.281-4.5-1.034-11.453,7.244-20.648,6.884-5.176-.2-10.5-4.131-10.5-4.131-.225.225-.444.45-.652.674a29.134,29.134,0,0,0-7.6,16.388L5.072,48.6A5.569,5.569,0,0,0,1.7,48.556c-.646-3.962-2.411-7.621-1.388-16.3A19.392,19.392,0,0,1,5.966,21.367a2.613,2.613,0,0,0,.517-2.934C2.1,8.576,11.664,2.405,11.664,2.405c1.028,2.754,2.748,3.372,2.748,3.372C14.733.9,19.577,0,19.577,0a10.73,10.73,0,0,0,8.087,5.777A11.144,11.144,0,0,0,32.8,5.39a16.3,16.3,0,0,1,9.9,0c5.665,1.905,7.795,5.311,8.548,7.1a3.372,3.372,0,0,0,1.725,1.748C62.193,18.546,65.492,26.166,65.492,34.36Z" transform="translate(0 0)" fill="rgba(255,255,255,0.09)"/>
            </g>
            <path id="Combined_Shape-3" data-name="Combined Shape" d="M60.954,50.863a1.086,1.086,0,0,1-.591-.174,1.122,1.122,0,0,1-.511-.793l-1.174-8.166A18.377,18.377,0,0,0,46.7,26.922c-.277-.1-.534-.183-.762-.253l-.005,0-.014,0a2.418,2.418,0,0,0-.538-.057c-1.525,0-3.627,1.172-6.06,2.53l-.009.005C35.735,31.127,31.287,33.6,26.136,33.6c-.2,0-.411,0-.616-.012a17.324,17.324,0,0,1-6.108-1.53,28.466,28.466,0,0,1-4.2-2.258A28.226,28.226,0,0,0,7.907,45.535l-.562,4.322a1.125,1.125,0,0,1-1.45.927,4.458,4.458,0,0,0-2.72-.039,1.124,1.124,0,0,1-1.45-.888c-.129-.809-.313-1.613-.508-2.465l-.054-.233A35.643,35.643,0,0,1,.331,33.273c.709-6,4.761-10.369,5.986-11.566a1.473,1.473,0,0,0,.275-1.686,13.082,13.082,0,0,1-1.131-7.19A13.344,13.344,0,0,1,7.586,7.354,17.49,17.49,0,0,1,12.212,2.6a1.131,1.131,0,0,1,1.664.551,6.31,6.31,0,0,0,.967,1.742,7.678,7.678,0,0,1,5.7-4.873A1.142,1.142,0,0,1,20.754,0a1.12,1.12,0,0,1,1.04.7,7.709,7.709,0,0,0,1.6,2.235A9.75,9.75,0,0,0,25.614,4.6a11.331,11.331,0,0,0,3.43,1.2,10.235,10.235,0,0,0,1.528.115,10.177,10.177,0,0,0,3.075-.475,17.35,17.35,0,0,1,10.582,0c6.05,2.034,8.375,5.718,9.223,7.733a2.24,2.24,0,0,0,1.163,1.158c8.647,4.006,13.218,11.311,13.218,21.126,0,4.415-1.322,9.56-2.2,12.965-.08.332-.156.629-.23.917-.05.2-.1.379-.141.556a1.123,1.123,0,0,1-1.393.815,4.491,4.491,0,0,0-2.585.079,1.115,1.115,0,0,1-.321.078Zm2.393-2.5c.046-.181.085-.331.124-.472l.022-.086c.837-3.283,2.1-8.244,2.1-12.323,0-9-4.008-15.428-11.914-19.107a4.505,4.505,0,0,1-1.056-.661,31.093,31.093,0,0,0-6.443,8.744q.154.025.306.06a8.628,8.628,0,0,1,.983.315A20.613,20.613,0,0,1,60.926,41.416l.984,6.946.165-.017c.968-7.99.061-12.181-.586-13.993a.563.563,0,1,1,1.062-.376c.825,2.314,1.578,6.659.655,14.372ZM5.317,48.3l.394-3.1a30.122,30.122,0,0,1,7.9-17.023c.227-.239.454-.471.674-.691a1.124,1.124,0,0,1,1.461-.112,25.375,25.375,0,0,0,3.173,1.906,17.324,17.324,0,0,0,6.7,2.028c.192.008.386.012.58.012,4.519,0,8.516-2.225,12.043-4.188l.217-.118c2.431-1.315,4.555-2.464,6.509-2.623a32.672,32.672,0,0,1,6.883-9.516,4.516,4.516,0,0,1-.464-.826c-1.6-3.869-5.616-5.717-7.868-6.474a15.123,15.123,0,0,0-9.217,0,12.318,12.318,0,0,1-3.7.571,12.384,12.384,0,0,1-5.882-1.493,12.361,12.361,0,0,1-4.13-3.637c-.33,1.5-.146,3.9,2.955,6.385a.562.562,0,1,1-.7.877C19.267,7.429,19.1,4.542,19.525,2.719a5.092,5.092,0,0,0-2.805,4.218,1.132,1.132,0,0,1-.5.859,1.122,1.122,0,0,1-.987.124A5.462,5.462,0,0,1,12.611,5.57a11.81,11.81,0,0,0,3.8,13.27.555.555,0,1,1-.7.86A12.844,12.844,0,0,1,11.29,6.307a15.622,15.622,0,0,0-1.781,2.2,10.478,10.478,0,0,0-.82,10.571,3.744,3.744,0,0,1-.759,4.193A18.3,18.3,0,0,0,2.614,33.5a33.347,33.347,0,0,0,.781,13.117c.149.621.274,1.172.382,1.686h.01A43.875,43.875,0,0,1,5.5,32.637a.562.562,0,0,1,1.068.354A44.755,44.755,0,0,0,4.895,48.264C5.036,48.271,5.177,48.283,5.317,48.3ZM25.807,28.17a19.823,19.823,0,0,1-8.323-2.681.566.566,0,1,1,.562-.984,18.324,18.324,0,0,0,7.823,2.541A17.985,17.985,0,0,0,33.6,25.433a.562.562,0,1,1,.439,1.034,19.4,19.4,0,0,1-7.637,1.7ZM36.3,24.617a.562.562,0,0,1,.279-.628q1.124-.607,2.2-1.208l.073-.039a.564.564,0,0,1,.551.984l-.079.039c-.714.4-1.455.809-2.248,1.219a.628.628,0,0,1-.242.062A.562.562,0,0,1,36.3,24.617ZM16.064,19.83h0Zm-.013,0h.013Z" transform="translate(0)" fill="#353a46"/>
          </g>
        </g>
      </g>
    </g>
  </g>
</svg>
