<svg xmlns="http://www.w3.org/2000/svg" width="60.308" height="28.271" viewBox="0 0 60.308 28.271">
  <path id="Icon_metro-infinite" data-name="Icon metro-infinite" d="M48.743,38.393a14.042,14.042,0,0,1-9.994-4.14l-6.024-6.024L26.7,34.252a14.135,14.135,0,1,1,0-19.99l6.024,6.023,6.024-6.023a14.135,14.135,0,1,1,10,24.131ZM42.72,30.281a8.518,8.518,0,1,0,0-12.048L36.7,24.257l6.024,6.024ZM16.706,15.739a8.518,8.518,0,1,0,6.023,14.542l6.023-6.024-6.023-6.023A8.462,8.462,0,0,0,16.706,15.739Z" transform="translate(-2.571 -10.122)" fill="#f3c56d"/>
</svg>
