<svg xmlns="http://www.w3.org/2000/svg" width="43.009" height="34.407" viewBox="0 0 43.009 34.407">
  <path id="Icon_awesome-crown" data-name="Icon awesome-crown" d="M35.483,30.106H7.527a1.078,1.078,0,0,0-1.075,1.075v2.15a1.078,1.078,0,0,0,1.075,1.075H35.483a1.078,1.078,0,0,0,1.075-1.075v-2.15A1.078,1.078,0,0,0,35.483,30.106Zm4.3-21.5a3.227,3.227,0,0,0-3.226,3.226,3.16,3.16,0,0,0,.3,1.331l-4.865,2.917a2.148,2.148,0,0,1-2.97-.78L23.541,5.712a3.226,3.226,0,1,0-4.072,0L13.991,15.3a2.149,2.149,0,0,1-2.97.78L6.162,13.158a3.225,3.225,0,1,0-2.937,1.9A3.294,3.294,0,0,0,3.743,15L8.6,27.956H34.407L39.266,15a3.294,3.294,0,0,0,.517.054,3.226,3.226,0,0,0,0-6.451Z" fill="#707a90"/>
</svg>
