<svg xmlns="http://www.w3.org/2000/svg" xmlns:xlink="http://www.w3.org/1999/xlink" width="351" height="528" viewBox="0 0 351 528">
  <defs>
    <clipPath id="clip-path">
      <rect id="Rectangle_2133" data-name="Rectangle 2133" width="351" height="528" transform="translate(1339.531 3898.849)" fill="#fff" stroke="#707070" stroke-width="1"/>
    </clipPath>
  </defs>
  <g id="Mask_Group_29" data-name="Mask Group 29" transform="translate(-1339.531 -3898.849)" clip-path="url(#clip-path)">
    <g id="Group_3246" data-name="Group 3246" transform="translate(1380.421 3910.536)">
      <g id="_01_Character_Boys_Man" data-name="#01 Character/Boys/Man" transform="translate(0 0)">
        <g id="Man" transform="translate(0)">
          <g id="Body" transform="translate(0 14.206)">
            <path id="Skin_color:" data-name="Skin color:" d="M154.975,541.013V527.633h21.146v13.379Zm-44.116,0V527.633h21.3v13.379Zm131.3-437.229c12.155-.221,15.693,2.873,15.693,2.873-4.423-6.625-5.443-20.121-7.325-27.509-1.97-6.468-3.933-11.194-3.933-11.194-4.16,4.079-6,2.121-6,2.121-2.11,1.882-5.1.472-5.1.472-2.185,1.934-3.846,1.113-4.271.9a.676.676,0,0,0-.618,0A3.111,3.111,0,0,1,230,71.7a3.567,3.567,0,0,1-3.251-.7,14.7,14.7,0,0,1-5.116-9.854,6.62,6.62,0,0,1,2.96-6.346c5.716-3.758,16.042-5.477,20.552-6.445a8.084,8.084,0,0,1,8.246,2.6s20.79,19.229,29.135,46.931a90.847,90.847,0,0,0,4.143,11.328c1.748,3.9,3.094,9.976-2.3,14.684-3.718,3.24-16.648,13.553-42.211,13.74C238.179,127.732,242.158,103.783,242.158,103.783ZM3.834,123.9c-5.39-4.7-4.044-10.774-2.278-14.672A90.01,90.01,0,0,0,5.7,97.9C14.025,70.22,34.839,50.967,34.839,50.967a8.047,8.047,0,0,1,8.245-2.6c4.51.967,14.836,2.686,20.552,6.445a6.607,6.607,0,0,1,2.9,6.334A14.627,14.627,0,0,1,61.428,71a3.567,3.567,0,0,1-3.251.7,2.99,2.99,0,0,1-.583-.256.676.676,0,0,0-.618,0c-.425.216-2.086,1.037-4.271-.9,0,0-2.989,1.41-5.1-.472,0,0-1.836,1.963-6-2.121,0,0-1.963,4.726-3.933,11.194-1.882,7.388-2.913,20.884-7.324,27.509,0,0,3.537-3.094,15.692-2.873,0,0,3.98,23.943,0,33.855C20.482,137.452,7.552,127.15,3.834,123.9ZM126.5,85.527V65.293l-.017-.02a41.258,41.258,0,0,1-6.748-11.333c-.122-.3-.245-.583-.361-.9-.192-.5-.39-1.02-.583-1.533-.268-.763-.536-1.538-.787-2.331l-.4-1.276a47.19,47.19,0,0,1-1.515-7.43c-.052-.425-.1-.862-.152-1.305,0-.163-.035-.326-.047-.489,0,0-.07-.49-.152-1.335a1.349,1.349,0,0,1,0-.145c-.384-4.242-.979-16.578,4-24.666C125.787,2.731,135.705-.129,144.1,0c8.385-.134,18.3,2.727,24.345,12.522,4.942,8.08,4.354,20.4,3.969,24.654a5.633,5.633,0,0,1,4.229.268c3.088,1.445,4.394,6.3,1.5,10.728a8.089,8.089,0,0,1-8.765,3.329c-.192.512-.384,1.03-.582,1.531-.117.309-.239.583-.361.9a41.048,41.048,0,0,1-6.7,11.258l-.029.035v20.3c-.46,2.955-8.157,5.3-17.6,5.3S126.964,88.494,126.5,85.527Zm33.972-18.92a27.811,27.811,0,0,1-4.93,4.137,20.347,20.347,0,0,1-5.01,2.469,20.346,20.346,0,0,0,5.027-2.475,27.792,27.792,0,0,0,4.93-4.137l.127-.146ZM109.984,48.176c-2.913-4.428-1.591-9.282,1.463-10.728a6.046,6.046,0,0,1,.746-.3,5.771,5.771,0,0,1,3.5.041,1.208,1.208,0,0,0,0,.151v.321c.064.647.122,1.014.122,1.014a4.638,4.638,0,0,0,.047.489c.07.647.146,1.282.233,1.906a46.316,46.316,0,0,0,1.433,6.818q.624,1.859,1.253,3.607a9.223,9.223,0,0,1-2.072.236A7.8,7.8,0,0,1,109.984,48.176Z" transform="translate(1.179 1.159)" fill="#dd9488"/>
            <path id="Combined_Shape" data-name="Combined Shape" d="M45.281,15.733a1.167,1.167,0,0,1-1.165-1.165V1.165A1.167,1.167,0,0,1,45.281,0H66.427a1.167,1.167,0,0,1,1.166,1.165v13.4a1.167,1.167,0,0,1-1.166,1.165ZM46.447,13.4H65.262V2.331H46.447ZM1.165,15.733A1.167,1.167,0,0,1,0,14.568V1.165A1.167,1.167,0,0,1,1.165,0h21.3a1.167,1.167,0,0,1,1.166,1.165v13.4a1.167,1.167,0,0,1-1.166,1.165ZM2.331,13.4H21.3V2.331H2.331Z" transform="translate(110.872 527.604)" fill="#353a46"/>
            <path id="Path" d="M32.952,0V16.193C17.219,16.461,5.495,8.869,0,4.394V.058l.064.07A27.777,27.777,0,0,0,4.994,4.26a20.336,20.336,0,0,0,10.885,3.5h1.136a20.336,20.336,0,0,0,10.891-3.5A28.057,28.057,0,0,0,32.841.122Z" transform="translate(128.79 67.644)" fill="#7c3830" opacity="0.15" style="mix-blend-mode: multiply;isolation: isolate"/>
            <path id="Combined_Shape-2" data-name="Combined Shape" d="M63.159,5.274V0h46.61V5.274ZM0,5.274V0H46.61V5.274Z" transform="translate(89.784 561.995)" fill="#fff"/>
            <g id="Shoe_color:" data-name="Shoe color:" transform="translate(89.807 534.859)">
              <path id="Shoe_color:-2" data-name="Shoe color:" d="M63.136,27.137V9.527a2.214,2.214,0,0,1,2.22-2.2h7.913V4.417A3.647,3.647,0,0,1,76.141.863c5.4-1.183,16.065-1.34,18.005.752,2.523,2.744,0,11.392,0,11.392,15.389,2.109,15.6,14.131,15.6,14.131ZM0,27.137S.216,15.115,15.6,13.006c0,0-2.524-8.647,0-11.392C17.545-.478,28.209-.32,33.61.863a3.647,3.647,0,0,1,2.873,3.554V7.33H44.4a2.214,2.214,0,0,1,2.22,2.2V27.137Z" transform="translate(0 0)" fill="#92645c"/>
              <path id="Shoe_color:-3" data-name="Shoe color:" d="M63.136,27.137V9.527a2.214,2.214,0,0,1,2.22-2.2h7.913V4.417A3.647,3.647,0,0,1,76.141.863c5.4-1.183,16.065-1.34,18.005.752,2.523,2.744,0,11.392,0,11.392,15.389,2.109,15.6,14.131,15.6,14.131ZM0,27.137S.216,15.115,15.6,13.006c0,0-2.524-8.647,0-11.392C17.545-.478,28.209-.32,33.61.863a3.647,3.647,0,0,1,2.873,3.554V7.33H44.4a2.214,2.214,0,0,1,2.22,2.2V27.137Z" transform="translate(0 0)" fill="rgba(0,0,0,0.1)"/>
            </g>
            <g id="Top_color:" data-name="Top color:" transform="translate(47.194 86.687)">
              <path id="Top_color:-2" data-name="Top color:" d="M196.143,52.1c-5.979.921-15.593,1.684-31.413,0l-5.961,117.2a.431.431,0,0,1-.431.408H37.841a.67.67,0,0,1-.67-.641L32.55,52.1c-8.5,1.655-23.815,1.643-32.55,0,3.98-9.906,0-33.855,0-33.855s15.039-7.47,37.841-5.949a6.41,6.41,0,0,0,2.436-.309C47.851,9.5,55.391,5.3,80.448,0c.46,2.954,8.158,5.3,17.6,5.3,9.125,0,16.636-2.191,17.539-5.011,0,0,20.033,3.654,36.127,9.533a6.783,6.783,0,0,0,2.057.227c26.041-1.084,42.4,8.2,42.4,8.2S192.163,42.187,196.143,52.1Z" fill="#3acfb3"/>
              <path id="Top_color:-3" data-name="Top color:" d="M196.143,52.1c-5.979.921-15.593,1.684-31.413,0l-5.961,117.2a.431.431,0,0,1-.431.408H37.841a.67.67,0,0,1-.67-.641L32.55,52.1c-8.5,1.655-23.815,1.643-32.55,0,3.98-9.906,0-33.855,0-33.855s15.039-7.47,37.841-5.949a6.41,6.41,0,0,0,2.436-.309C47.851,9.5,55.391,5.3,80.448,0c.46,2.954,8.158,5.3,17.6,5.3,9.125,0,16.636-2.191,17.539-5.011,0,0,20.033,3.654,36.127,9.533a6.783,6.783,0,0,0,2.057.227c26.041-1.084,42.4,8.2,42.4,8.2S192.163,42.187,196.143,52.1Z" fill="rgba(255,255,255,0.05)"/>
            </g>
            <path id="Pants_color:" data-name="Pants color:" d="M59.185,272.4l-.256-16.461h.04L55.677,42.456l-6.515.017L47.076,255.939h.017L46.931,272.4H16.484l-1-16.461h-.023L0,0H108.044L93.221,255.939H93.18L92.224,272.4Z" transform="translate(91.113 256.392)" fill="#32adff"/>
            <path id="Light_layer" data-name="Light layer" d="M43.7,16.461,43.44,0H77.691l-.956,16.461Zm-42.7,0L0,0H31.606l-.163,16.461Z" transform="translate(106.601 512.331)" fill="#fff" opacity="0.4" style="mix-blend-mode: soft-light;isolation: isolate"/>
            <path id="Path-2" data-name="Path" d="M0,.5H105.416" transform="translate(91.654 264.889)" fill="#f9f9f9"/>
            <path id="Combined_Shape-3" data-name="Combined Shape" d="M152.937,568.434a1.167,1.167,0,0,1-1.166-1.165V544.386a3.384,3.384,0,0,1,3.379-3.38H161.9v-1.748a4.785,4.785,0,0,1,3.787-4.691,49.316,49.316,0,0,1,9.557-.9,33.068,33.068,0,0,1,5.846.449,6.852,6.852,0,0,1,3.709,1.547c1.014,1.1,1.49,2.97,1.415,5.551a28.714,28.714,0,0,1-.832,5.678c7.582,1.383,11.318,5.225,13.117,8.2a15.021,15.021,0,0,1,2.184,6.6,1.164,1.164,0,0,1,.036.29v5.274a1.166,1.166,0,0,1-1.165,1.165ZM154.1,566.1h44.285v-2.943H154.1Zm44.145-5.274c-.533-3.029-3.009-10.245-14.463-11.811-.035,0-.07-.011-.1-.019a1.167,1.167,0,0,1-.384.025,31.351,31.351,0,0,0-15.1,2.744,1.127,1.127,0,0,1-.507.116,1.165,1.165,0,0,1-.519-2.208,33.149,33.149,0,0,1,15.888-3.01,28.748,28.748,0,0,0,.791-4.813c.111-1.586.068-3.67-.765-4.588a5.421,5.421,0,0,0-2.8-.935,35.411,35.411,0,0,0-5.09-.32,44.31,44.31,0,0,0-9.008.853,2.468,2.468,0,0,0-1.958,2.412v2.75c0,.02,0,.039.006.059a47.986,47.986,0,0,0,.845,6.234,1.165,1.165,0,0,1-.851,1.41,1.184,1.184,0,0,1-.292.035,1.165,1.165,0,0,1-1.13-.88,49.784,49.784,0,0,1-.816-5.53h-6.842A1.059,1.059,0,0,0,154.1,544.4V560.83Zm-108.44,7.6a1.167,1.167,0,0,1-1.165-1.165v-5.274q0-.056.005-.11a15.538,15.538,0,0,1,2.058-6.448,15.914,15.914,0,0,1,4.566-5.019,21.352,21.352,0,0,1,8.689-3.48,28.93,28.93,0,0,1-.828-5.678c-.077-2.582.4-4.45,1.41-5.551a6.856,6.856,0,0,1,3.71-1.547,33.074,33.074,0,0,1,5.846-.45,49.314,49.314,0,0,1,9.557.9,4.785,4.785,0,0,1,3.787,4.691v1.748h6.748a3.384,3.384,0,0,1,3.379,3.38v17.367a1.166,1.166,0,0,1,.017.2v5.274a1.167,1.167,0,0,1-1.165,1.165Zm1.165-2.331h44.285v-2.943H90.973Zm44.285-5.274V544.386a1.058,1.058,0,0,0-1.049-1.049h-6.857a49.862,49.862,0,0,1-.817,5.547,1.165,1.165,0,0,1-1.136.88,1.22,1.22,0,0,1-.286-.035,1.166,1.166,0,0,1-.845-1.41,48.642,48.642,0,0,0,.839-6.234,1.171,1.171,0,0,1,.024-.163v-2.663a2.468,2.468,0,0,0-1.958-2.412,44.324,44.324,0,0,0-9.009-.853,35.4,35.4,0,0,0-5.09.32,5.423,5.423,0,0,0-2.8.935c-1.412,1.538-.686,6.519.029,9.4a33.1,33.1,0,0,1,15.861,3.014,1.165,1.165,0,0,1-.519,2.208v.012a1.127,1.127,0,0,1-.507-.116,31.128,31.128,0,0,0-15.092-2.744,1.173,1.173,0,0,1-.418-.032l-.054.009c-4.939.684-8.75,2.507-11.329,5.418A13.568,13.568,0,0,0,91.1,560.83Zm48.078-30.877H150.3a1.167,1.167,0,0,1-1.165-1.165l-.256-16.456a1.164,1.164,0,0,1,.036-.29L145.641,300h-4.207l-2.1,212.089a1.156,1.156,0,0,1,.027.259L139.2,528.8a1.17,1.17,0,0,1-1.16,1.154H107.6a1.168,1.168,0,0,1-1.165-1.1l-.979-16.159a1.163,1.163,0,0,1-.053-.284L89.995,257.557H85.033A1.833,1.833,0,0,1,83.2,255.81L78.631,140.184a98.37,98.37,0,0,1-15.071,1.025,96.292,96.292,0,0,1-16.581-1.258l-.01,0c-23.419-.222-36.826-8.874-42.743-14.023-4.547-3.964-5.459-9.656-2.57-16.03A87.984,87.984,0,0,0,5.735,98.713,99.425,99.425,0,0,1,13.526,80.2,123.93,123.93,0,0,1,22.91,65.488,118.355,118.355,0,0,1,35.1,51.336a8.989,8.989,0,0,1,7-3.215,11.33,11.33,0,0,1,2.36.259l1.94.4.015,0c5.166,1.048,13.812,2.8,18.993,6.208a7.715,7.715,0,0,1,3.5,7.464,15.769,15.769,0,0,1-5.535,10.617,4.7,4.7,0,0,1-4.324.9,4.229,4.229,0,0,1-.582-.227h0a4.2,4.2,0,0,1-1.724.374,5.138,5.138,0,0,1-3.049-1.1,7.409,7.409,0,0,1-2.193.352,5.174,5.174,0,0,1-2.766-.749,3.479,3.479,0,0,1-1.224.239l-.1,0a6.975,6.975,0,0,1-4.126-1.785c-.664,1.723-1.977,5.255-3.287,9.556-.544,2.152-1.04,4.971-1.521,7.7-1.006,5.683-2.147,12.124-4.242,16.939a28.311,28.311,0,0,1,4.654-1.045,50.207,50.207,0,0,1,7.152-.469c.328,0,.663,0,1,.007,2.2-1.017,14.085-6.1,31.878-6.1,2.06,0,4.156.069,6.228.206.113.008.229.012.342.012a5.173,5.173,0,0,0,1.645-.268c1.872-.624,3.748-1.332,5.495-2,6.446-2.464,15.236-5.824,33.855-9.814V66.846a42.262,42.262,0,0,1-6.66-11.31c-.031-.075-.062-.149-.094-.224-.092-.219-.187-.445-.279-.7q-.122-.316-.242-.634a10.512,10.512,0,0,1-1.326.086l-.2,0a8.907,8.907,0,0,1-7.486-4.081,9.989,9.989,0,0,1-1.486-8.123,6.661,6.661,0,0,1,3.426-4.295,7.5,7.5,0,0,1,.874-.35,6.919,6.919,0,0,1,2.064-.315q.28,0,.558.023c-.363-5.558-.334-16.336,4.289-23.843A26.308,26.308,0,0,1,132.49,2.306a30.3,30.3,0,0,1,6.593-1.85A34.806,34.806,0,0,1,144.727,0c.181,0,.366,0,.547,0s.363,0,.543,0a32.52,32.52,0,0,1,12.2,2.306A26.3,26.3,0,0,1,170.587,13.08c2.2,3.571,3.6,8.258,4.161,13.93a62.145,62.145,0,0,1,.136,9.872q.262-.02.526-.02a7,7,0,0,1,1.827.243,7.134,7.134,0,0,1,1.113.425,6.613,6.613,0,0,1,3.42,4.282,10,10,0,0,1-1.48,8.129,8.919,8.919,0,0,1-7.517,4.121l-.163,0a10.524,10.524,0,0,1-1.3-.085l-.059.162c-.061.166-.121.33-.182.494-.143.382-.24.614-.364.907l-.008.019a42.017,42.017,0,0,1-6.66,11.306v19.2c2.238.435,6.541,1.31,11.906,2.587a212.741,212.741,0,0,1,23.313,6.786,5.448,5.448,0,0,0,1.391.181c.088,0,.176,0,.264-.007,1.437-.06,2.891-.09,4.32-.09a99.128,99.128,0,0,1,15.891,1.268A89.206,89.206,0,0,1,233.169,99.6a62.118,62.118,0,0,1,10.407,4.159c.327,0,.653-.007.972-.007a39.3,39.3,0,0,1,11.806,1.515c-2.091-4.792-3.229-11.217-4.233-16.885l-.009-.054-.061-.344c-.489-2.747-.951-5.342-1.477-7.407-1.22-4-2.454-7.376-3.275-9.5a7,7,0,0,1-4.143,1.783h-.1a3.547,3.547,0,0,1-1.223-.239,5.173,5.173,0,0,1-2.765.749,7.35,7.35,0,0,1-2.188-.352,5.063,5.063,0,0,1-3.033,1.1,4.3,4.3,0,0,1-1.745-.377,5.148,5.148,0,0,1-.583.233,4.7,4.7,0,0,1-4.318-.909,15.863,15.863,0,0,1-5.547-10.617,7.747,7.747,0,0,1,3.5-7.464c5.181-3.405,13.826-5.16,18.992-6.208l.016,0,1.94-.4a11.33,11.33,0,0,1,2.36-.259,8.979,8.979,0,0,1,7,3.213,115.653,115.653,0,0,1,12.178,14.128,123.752,123.752,0,0,1,9.387,14.719,99.442,99.442,0,0,1,7.791,18.532,89.721,89.721,0,0,0,4.079,11.182c2.908,6.357,2,12.05-2.57,16.03-5.905,5.144-19.283,13.785-42.674,14.023q-.05.012-.1.02a94.822,94.822,0,0,1-14.336,1.007,160.668,160.668,0,0,1-16.151-.9l-5.9,115.957a1.6,1.6,0,0,1-1.595,1.515h-5.332L185.481,512.413a1.152,1.152,0,0,1-.036.217l-.943,16.226a1.167,1.167,0,0,1-1.163,1.1Zm-31.891-2.331h30.8l.822-14.124H151.23Zm-42.747,0H136.89l.139-14.113H107.871Zm74.533-16.456.283-4.889h-4.985a.583.583,0,1,1,0-1.165h5.053l12.545-216.58a59.881,59.881,0,0,1-9.527-8.389.584.584,0,1,1,.868-.781,58.523,58.523,0,0,0,8.739,7.792l1.2-20.646a1.166,1.166,0,0,1-.326.046H92.892l1.235,20.434c9.931-7.326,12.825-13.556,12.852-13.622a.584.584,0,1,1,1.067.478c-.131.284-3.177,6.842-13.836,14.528l13.468,222.793h29.357l2.07-211.229H132.28a1.165,1.165,0,1,1,0-2.331h24.362a1.165,1.165,0,1,1,0,2.331h-8.665l3.252,211.229Zm13.845-246.943a1.163,1.163,0,0,1,.453.091l.391-6.757H152.232v6.666Zm-47.175,0v-2.756h-2.815a.583.583,0,0,1,0-1.166H149.9v-2.744H140.63v6.666Zm-11.6,0v-6.666H92.348l.4,6.666Zm66.533-9,5.875-115.491q-1.211-.209-2.408-.49a1.165,1.165,0,1,1,.624-2.243,40.013,40.013,0,0,0,6.264.921,1.17,1.17,0,0,1,.265.042c4.955.452,9.475.673,13.737.673a94.889,94.889,0,0,0,12.582-.779q-.132-.438-.25-.9c-2.544-9.841-.1-27.3.532-31.36a65.265,65.265,0,0,0-10.567-4.077,94.657,94.657,0,0,0-26.257-3.714c-1.41,0-2.839.033-4.247.1-.118.005-.238.008-.356.008a7.788,7.788,0,0,1-1.162-.087,39.843,39.843,0,0,0-4.933,1.2.736.736,0,0,1-.146.029.584.584,0,0,1-.216-1.136q1.428-.449,2.884-.791c-5.635-1.99-12.305-3.931-19.854-5.778-2.251-.551-4.352-1.037-6.22-1.453-1.134,4.112-9.848,7.859-19.235,8.15H151.7a.583.583,0,1,1,0-1.165c9.377-.291,17.176-4.04,18.133-7.238-3-.655-5.273-1.106-6.42-1.327-.945,1.354-2.978,2.5-5.915,3.354a34.617,34.617,0,0,1-6.183,1.179,54.161,54.161,0,0,1-6.071.338,55.164,55.164,0,0,1-7.121-.428,32.213,32.213,0,0,1-5.4-1.141,15.987,15.987,0,0,1-3.713-1.637,6.423,6.423,0,0,1-2.063-1.916c-18.493,3.96-27.176,7.285-33.517,9.714-1.9.724-3.554,1.355-5.245,1.923a19.637,19.637,0,0,1,2.477,1.06.583.583,0,0,1-.268,1.1.626.626,0,0,1-.268-.064,20.641,20.641,0,0,0-4.385-1.6q-.138.005-.277.005c-.166,0-.335-.006-.5-.017-1.993-.133-4.012-.2-6-.2-16.037,0-27.285,4.3-30.427,5.657.313,2.05,1.03,7.141,1.405,12.927a92.749,92.749,0,0,1,.128,11.148,35.483,35.483,0,0,1-1.284,8.2,100.512,100.512,0,0,0,14.808.973,92.5,92.5,0,0,0,15.551-1.133,1.164,1.164,0,0,1,.476-.131,16.238,16.238,0,0,0,2.156-.443,1.165,1.165,0,0,1,.583,2.255q-.7.189-1.4.327l4.563,115.467H139.3a1.168,1.168,0,0,1,.164-.012h11.6a1.167,1.167,0,0,1,.164.012ZM36.887,52.8a1.058,1.058,0,0,1-.152.175A110.078,110.078,0,0,0,25.309,66.116a121.93,121.93,0,0,0-9.467,14.642,97.637,97.637,0,0,0-7.9,18.631,90.432,90.432,0,0,1-4.2,11.473A13.946,13.946,0,0,0,2.3,117.386a9.409,9.409,0,0,0,3.427,6.785c5.586,4.868,18.292,13.088,40.638,13.449a31.362,31.362,0,0,0,1.306-7.993,86.577,86.577,0,0,0-.05-9.4c-.335-6.243-1.124-11.969-1.448-14.141h-.216c-10.423,0-13.691,2.584-13.723,2.61a1.169,1.169,0,0,1-1.725-1.538c2.986-4.469,4.371-12.31,5.594-19.229l.048-.27c.5-2.824.977-5.492,1.525-7.649,1.449-4.77,2.9-8.621,3.669-10.563a6.99,6.99,0,0,1-2.509-3.392,2.547,2.547,0,0,1,.245-2.558,2.728,2.728,0,0,1,1-.787,5.821,5.821,0,0,1-2.116-3.677,1.168,1.168,0,0,1,2.331-.163c0,.106.242,1.567,2.616,3.059.116-.217.207-.364.239-.414a1.166,1.166,0,0,1,1.97,1.241,4.008,4.008,0,0,0-.67,2.1,1.166,1.166,0,0,1-.927,1.364,1.475,1.475,0,0,1-.2.023,1.165,1.165,0,0,1-1.166-.95,3.281,3.281,0,0,1-.05-.741,2.131,2.131,0,0,0-1.161.327,1.072,1.072,0,0,0,.082.32c.373.991.53,1.4,2.476,2.978a1.163,1.163,0,0,1,.252.28c1.883,1.793,3.067,2.067,3.614,2.067a.935.935,0,0,0,.533-.128q.026-.032.053-.062c3.939-5.442,3.717-9.961,3.717-10A1.169,1.169,0,0,1,54,60.168c0,.21.317,4.912-3.578,10.717a3.258,3.258,0,0,0,1.026.155,5.086,5.086,0,0,0,1.723-.328c4.479-4.816,3.619-9.678,3.579-9.885a1.167,1.167,0,1,1,2.29-.455c.049.242,1.073,5.667-3.464,11.137a2.417,2.417,0,0,0,1.09.285,1.915,1.915,0,0,0,.906-.234,1.875,1.875,0,0,1,.59-.183C62.081,65.285,61.6,61.128,61.6,61.083a1.175,1.175,0,0,1,2.331-.3c0,.2.534,4.66-3.273,11.024a2.4,2.4,0,0,0,1.222-.554,13.375,13.375,0,0,0,4.661-9.084,5.407,5.407,0,0,0-2.435-5.244c-4.814-3.164-13.188-4.86-18.192-5.874l-1.963-.4a8.881,8.881,0,0,0-1.778-.18h-.046l-.192,0A6.626,6.626,0,0,0,36.887,52.8ZM243.04,118.3a94.025,94.025,0,0,0-.193,10.918,32.2,32.2,0,0,0,1.322,8.393c22.338-.367,35.031-8.583,40.609-13.449,4.752-4.135,3.7-9.519,1.981-13.309a90.846,90.846,0,0,1-4.2-11.473,98.224,98.224,0,0,0-7.906-18.631,122.3,122.3,0,0,0-9.458-14.642,108.307,108.307,0,0,0-11.421-13.139.863.863,0,0,1-.152-.175,6.633,6.633,0,0,0-5.213-2.342,8.821,8.821,0,0,0-1.844.2l-1.969.4-.061.013c-5,1.014-13.36,2.71-18.125,5.861a5.437,5.437,0,0,0-2.448,5.244,13.628,13.628,0,0,0,4.662,9.084,2.372,2.372,0,0,0,1.277.564c-3.826-6.37-3.309-10.812-3.287-11.04a1.174,1.174,0,1,1,2.331.292c0,.073-.422,4.3,3.449,10.318a1.855,1.855,0,0,1,.479.153,1.979,1.979,0,0,0,.941.247,2.44,2.44,0,0,0,1.127-.3c-4.52-5.464-3.5-10.877-3.449-11.119a1.165,1.165,0,0,1,2.284.455c-.041.225-.9,5.1,3.617,9.921a5.149,5.149,0,0,0,1.64.3,3.243,3.243,0,0,0,1.069-.169c-3.888-5.8-3.581-10.5-3.565-10.706a1.169,1.169,0,0,1,2.331.175c0,.046-.255,4.622,3.794,10.114a1.072,1.072,0,0,0,.448.082c.566,0,1.814-.294,3.817-2.26a1.174,1.174,0,0,1,.267-.2c1.8-1.47,1.958-1.887,2.32-2.851a.662.662,0,0,0,.07-.338,2.244,2.244,0,0,0-1.179-.311,3.284,3.284,0,0,1-.05.742,1.165,1.165,0,0,1-1.148.926,1.347,1.347,0,0,1-.216,0,1.166,1.166,0,0,1-.927-1.364,4.046,4.046,0,0,0-.67-2.1,1.165,1.165,0,0,1,1.969-1.241c.032.051.125.2.242.421,2.431-1.544,2.637-3.066,2.642-3.066a1.168,1.168,0,0,1,2.331.14,5.754,5.754,0,0,1-2.116,3.677,2.708,2.708,0,0,1,.991.787,2.517,2.517,0,0,1,.245,2.558,7.041,7.041,0,0,1-2.555,3.436c1.369,3.5,2.594,7.023,3.644,10.473.581,2.272,1.069,5.025,1.586,7.939l0,.026c1.223,6.926,2.609,14.775,5.588,19.229a1.165,1.165,0,0,1-1.748,1.527,9.876,9.876,0,0,0-2.945-1.3,37.213,37.213,0,0,0-10.76-1.3l-.138,0C244.085,108.023,243.421,112.792,243.04,118.3ZM145.251,90.818c9.781,0,16.177-2.508,16.456-4.306V69.4a29.065,29.065,0,0,1-4.341,3.5,21.518,21.518,0,0,1-11.485,3.683h-1.23l-.029-.023H144.6a21.533,21.533,0,0,1-11.479-3.683,28.473,28.473,0,0,1-4.341-3.5L128.8,86.46a.148.148,0,0,1,0,.03q.006.028.01.057a.925.925,0,0,0,.04.156C129.531,88.482,135.815,90.818,145.251,90.818ZM118.193,39.59q.009.075.009.079a.427.427,0,0,1,0,.082l.035.408c.056.5.111.954.157,1.328a46.513,46.513,0,0,0,1.474,7.237c.132.427.265.849.4,1.253.23.733.482,1.457.727,2.156l.048.139c.177.484.37,1,.583,1.5.078.2.156.4.233.584v0c.039.1.078.191.116.287a40.052,40.052,0,0,0,6.555,11.019c.364.425.724.824,1.165,1.294a27.012,27.012,0,0,0,4.72,3.962,19.155,19.155,0,0,0,10.209,3.3h1.165l.208,0c.178,0,.4,0,.676-.021a16.791,16.791,0,0,0,3.312-.553,21.108,21.108,0,0,0,6.053-2.732,26.8,26.8,0,0,0,4.72-3.963c.388-.406.789-.852,1.223-1.364q.029-.034.06-.065a39.8,39.8,0,0,0,6.449-10.878c.119-.282.236-.576.35-.874l.431-1.136.146-.4c.465-1.329.835-2.451,1.165-3.531A47.637,47.637,0,0,0,172.2,40.2a1.949,1.949,0,0,1,.028-.3c.007-.05.015-.1.018-.146v-.082c0-.007,0-.042.013-.105.023-.175.077-.581.133-1.176h1.061l-.842-.076-.219-.018v-.076c.327-3.627,1.017-16.074-3.834-23.949A24.045,24.045,0,0,0,156.978,4.4,30.221,30.221,0,0,0,145.737,2.3c-.161,0-.325,0-.486,0l-.513.029a32.447,32.447,0,0,0-5.222.418,28.063,28.063,0,0,0-6.08,1.694A24.028,24.028,0,0,0,121.885,14.3c-1.231,2-5.144,9.63-3.835,23.943a1.184,1.184,0,0,1,.006.122v.043C118.121,39.019,118.173,39.432,118.193,39.59Zm54.5,12.168a6.748,6.748,0,0,0,5.651-3.046,7.662,7.662,0,0,0,1.165-6.218,4.293,4.293,0,0,0-2.18-2.814,4.6,4.6,0,0,0-.752-.286,4.391,4.391,0,0,0-1.882-.1c-.031.281-.057.485-.072.6q-.005.046-.009.074c-.006.053-.008.106-.01.163a1.108,1.108,0,0,1-.031.274,50.743,50.743,0,0,1-1.222,7.148,2.541,2.541,0,0,0,1.98-1.093,2.586,2.586,0,0,0,.239-2.639.584.584,0,0,1,.979-.636,3.782,3.782,0,0,1-3.306,5.542q-.1,0-.192-.008-.093.343-.191.684c-.246.806-.5,1.586-.746,2.334C172.3,51.749,172.5,51.758,172.692,51.758ZM112.4,40.135a4.154,4.154,0,0,0-1.447,2.343,7.682,7.682,0,0,0,1.165,6.217,6.713,6.713,0,0,0,5.623,3.049c.209,0,.421-.01.629-.03-.228-.678-.463-1.419-.74-2.331q-.1-.333-.189-.667a3.028,3.028,0,0,1-.306.009,3.788,3.788,0,0,1-3.315-5.542.583.583,0,1,1,.979.636,2.6,2.6,0,0,0,.239,2.639,2.541,2.541,0,0,0,2.1,1.1,46.749,46.749,0,0,1-.976-5.163.09.09,0,0,1,0-.041c-.081-.579-.157-1.2-.233-1.905a1.984,1.984,0,0,0-.025-.259c-.01-.079-.022-.16-.027-.243s-.018-.178-.034-.285-.031-.218-.048-.379a5.1,5.1,0,0,0-.763-.059h-.036A4.155,4.155,0,0,0,112.4,40.135Zm59.386,466.143a.583.583,0,1,1,0-1.165h3.77a.583.583,0,1,1,0,1.165Zm.315-103.138a11.064,11.064,0,0,1-4.417-1.043,12.012,12.012,0,0,1-2.442-1.451.584.584,0,1,1,.711-.927,11.013,11.013,0,0,0,2.208,1.317,9.474,9.474,0,0,0,4.295.927,2.44,2.44,0,0,0,2.2-1.049c.373-.833-.251-2.133-1.591-3.3a.583.583,0,1,1,.763-.88c1.795,1.568,2.5,3.31,1.888,4.662a3.485,3.485,0,0,1-3.2,1.748Zm-55.193,0a3.442,3.442,0,0,1-3.2-1.748c-.583-1.352.093-3.094,1.882-4.662a.584.584,0,1,1,.769.88c-1.346,1.165-1.969,2.471-1.591,3.3a2.47,2.47,0,0,0,2.2,1.049,9.489,9.489,0,0,0,4.289-.927,10.939,10.939,0,0,0,2.208-1.311.583.583,0,1,1,.716.921,12.01,12.01,0,0,1-2.441,1.451,11.074,11.074,0,0,1-4.423,1.043Zm66.824-126.574a18.685,18.685,0,0,1-1.649-2.721.583.583,0,0,1,1.061-.484,17.933,17.933,0,0,0,1.544,2.535.584.584,0,1,1-.956.67ZM174.98,170.607a12.524,12.524,0,0,1-12.522-12.522V139.473a.793.793,0,0,1,.792-.792h26.478a.793.793,0,0,1,.792.792v18.611A12.523,12.523,0,0,1,178,170.607Zm-11.357-12.522a11.36,11.36,0,0,0,11.357,11.357H178a11.358,11.358,0,0,0,11.357-11.357V139.846H163.623Zm-47.012,11.194-6.585-7.744a.583.583,0,1,1,.886-.752l6.585,7.744a.581.581,0,0,1-.886.752Zm-4.411-.111-3.5-4.137a.583.583,0,1,1,.886-.752l3.5,4.137a.581.581,0,0,1-.886.752Zm67.7-3.951a.582.582,0,0,1,.455-.693,5.4,5.4,0,0,0,3.846-3.17.581.581,0,1,1,1.072.448,6.573,6.573,0,0,1-4.662,3.863l-.128.012h-.013A.582.582,0,0,1,179.9,165.217Zm-63.7-1.5-1.626-1.912a.583.583,0,1,1,.886-.752l1.626,1.911a.581.581,0,0,1-.886.752Zm134.033-.455h-1.165a.583.583,0,0,1,0-1.165,33.388,33.388,0,0,0,13.746-2.436.583.583,0,0,1,.443,1.072,34.262,34.262,0,0,1-12.919,2.529ZM48.82,156.331c-20.138,0-33.738-8.07-33.9-8.158a.583.583,0,0,1,.583-1c.187.111,19.048,11.287,45.212,7.039a.59.59,0,0,1,.187,1.165,75.517,75.517,0,0,1-11.942.95Zm180.527-.979a.59.59,0,0,1,.186-1.165c26.181,4.254,45.02-6.922,45.212-7.039a.583.583,0,0,1,.583,1c-.139.116-13.746,8.187-33.884,8.187A75.435,75.435,0,0,1,229.347,155.352ZM8.987,121l-.024-.017H8.847a2.82,2.82,0,0,1-1.905-1.294c-1.055-1.7-.356-4.376-.326-4.487a.581.581,0,0,1,1.124.3,5.464,5.464,0,0,0,.192,3.578,1.643,1.643,0,0,0,1.165.757A.585.585,0,0,1,9.043,121Zm273.007-.484a.582.582,0,0,1,.46-.688,1.644,1.644,0,0,0,1.166-.758,5.462,5.462,0,0,0,.192-3.578.582.582,0,0,1,1.125-.3c.029.111.728,2.791-.327,4.486a2.819,2.819,0,0,1-1.928,1.3h-.117A.582.582,0,0,1,281.994,120.512ZM173.233,48.724h.023Z" fill="#353a46"/>
          </g>
          <g id="Cheeks_color:" data-name="Cheeks color:" transform="translate(123.691 56.63)">
            <rect id="_01_Character_Setup_03_Face_Cheek_Ñheek_01_background" data-name="#01 Character/Setup/#03 Face/Cheek/Ñheek#01 background" width="43.12" height="12.237" transform="translate(0 0.414)" fill="none"/>
            <path id="Cheeks_color:-2" data-name="Cheeks color:" d="M31.466,5.827a5.827,5.827,0,1,1,5.827,5.827A5.827,5.827,0,0,1,31.466,5.827ZM0,5.827a5.827,5.827,0,1,1,5.827,5.827A5.827,5.827,0,0,1,0,5.827Z" transform="translate(0 0)" fill="#ff1300" opacity="0.15" style="mix-blend-mode: multiply;isolation: isolate"/>
          </g>
          <g id="Emotions" transform="translate(124.857 42.768)">
            <rect id="_01_Character_Setup_01_Emotions_wink_background" data-name="#01 Character/Setup/#01 Emotions/wink background" width="40.789" height="32.631" fill="none"/>
            <g id="Face">
              <g id="Mouth" transform="translate(0 20.977)">
                <rect id="_01_Character_Setup_03_Face_Mouth_silly_mouth_background" data-name="#01 Character/Setup/#03 Face/Mouth/silly_mouth background" width="40.789" height="11.654" fill="none"/>
                <g id="silly_mouth" transform="translate(11.385 0.752)">
                  <g id="smile-4" transform="translate(0 0)">
                    <path id="Path-3" data-name="Path" d="M15.292,0a.629.629,0,0,1,.618.682A8.018,8.018,0,0,1,7.956,7.688,8.018,8.018,0,0,1,0,.682.629.629,0,0,1,.62,0Z" transform="translate(1.019 1.014)" fill="#353a46"/>
                    <path id="Shape" d="M8.975,9.713A8.834,8.834,0,0,1,.007,1.789,1.637,1.637,0,0,1,1.639,0H16.311a1.637,1.637,0,0,1,1.632,1.789A8.834,8.834,0,0,1,9.159,9.715Z" fill="#353a46"/>
                  </g>
                  <g id="Path-4" data-name="Path" transform="translate(3.808 3.729)">
                    <path id="Path-5" data-name="Path" d="M5.184,8.589C1.3,8.589.231,4.842,0,1.806A1.69,1.69,0,0,1,1.694,0H8.686A1.684,1.684,0,0,1,10.37,1.8C10.143,4.831,9.1,8.589,5.184,8.589Z" transform="translate(0 0)" fill="#f66"/>
                    <path id="Path-6" data-name="Path" d="M5.184,8.589C1.3,8.589.231,4.842,0,1.806A1.69,1.69,0,0,1,1.694,0H8.686A1.684,1.684,0,0,1,10.37,1.8C10.143,4.831,9.1,8.589,5.184,8.589Z" transform="translate(0 0)" fill="rgba(255,255,255,0.09)"/>
                  </g>
                  <path id="Shape-2" data-name="Shape" d="M.009,2.914A2.693,2.693,0,0,1,2.713,0H9.705a2.7,2.7,0,0,1,2.7,2.914C12.042,7.9,9.839,10.64,6.2,10.64,2.585,10.64.376,7.9.009,2.914Z" transform="translate(2.789 2.698)" fill="#353a46"/>
                  <path id="Path-7" data-name="Path" d="M.583,4.324A.583.583,0,0,1,0,3.741V.583a.583.583,0,0,1,1.165,0V3.741A.583.583,0,0,1,.583,4.324Z" transform="translate(8.41 3.147)" fill="#353a46"/>
                </g>
              </g>
              <g id="Nose" transform="translate(0 14.567)">
                <rect id="_01_Character_Setup_03_Face_Nose_background" data-name="#01 Character/Setup/#03 Face/Nose background" width="40.789" height="4.662" fill="none"/>
                <g id="_Nose" data-name="ðŸ‘ƒNose" transform="translate(17.028 1.254)">
                  <path id="Path-8" data-name="Path" d="M3.351,3.283A3.8,3.8,0,0,1,.163,1.628,1.02,1.02,0,0,1,1.877.521a1.853,1.853,0,0,0,1.487.724A1.853,1.853,0,0,0,4.837.492,1.022,1.022,0,0,1,6.585,1.553,3.764,3.764,0,0,1,3.351,3.283Z" transform="translate(0 0)" fill="#353a46"/>
                </g>
              </g>
              <g id="Eyes" transform="translate(0 6.992)">
                <rect id="_01_Character_Setup_03_Face_Eyes_silly_eyes_background" data-name="#01 Character/Setup/#03 Face/Eyes/silly_eyes background" width="40.789" height="5.827" fill="none"/>
                <g id="silly_eyes" transform="translate(6.7 0.973)">
                  <g id="eyes-7">
                    <path id="Path-9" data-name="Path" d="M1.945,4.021C4.532,4.021,4.538,0,1.945,0S-.648,4.021,1.945,4.021Z" fill="#372168"/>
                  </g>
                  <path id="Path-10" data-name="Path" d="M4.737,2.331H1.165A1.165,1.165,0,0,1,1.165,0H4.737a1.165,1.165,0,0,1,0,2.331Z" transform="translate(22.865 0.845)" fill="#372168"/>
                </g>
              </g>
              <g id="Eyebrows">
                <rect id="_01_Character_Setup_03_Face_Eyebrow_wink_eyebrows_background" data-name="#01 Character/Setup/#03 Face/Eyebrow/wink_eyebrows background" width="40.789" height="6.992" fill="none"/>
                <g id="kiss_eyebrows" transform="translate(2.12 0.972)">
                  <path id="Path-11" data-name="Path" d="M1.167,4.977A1.165,1.165,0,0,1,.415,2.92,13.352,13.352,0,0,1,11.609.374a1.165,1.165,0,1,1-.583,2.255A11.083,11.083,0,0,0,1.907,4.7a1.165,1.165,0,0,1-.74.274Z" transform="translate(0 0)" fill="#353a46"/>
                  <path id="Path-12" data-name="Path" d="M11.553,3.525a1.165,1.165,0,0,1-.53-.128A10.965,10.965,0,0,0,1.7,3.4,1.166,1.166,0,0,1,.633,1.323c.239-.122,5.827-2.913,11.485,0a1.165,1.165,0,0,1-.536,2.2Z" transform="translate(24.104 1.452)" fill="#353a46"/>
                </g>
              </g>
            </g>
          </g>
          <g id="_01_Character_Setup_02_Hairstyle_Man_Hairstyle_01" data-name="#01 Character/Setup/#02 Hairstyle/Man/Hairstyle#01" transform="translate(110.413 0)">
            <g id="_1_hairdo" transform="translate(0)">
              <g id="Hair_color:" data-name="Hair color:" transform="translate(1.273 1.133)">
                <path id="Hair_color:-2" data-name="Hair color:" d="M67.905,35.626c0,5.139-1.841,11.479-2.628,14.69a5.827,5.827,0,0,0-3.339.093l-1.165-8.437A20.284,20.284,0,0,0,47.586,25.656c-.583-.2-.892-.291-.892-.291-4.662-1.072-11.875,7.511-21.408,7.138C19.92,32.3,14.4,28.22,14.4,28.22c-.233.233-.46.466-.676.7A30.207,30.207,0,0,0,5.842,45.911l-.583,4.475a5.774,5.774,0,0,0-3.5-.041c-.67-4.108-2.5-7.9-1.439-16.9.583-5.035,3.764-9.242,5.862-11.293a2.71,2.71,0,0,0,.536-3.042C2.176,8.892,12.094,2.494,12.094,2.494c1.066,2.855,2.849,3.5,2.849,3.5C15.276.932,20.3,0,20.3,0a11.125,11.125,0,0,0,8.385,5.99,11.555,11.555,0,0,0,5.32-.4,16.9,16.9,0,0,1,10.261,0c5.874,1.975,8.082,5.507,8.863,7.365a3.5,3.5,0,0,0,1.789,1.812C64.485,19.229,67.905,27.131,67.905,35.626Z" transform="translate(0)" fill="#92645c"/>
                <path id="Hair_color:-3" data-name="Hair color:" d="M67.905,35.626c0,5.139-1.841,11.479-2.628,14.69a5.827,5.827,0,0,0-3.339.093l-1.165-8.437A20.284,20.284,0,0,0,47.586,25.656c-.583-.2-.892-.291-.892-.291-4.662-1.072-11.875,7.511-21.408,7.138C19.92,32.3,14.4,28.22,14.4,28.22c-.233.233-.46.466-.676.7A30.207,30.207,0,0,0,5.842,45.911l-.583,4.475a5.774,5.774,0,0,0-3.5-.041c-.67-4.108-2.5-7.9-1.439-16.9.583-5.035,3.764-9.242,5.862-11.293a2.71,2.71,0,0,0,.536-3.042C2.176,8.892,12.094,2.494,12.094,2.494c1.066,2.855,2.849,3.5,2.849,3.5C15.276.932,20.3,0,20.3,0a11.125,11.125,0,0,0,8.385,5.99,11.555,11.555,0,0,0,5.32-.4,16.9,16.9,0,0,1,10.261,0c5.874,1.975,8.082,5.507,8.863,7.365a3.5,3.5,0,0,0,1.789,1.812C64.485,19.229,67.905,27.131,67.905,35.626Z" transform="translate(0)" fill="rgba(255,255,255,0.09)"/>
              </g>
              <path id="Combined_Shape-4" data-name="Combined Shape" d="M63.2,52.737a1.126,1.126,0,0,1-.613-.18,1.164,1.164,0,0,1-.53-.822L60.84,43.268A19.054,19.054,0,0,0,48.417,27.914c-.287-.1-.554-.19-.79-.262l-.005,0-.014,0a2.507,2.507,0,0,0-.557-.059c-1.582,0-3.761,1.216-6.284,2.623l-.009.005c-3.706,2.059-8.317,4.622-13.658,4.622-.212,0-.426,0-.638-.012a17.962,17.962,0,0,1-6.333-1.586A29.514,29.514,0,0,1,15.774,30.9,29.266,29.266,0,0,0,8.2,47.213l-.583,4.481a1.166,1.166,0,0,1-1.5.961,4.622,4.622,0,0,0-2.82-.041,1.166,1.166,0,0,1-1.5-.92c-.134-.839-.325-1.672-.527-2.556L1.206,48.9A36.956,36.956,0,0,1,.344,34.5C1.078,28.281,5.28,23.748,6.55,22.506a1.527,1.527,0,0,0,.285-1.748A13.564,13.564,0,0,1,5.662,13.3a13.835,13.835,0,0,1,2.2-5.679,18.135,18.135,0,0,1,4.8-4.93,1.173,1.173,0,0,1,1.725.571,6.543,6.543,0,0,0,1,1.807A7.961,7.961,0,0,1,21.3.02,1.184,1.184,0,0,1,21.519,0,1.162,1.162,0,0,1,22.6.725a7.993,7.993,0,0,0,1.658,2.317,10.109,10.109,0,0,0,2.3,1.729A11.749,11.749,0,0,0,30.114,6.01a10.613,10.613,0,0,0,1.584.12,10.552,10.552,0,0,0,3.188-.492,17.99,17.99,0,0,1,10.972,0c6.273,2.109,8.684,5.929,9.562,8.018a2.323,2.323,0,0,0,1.206,1.2c8.966,4.153,13.7,11.728,13.7,21.9,0,4.577-1.371,9.912-2.278,13.443-.083.345-.162.652-.239.95-.052.2-.1.393-.146.576a1.165,1.165,0,0,1-1.445.845,4.657,4.657,0,0,0-2.68.082,1.156,1.156,0,0,1-.332.081Zm2.482-2.593c.047-.187.088-.343.128-.489l.023-.09c.868-3.4,2.18-8.548,2.18-12.777,0-9.331-4.156-16-12.353-19.811a4.671,4.671,0,0,1-1.095-.686,32.239,32.239,0,0,0-6.681,9.067q.16.026.317.062a8.947,8.947,0,0,1,1.019.326,21.373,21.373,0,0,1,13.95,17.2l1.02,7.2.171-.018c1-8.284.064-12.63-.608-14.509a.584.584,0,1,1,1.1-.39c.855,2.4,1.636,6.9.679,14.9ZM5.512,50.08l.408-3.217a31.232,31.232,0,0,1,8.193-17.65c.235-.248.47-.488.7-.717a1.166,1.166,0,0,1,1.515-.116,26.31,26.31,0,0,0,3.29,1.976,17.963,17.963,0,0,0,6.948,2.1c.2.008.4.013.6.013,4.685,0,8.83-2.307,12.487-4.342l.226-.122c2.521-1.364,4.723-2.555,6.749-2.719a33.876,33.876,0,0,1,7.136-9.867,4.681,4.681,0,0,1-.481-.857c-1.658-4.012-5.823-5.928-8.158-6.713a15.68,15.68,0,0,0-9.556,0,12.772,12.772,0,0,1-3.841.592,12.841,12.841,0,0,1-6.1-1.548,12.816,12.816,0,0,1-4.282-3.771c-.343,1.553-.151,4.039,3.064,6.62a.582.582,0,1,1-.728.909c-3.7-2.952-3.872-5.945-3.437-7.835a5.28,5.28,0,0,0-2.909,4.374,1.173,1.173,0,0,1-.52.891,1.163,1.163,0,0,1-1.024.128,5.663,5.663,0,0,1-2.716-2.437,12.245,12.245,0,0,0,3.939,13.759.576.576,0,1,1-.728.892A13.317,13.317,0,0,1,11.706,6.539,16.2,16.2,0,0,0,9.859,8.825a10.864,10.864,0,0,0-.851,10.961,3.882,3.882,0,0,1-.787,4.347,18.977,18.977,0,0,0-5.512,10.6,34.575,34.575,0,0,0,.81,13.6c.155.643.284,1.215.4,1.748h.01A45.491,45.491,0,0,1,5.7,33.84a.583.583,0,0,1,1.107.367A46.4,46.4,0,0,0,5.075,50.042C5.221,50.05,5.368,50.062,5.512,50.08ZM26.758,29.208a20.553,20.553,0,0,1-8.629-2.779.587.587,0,1,1,.583-1.02,19,19,0,0,0,8.111,2.634A18.648,18.648,0,0,0,34.84,26.37a.582.582,0,1,1,.455,1.072,20.118,20.118,0,0,1-7.919,1.766Zm10.875-3.684a.583.583,0,0,1,.289-.651q1.165-.629,2.284-1.253l.076-.041a.585.585,0,0,1,.571,1.02l-.082.041c-.74.414-1.509.839-2.331,1.264a.651.651,0,0,1-.251.064A.583.583,0,0,1,37.633,25.523ZM16.656,20.56h0Zm-.014,0h.014Z" transform="translate(0)" fill="#353a46"/>
            </g>
          </g>
        </g>
      </g>
      <g id="_01_Character_Setup_04_Accessories_Face_Accessories_07" data-name="#01 Character/Setup/#04 Accessories/Face/Accessories#07" transform="translate(115.723 48.164)">
        <g id="_3_glasses" transform="translate(0 0)">
          <g id="Group" transform="translate(10.364 1.189)" opacity="0.41">
            <g id="Path-13" data-name="Path" transform="translate(0 0)">
              <path id="Path-14" data-name="Path" d="M13.944,6.992A6.972,6.972,0,1,1,6.992,0,6.853,6.853,0,0,1,8.869.256a6.41,6.41,0,0,1,1.282.5,6.952,6.952,0,0,1,3.793,6.235Z" fill="#7dbcdd"/>
              <path id="Path-15" data-name="Path" d="M13.944,6.992A6.972,6.972,0,1,1,6.992,0,6.853,6.853,0,0,1,8.869.256a6.41,6.41,0,0,1,1.282.5,6.952,6.952,0,0,1,3.793,6.235Z" fill="rgba(255,255,255,0.16)"/>
            </g>
            <g id="Path-16" data-name="Path" transform="translate(24.165 0)">
              <path id="Path-17" data-name="Path" d="M13.985,6.992A6.992,6.992,0,1,1,6.992,0,6.893,6.893,0,0,1,8.84.251a6.619,6.619,0,0,1,1.253.478,6.957,6.957,0,0,1,3.892,6.264Z" transform="translate(0 0)" fill="#7dbcdd"/>
              <path id="Path-18" data-name="Path" d="M13.985,6.992A6.992,6.992,0,1,1,6.992,0,6.893,6.893,0,0,1,8.84.251a6.619,6.619,0,0,1,1.253.478,6.957,6.957,0,0,1,3.892,6.264Z" transform="translate(0 0)" fill="rgba(255,255,255,0.16)"/>
            </g>
          </g>
          <path id="Light_layer-2" data-name="Light layer" d="M9.323.5.833,11.194A6.9,6.9,0,0,1,0,9.953L8.041,0A6.41,6.41,0,0,1,9.323.5Z" transform="translate(11.168 1.468)" fill="#fff" opacity="0.5"/>
          <path id="Light_layer-3" data-name="Light layer" d="M9.282.449.81,11.124A6.917,6.917,0,0,1,0,9.906L8.03,0A6.619,6.619,0,0,1,9.282.449Z" transform="translate(35.361 1.492)" fill="#fff" opacity="0.5"/>
          <path id="Shape-3" data-name="Shape" d="M0,8.158a8.158,8.158,0,1,1,8.158,8.158A8.158,8.158,0,0,1,0,8.158Z" transform="translate(9.157 0)" fill="#353a46"/>
          <path id="Shape-4" data-name="Shape" d="M0,8.158a8.158,8.158,0,1,1,8.158,8.158A8.158,8.158,0,0,1,0,8.158Z" transform="translate(33.386 0)" fill="#353a46"/>
          <path id="Path-19" data-name="Path" d="M11.535,3.308a1.09,1.09,0,0,1-.4-.076,12.722,12.722,0,0,0-9.416-.047A1.165,1.165,0,1,1,.679,1.1a14.968,14.968,0,0,1,11.264-.052,1.165,1.165,0,0,1-.408,2.261Z" transform="translate(23.075 5.363)" fill="#353a46"/>
          <path id="Path-20" data-name="Path" d="M10.369,3.688h-.175L.93,2.307a1.165,1.165,0,0,1,.344-2.3L10.538,1.38a1.168,1.168,0,1,1-.169,2.331Z" transform="translate(0 5.659)" fill="#353a46"/>
          <path id="Path-21" data-name="Path" d="M1.253,3.731A1.168,1.168,0,0,1,1.084,1.4L10.355.025a1.165,1.165,0,1,1,.338,2.3L1.428,3.708Z" transform="translate(47.26 5.615)" fill="#353a46"/>
        </g>
      </g>
    </g>
  </g>
</svg>
